<svg width="210" height="125" viewBox="0 0 210 125" fill="none" xmlns="http://www.w3.org/2000/svg">
<path d="M67.0833 76.0533C65.8281 97.4023 82.151 115.069 100.568 123.131C101.87 123.694 103.271 124.116 104.667 124.147C106.578 124.22 108.49 123.564 110.234 122.767C123.016 116.829 133.719 107.22 139.328 93.8554C142.089 87.3867 143.521 80.1731 142.052 73.2148C140.901 67.47 137.49 62.1939 132.099 59.6992C125.422 56.5846 116.995 56.4439 110.964 60.5585C108.974 61.7825 107.214 64.1262 104.771 64.2356H104.708C102.109 64.1262 100.13 61.7304 97.9271 60.5169C85.0312 52.3189 68.0677 60.9596 67.099 76.0429L67.0833 76.0533Z" fill="#FAA755"/>
<mask id="mask0_3685_10273" style="mask-type:luminance" maskUnits="userSpaceOnUse" x="170" y="94" width="40" height="22">
<path d="M170.161 94.2188H209.891V115.552H170.161V94.2188Z" fill="white"/>
</mask>
<g mask="url(#mask0_3685_10273)">
<path d="M194.01 94.7188C186.635 94.7188 175.484 99.1823 171.922 102.25C170.193 103.74 170.193 106.417 171.922 107.901C175.484 110.964 186.635 115.432 194.01 115.432C205.245 115.432 209.656 110.797 209.656 105.078C209.656 99.3594 205.245 94.7188 194.01 94.7188Z" fill="#FAA755"/>
</g>
<path d="M164.344 73.9698C168.964 74.8448 180.854 73.1365 187.245 69.4542C196.964 63.8396 198.474 57.6157 195.615 52.6626C192.755 47.7094 186.615 45.9021 176.891 51.5167C170.505 55.199 163.083 64.6417 161.526 69.0844C160.771 71.2407 162.104 73.5532 164.349 73.9803L164.344 73.9698Z" fill="#FFFBEB"/>
<path d="M140.823 48.3813C145.26 46.8292 154.703 39.4126 158.396 33.0219C164.01 23.3032 162.203 17.1626 157.25 14.3032C152.292 11.4438 146.073 12.9438 140.453 22.673C136.771 29.0584 135.057 40.9438 135.932 45.574C136.354 47.8188 138.667 49.1469 140.823 48.3969V48.3813Z" fill="#FAA755"/>
<mask id="mask1_3685_10273" style="mask-type:luminance" maskUnits="userSpaceOnUse" x="94" y="0" width="22" height="40">
<path d="M94.1614 0H115.495V39.5521H94.1614V0Z" fill="white"/>
</mask>
<g mask="url(#mask1_3685_10273)">
<path d="M107.651 37.9785C110.714 34.416 115.182 23.265 115.182 15.89C115.187 4.66081 110.547 0.244141 104.833 0.244141C99.1146 0.244141 94.4739 4.66081 94.4739 15.89C94.4739 23.265 98.9375 34.416 102.005 37.9785C103.495 39.7077 106.167 39.7077 107.656 37.9785H107.651Z" fill="#FFFBEB"/>
</g>
<path d="M68.8333 48.3814C70.9895 49.1418 73.302 47.8033 73.7239 45.5585C74.5989 40.9387 72.8906 29.0481 69.2083 22.6574C63.5885 12.9387 57.3697 11.4283 52.4166 14.2876C47.4583 17.147 45.651 23.2876 51.2656 33.0116C54.9531 39.397 64.3958 46.8189 68.8385 48.3762L68.8333 48.3814Z" fill="#FAA755"/>
<path d="M22.4114 69.4542C28.7968 73.1365 40.6875 74.8501 45.3125 73.9803C47.5573 73.5532 48.8854 71.2407 48.1354 69.0844C46.5781 64.6521 39.1614 55.2094 32.776 51.5167C23.0521 45.9021 16.9114 47.7094 14.0521 52.6626C11.1927 57.6157 12.6979 63.8396 22.4218 69.4542H22.4114Z" fill="#FFFBEB"/>
<mask id="mask2_3685_10273" style="mask-type:luminance" maskUnits="userSpaceOnUse" x="0" y="94" width="40" height="22">
<path d="M0 94.2188H39.4948V115.552H0V94.2188Z" fill="white"/>
</mask>
<g mask="url(#mask2_3685_10273)">
<path d="M37.7292 107.891C39.4635 106.402 39.4635 103.725 37.7292 102.24C34.1667 99.1777 23.0208 94.709 15.6458 94.709C4.41146 94.709 0 99.3444 0 105.063C0 110.782 4.41146 115.423 15.6458 115.423C23.0208 115.423 34.1667 110.959 37.7292 107.891Z" fill="#FAA755"/>
</g>
</svg>
