<svg width="77" height="94" viewBox="0 0 77 94" fill="none" xmlns="http://www.w3.org/2000/svg">
<mask id="mask0_3591_3872" style="mask-type:luminance" maskUnits="userSpaceOnUse" x="0" y="0" width="77" height="94">
<path d="M0 0H76.9583V93.724H0V0Z" fill="white"/>
</mask>
<g mask="url(#mask0_3591_3872)">
<path d="M27.2239 18.36C23.5625 11.5319 17.9479 5.94338 11.1093 2.30276C7.55206 0.412131 3.13539 1.7663 1.23955 5.32359C0.723931 6.29755 0.432263 7.38609 0.390596 8.49026C0.119763 16.2403 2.15622 23.8913 6.23435 30.4694C7.83851 33.0684 10.3125 34.9955 13.2239 35.9278C15.2031 36.558 17.2864 36.8705 19.3646 36.8548C20.75 36.8444 22.0208 37.61 22.651 38.8444L34.1614 61.334L18.7135 85.6309C17.2291 87.9642 17.9166 91.0684 20.2448 92.5475C22.5833 94.0423 25.6823 93.3548 27.1771 91.0163C27.25 90.8913 27.3229 90.7663 27.3906 90.6413L38.3802 69.5475L49.1823 90.61C50.4166 93.0788 53.4271 94.0736 55.8958 92.834C58.3698 91.5944 59.3646 88.5892 58.1198 86.1153C58.0364 85.9434 57.9375 85.7767 57.8385 85.6205L42.4375 61.7819L54.7187 38.2194L61.3281 36.4382C63.276 35.9069 64.8593 34.5163 65.6302 32.6621L76.8541 5.56838C77 5.24547 76.8593 4.86005 76.5364 4.70901C76.2135 4.56838 75.8333 4.70901 75.6771 5.02151L64.8437 26.1882C64.5677 26.7923 63.8541 27.0476 63.25 26.7767C62.651 26.5007 62.3906 25.7976 62.6614 25.1934C62.6771 25.1569 62.6927 25.1257 62.7187 25.0892L73.9427 3.78192C74.0781 3.54755 73.9948 3.24026 73.7552 3.11005C73.5208 2.97463 73.2135 3.05796 73.0833 3.29755C73.0729 3.32359 73.0573 3.33922 73.0468 3.36526L61.3021 24.2194C60.9896 24.7923 60.276 25.0007 59.7083 24.683C59.1406 24.3705 58.9375 23.6569 59.2552 23.084C59.2552 23.0788 59.2656 23.0632 59.2708 23.0528L71.4635 2.4538C71.625 2.22984 71.5729 1.92255 71.3593 1.7663C71.1354 1.59963 70.8281 1.65171 70.6666 1.87567C70.6666 1.87567 70.6614 1.88088 70.6614 1.8913L57.8229 22.2559C57.4791 22.8184 56.7448 23.0007 56.1771 22.6621C55.6146 22.3236 55.4323 21.584 55.7708 21.0215C55.7812 21.0059 55.7968 20.9903 55.8073 20.9694L68.7135 1.00067C68.9114 0.703799 68.8281 0.29755 68.5208 0.110048C68.2396 -0.0826595 67.8593 -0.0149529 67.651 0.255882L49.8073 23.5163C48.5781 25.1153 48.1614 27.1986 48.6875 29.1361L50.4427 35.7507L38.125 55.1153L26.2656 36.7559C25.5156 35.5944 25.4843 34.1205 26.1823 32.933C27.2343 31.1257 27.9948 29.1725 28.4427 27.1309C29.0989 24.1569 28.6666 21.0371 27.2239 18.36Z" fill="#FAA755"/>
</g>
</svg>
