<svg width="90" height="85" viewBox="0 0 90 85" fill="none" xmlns="http://www.w3.org/2000/svg">
<mask id="mask0_3591_4628" style="mask-type:luminance" maskUnits="userSpaceOnUse" x="0" y="0" width="90" height="85">
<path d="M0 0H89.9583V84.9583H0V0Z" fill="white"/>
</mask>
<g mask="url(#mask0_3591_4628)">
<path d="M64.6511 11.2442C72.5522 8.60353 81.3543 11.2442 86.4584 17.765C89.6772 21.8796 90.8959 27.1504 90.1772 32.4056C89.1043 40.2754 83.2553 46.4733 75.6824 48.4004C75.6459 48.4108 75.6251 48.4369 75.6251 48.4785C75.6199 58.6817 75.6199 69.2702 75.6199 80.2494C75.6199 82.8431 73.2241 85.166 70.6459 85.166C53.8595 85.166 36.8074 85.166 19.4793 85.166C18.7501 85.166 17.9793 84.9108 17.172 84.4004C16.047 83.6973 15.1459 82.5098 14.8178 81.2129C14.7501 80.9317 14.7136 80.4317 14.7136 79.7077C14.7136 59.364 14.7136 48.9473 14.7136 48.4681C14.7136 48.4421 14.7032 48.4212 14.6772 48.416C10.3126 47.2337 6.80739 44.9681 4.15113 41.6087C1.53134 38.3014 0.0938434 34.2806 9.27462e-05 30.0671C-0.11449 24.6869 1.57301 20.1192 5.07301 16.3639C7.46364 13.7962 10.448 11.9889 14.0157 10.9473C17.8334 9.82749 21.7345 9.90041 25.7188 11.1608C25.7553 11.1764 25.7866 11.1608 25.8074 11.1296C26.1355 10.5983 26.3751 10.2129 26.5261 9.97332C28.6616 6.62436 31.448 4.09312 34.8855 2.36916C39.4428 0.0931155 44.7293 -0.521468 49.7761 0.473324C56.0209 1.7077 61.4376 5.65562 64.5626 11.2077C64.5834 11.2442 64.6095 11.2546 64.6511 11.2442ZM17.698 48.9264C17.6824 48.9264 17.672 48.9317 17.672 48.9473V70.5046C17.672 70.5775 17.7084 70.6139 17.7813 70.6139H72.4741C72.5834 70.6139 72.6355 70.5619 72.6355 70.4577V48.9889C72.6355 48.9369 72.6095 48.9108 72.5574 48.916C69.8595 49.14 67.2449 48.8067 64.7136 47.916C63.1876 47.3796 63.3438 45.2337 64.9636 44.9942C65.1407 44.9681 65.5522 45.0619 66.1876 45.2702C69.7449 46.4264 73.297 46.3275 76.8491 44.9733C82.073 42.9785 85.8751 38.6504 87.0678 33.2077C87.7345 30.166 87.5834 27.1869 86.6199 24.265C84.7345 18.5619 79.698 14.3483 73.7501 13.3952C71.5834 13.0514 69.4376 13.1139 67.3178 13.5827C67.0261 13.6452 66.5522 13.765 65.9011 13.9421C65.8334 13.9629 65.8074 14.0046 65.8334 14.0723C66.3543 15.4837 66.7553 16.9525 67.0313 18.4733C67.1199 18.9629 67.1407 19.3015 67.0938 19.4837C66.8959 20.2546 66.2605 20.7077 65.4584 20.6504C64.8074 20.6087 64.2345 20.1244 64.1407 19.5098C63.6616 16.3119 62.5574 13.0775 60.5886 10.5046C59.2032 8.70249 57.5886 7.20249 55.7449 6.00457C49.1459 1.73895 40.1043 1.90041 33.7449 6.47853C31.4376 8.13478 29.5886 10.265 28.1928 12.8796C27.8178 13.5827 27.5522 13.9942 27.4011 14.1192C26.948 14.4889 26.3959 14.5827 25.7501 14.4004C25.4376 14.3119 25.0834 14.0671 24.7501 13.9525C20.5209 12.4889 15.7761 12.9317 11.8282 14.9108C8.96884 16.3431 6.74488 18.4056 5.16155 21.0931C2.08864 26.3067 2.16676 32.765 5.19801 37.9733C8.08343 42.9264 13.5053 46.015 19.2501 46.0983C23.0678 46.1608 26.5001 45.0358 29.5574 42.7337C29.5938 42.7077 29.5938 42.6764 29.5574 42.6504C28.1355 41.5046 26.8907 40.2025 25.8282 38.7494C25.3803 38.1348 25.1095 37.7025 25.0105 37.4681C24.4428 36.0462 25.8647 34.7702 27.2032 35.5983C27.3282 35.6764 27.5626 35.9785 27.9011 36.4994C28.6355 37.64 29.5366 38.6869 30.5938 39.6452C35.5626 44.1556 42.4272 45.9421 49.0001 44.5567C51.9168 43.9421 54.6355 42.6296 57.1563 40.6139C57.5678 40.291 57.8438 40.1087 58.0001 40.0671C59.3907 39.6764 60.4376 41.3014 59.5366 42.4004C59.3438 42.6452 58.9376 42.9889 58.3282 43.4264C55.7866 45.2702 53.0626 46.6764 50.1147 47.3535C43.9793 48.7546 37.5626 47.6764 32.1303 44.4837C32.0886 44.4577 32.0522 44.4629 32.0157 44.4889C27.9324 47.8535 22.9741 49.4212 17.698 48.9264ZM45.1616 82.2025C60.1407 82.1973 68.4428 82.1921 70.0678 82.1921C70.6668 82.1869 71.073 82.1504 71.2761 82.0723C72.0782 81.7754 72.6251 81.0775 72.6303 80.2181C72.6407 78.9681 72.6459 76.7702 72.6355 73.6296C72.6355 73.5931 72.6199 73.5723 72.5834 73.5723C63.4428 73.5775 54.3022 73.5827 45.1563 73.5827C36.0157 73.5879 26.8751 73.5879 17.7345 73.5827C17.698 73.5827 17.6824 73.6035 17.6824 73.64C17.672 76.7806 17.6772 78.9785 17.6876 80.2285C17.6928 81.0879 18.2449 81.7858 19.0418 82.0827C19.2501 82.1608 19.6511 82.1973 20.2553 82.1973C21.8803 82.2025 30.1824 82.2025 45.1616 82.2025Z" fill="#FAA755"/>
</g>
</svg>
