<svg width="94" height="94" viewBox="0 0 94 94" fill="none" xmlns="http://www.w3.org/2000/svg">
<mask id="mask0_3637_5100" style="mask-type:luminance" maskUnits="userSpaceOnUse" x="0" y="0" width="94" height="94">
<path d="M0 0H93.9531V93.9531H0V0Z" fill="white"/>
</mask>
<g mask="url(#mask0_3637_5100)">
<path d="M46.8177 0C34.3125 0 22.5521 4.86979 13.7135 13.7135C4.86979 22.5573 0 34.3125 0 46.8177C0 59.3281 4.86979 71.0833 13.7135 79.9219C22.5521 88.7656 34.3125 93.6406 46.8177 93.6406C59.3229 93.6406 71.0781 88.7656 79.9219 79.9219C88.7656 71.0833 93.6354 59.3229 93.6354 46.8177C93.6354 34.3125 88.7656 22.5573 79.9219 13.7135C71.0781 4.86979 59.3229 0 46.8177 0ZM78.7031 78.7031C70.1875 87.224 58.8594 91.9115 46.8177 91.9115C34.7708 91.9115 23.4479 87.224 14.9271 78.7031C6.41146 70.1875 1.72396 58.8646 1.72396 46.8177C1.72396 34.776 6.41146 23.4479 14.9271 14.9323C23.4479 6.41667 34.7708 1.72396 46.8177 1.72396C58.8594 1.72396 70.1875 6.41667 78.7031 14.9323C87.2188 23.4479 91.9115 34.7708 91.9115 46.8177C91.9115 58.8646 87.2188 70.1875 78.7031 78.7031Z" fill="#FAA755"/>
</g>
<path d="M64.9326 27.4844C64.5993 27.8177 64.5993 28.3646 64.9326 28.7031C74.9222 38.6927 74.9222 54.9479 64.9326 64.9375C64.5993 65.2708 64.5993 65.8177 64.9326 66.1563C65.0993 66.3229 65.3232 66.4063 65.5472 66.4063C65.7659 66.4063 65.9847 66.3229 66.1514 66.1563C76.8128 55.4948 76.8128 38.1458 66.1514 27.4844C65.818 27.1458 65.2712 27.1458 64.9326 27.4844Z" fill="#FAA755"/>
<path d="M31.3957 67.2813C30.427 66.5521 29.5311 65.7708 28.6978 64.9375C28.3853 64.625 28.0832 64.3073 27.7915 63.9844C27.6457 63.8229 27.4999 63.6563 27.3592 63.4896C27.2186 63.3281 27.078 63.1615 26.9426 62.9948C26.8228 62.849 26.7082 62.7031 26.5988 62.5573C26.4842 62.4167 26.3749 62.2708 26.2655 62.125C26.1978 62.0365 26.1353 61.9531 26.0728 61.8646C25.9113 61.6406 25.7551 61.4167 25.604 61.1875C25.4738 61.0052 25.354 60.8229 25.2395 60.6354C23.1145 57.3073 21.8072 53.5573 21.3697 49.7083C21.354 49.5833 21.3436 49.4583 21.328 49.3333C21.3176 49.2552 21.3124 49.1719 21.3072 49.0938C21.2915 48.9323 21.2811 48.7708 21.2707 48.6094C21.2551 48.4219 21.2447 48.2344 21.2342 48.0521C21.229 47.8698 21.2186 47.6927 21.2134 47.5156C21.2134 47.4844 21.2134 47.4479 21.2134 47.4167C21.1197 43.526 21.9113 39.6198 23.578 36.026C23.8332 35.4688 24.1145 34.9167 24.4165 34.375C24.4374 34.3385 24.4582 34.3021 24.4738 34.2708C24.5363 34.1667 24.5936 34.0625 24.6561 33.9583C24.7134 33.849 24.7811 33.7448 24.8436 33.6354C24.8592 33.6094 24.8801 33.5781 24.8957 33.5469C24.9686 33.4219 25.0467 33.3021 25.1249 33.1823C25.1457 33.1458 25.1717 33.1042 25.1926 33.0677C25.3645 32.8021 25.5415 32.5312 25.7238 32.2708C25.8228 32.1198 25.927 31.974 26.0363 31.8281C26.1301 31.6979 26.2238 31.5677 26.3228 31.4427C26.3332 31.4271 26.3436 31.4115 26.354 31.3958C27.0624 30.4583 27.8436 29.5573 28.6978 28.7031C29.0363 28.3646 29.0363 27.8177 28.6978 27.4844C28.3645 27.1458 27.8176 27.1458 27.479 27.4844C26.5676 28.3958 25.7342 29.3542 24.979 30.3594C24.8645 30.5104 24.7499 30.6667 24.6353 30.8229C24.5259 30.9792 24.4165 31.1354 24.3072 31.2917C24.0884 31.6042 23.8801 31.9219 23.677 32.2396C23.578 32.401 23.479 32.5625 23.3801 32.724C23.2863 32.8854 23.1874 33.0469 23.0936 33.2135C23.0051 33.3594 22.9217 33.5156 22.8384 33.6719C22.7551 33.8177 22.677 33.9635 22.5988 34.1094C22.5259 34.25 22.453 34.3906 22.3853 34.5313C22.3332 34.6302 22.2863 34.7344 22.2342 34.8333C22.1613 34.9896 22.0884 35.1406 22.0103 35.3021C21.9217 35.5 21.8332 35.6979 21.7447 35.8958C21.7395 35.9062 21.7342 35.9115 21.7342 35.9219C19.953 40.0156 19.2447 44.4115 19.552 48.7292C19.578 49.1406 19.6145 49.5521 19.6613 49.9583C19.677 50.0625 19.6874 50.1667 19.703 50.2708C19.7186 50.401 19.7395 50.5313 19.7551 50.6563C20.2707 54.3542 21.5415 57.9583 23.5728 61.2292C23.6457 61.3438 23.7134 61.4531 23.7863 61.5625C23.979 61.8698 24.177 62.1667 24.3853 62.4635C24.5051 62.6354 24.6301 62.8073 24.7551 62.9792C24.7603 62.9896 24.7707 63 24.7759 63.0104C24.9009 63.1771 25.0259 63.349 25.1561 63.5156C25.1613 63.5208 25.1665 63.5313 25.177 63.5365C25.3176 63.724 25.4582 63.901 25.604 64.0833C26.1874 64.7969 26.8124 65.4896 27.479 66.1563C28.3645 67.0417 29.3228 67.8802 30.354 68.6563C30.5103 68.7708 30.6926 68.8281 30.8749 68.8281C31.1353 68.8281 31.3957 68.7083 31.5624 68.4844C31.8488 68.1042 31.7707 67.5677 31.3957 67.2813Z" fill="#FAA755"/>
<path d="M45.9896 17.1458C45.5104 17.1719 45.1458 17.5781 45.1667 18.0521L45.7865 30.7083C45.776 33.224 44.1667 35.4427 41.776 36.2292C41.349 36.3698 41.1094 36.8125 41.2083 37.2396V37.2552L42.4792 73.9271C42.5052 74.6198 42.25 75.276 41.7708 75.7708C41.2917 76.2656 40.651 76.5417 39.9583 76.5417C39.2656 76.5417 38.625 76.2656 38.1458 75.7708C37.6667 75.276 37.4115 74.6198 37.4375 73.9271L38.7083 37.2552C38.7135 37.2187 38.7083 37.1875 38.7083 37.1562C38.7604 36.75 38.5208 36.3542 38.125 36.224C35.7396 35.4323 34.1406 33.2187 34.1302 30.7083L34.75 18.0521C34.7708 17.5781 34.4063 17.1719 33.9271 17.1458C33.4479 17.1198 33.0469 17.4896 33.026 17.9687L32.4062 30.6458V30.6875C32.4062 33.7292 34.2188 36.4427 36.9688 37.625L35.7135 73.8698C35.6719 75.0312 36.099 76.1302 36.901 76.9687C37.7083 77.8021 38.7969 78.2656 39.9583 78.2656C41.1198 78.2656 42.2083 77.8021 43.0104 76.9687C43.8177 76.1302 44.2448 75.0312 44.2031 73.8698L42.9427 37.625C45.7031 36.4479 47.5104 33.7344 47.5104 30.6875L46.8906 17.9687C46.8698 17.4896 46.4635 17.125 45.9896 17.1458Z" fill="#FAA755"/>
<path d="M37.724 32.3236H37.7344C38.2084 32.3236 38.5938 31.9486 38.599 31.4746L38.7553 18.0215C38.7605 17.5423 38.3751 17.1517 37.9011 17.1465H37.8907C37.4219 17.1465 37.0365 17.5267 37.0261 18.0007L36.8751 31.4538C36.8698 31.9277 37.2501 32.3236 37.724 32.3236Z" fill="#FAA755"/>
<path d="M42.182 32.3238H42.1924C42.6664 32.3238 43.0466 31.9279 43.0414 31.454L42.8904 18.0009C42.8799 17.5217 42.4893 17.1363 42.0154 17.1467C41.5414 17.1519 41.156 17.5425 41.1612 18.0217L41.3174 31.4748C41.3226 31.9488 41.7081 32.3238 42.182 32.3238Z" fill="#FAA755"/>
<path d="M60.7451 51.1832L60.2763 15.4592C60.2763 14.1884 59.2451 13.1519 57.9795 13.1467C57.7347 13.1415 56.6253 13.2144 55.292 14.553C52.3649 17.5061 49.0368 25.8863 49.8284 49.0478C49.8753 50.5373 51.5368 50.7926 52.7451 50.9801C52.9743 51.0165 53.2138 51.053 53.4326 51.0946L52.6461 73.8707C52.6045 75.0321 53.0263 76.1311 53.8336 76.9696C54.6409 77.803 55.7243 78.2665 56.8909 78.2665C58.0524 78.2665 59.1357 77.803 59.943 76.9696C60.7503 76.1311 61.1722 75.0321 61.1305 73.8863L60.7451 51.1988V51.1832ZM58.7034 75.7717C58.2243 76.2665 57.5784 76.5426 56.8909 76.5426C56.1982 76.5426 55.5524 76.2665 55.0732 75.7717C54.594 75.2769 54.344 74.6207 54.3649 73.928L55.1774 50.5165V50.4592L55.1826 50.428C55.1826 50.4123 55.1826 50.3915 55.1774 50.3759C55.1774 50.3655 55.1774 50.3498 55.1774 50.3394C55.1722 50.3134 55.1722 50.2873 55.1618 50.2613C55.1565 50.2353 55.1513 50.2092 55.1461 50.1884C55.1461 50.1832 55.1461 50.178 55.1409 50.1728C55.1357 50.1467 55.1253 50.1259 55.1149 50.1051C55.0628 49.9748 54.9847 49.8603 54.8753 49.7717C54.8597 49.7561 54.8388 49.7405 54.818 49.7248C54.7972 49.7092 54.7711 49.6988 54.7503 49.6832C54.7243 49.6728 54.6982 49.6571 54.6774 49.6467C54.6565 49.6363 54.6357 49.6311 54.6149 49.6207C54.6097 49.6207 54.6097 49.6207 54.6045 49.6155L54.5836 49.6103C54.0993 49.4436 53.542 49.3551 53.0055 49.2769C52.5368 49.204 51.7763 49.0894 51.5472 48.9332C50.4482 16.2769 57.6513 14.9123 57.969 14.8707H57.9743C58.2972 14.8759 58.5524 15.1363 58.5524 15.4696L59.0211 51.1936V51.2092L59.4065 73.928C59.4326 74.6207 59.1826 75.2769 58.7034 75.7717Z" fill="#FAA755"/>
</svg>
