<svg width="94" height="64" viewBox="0 0 94 64" fill="none" xmlns="http://www.w3.org/2000/svg">
<mask id="mask0_3637_2954" style="mask-type:luminance" maskUnits="userSpaceOnUse" x="0" y="0" width="94" height="57">
<path d="M0 0H93.9531V56.4115H0V0Z" fill="white"/>
</mask>
<g mask="url(#mask0_3637_2954)">
<path d="M92.3075 52.3327H88.7554C88.0366 31.8796 72.5522 15.1296 52.6616 12.4264C53.8127 11.1087 54.5106 9.38997 54.5106 7.50977C54.5106 3.37435 51.146 0.00976562 47.0106 0.00976562C42.8752 0.00976562 39.5106 3.37435 39.5106 7.50977C39.5106 9.39518 40.2137 11.1087 41.3647 12.4264C35.2189 13.2598 29.3439 15.4316 24.1252 18.8535C16.2397 24.0254 10.2762 31.7858 7.32829 40.7025C6.08871 44.4525 5.396 48.3587 5.26058 52.3327H1.7137C0.890787 52.3327 0.224121 52.9941 0.224121 53.8171C0.224121 54.64 0.890787 55.3066 1.7137 55.3066H92.3075C93.1304 55.3066 93.797 54.64 93.797 53.8171C93.797 52.9941 93.1304 52.3327 92.3075 52.3327ZM42.4845 7.50977C42.4845 5.01497 44.5158 2.98372 47.0106 2.98372C49.5054 2.98372 51.5366 5.01497 51.5366 7.50977C51.5366 10.0046 49.5054 12.0358 47.0106 12.0358C44.5158 12.0358 42.4845 10.0046 42.4845 7.50977ZM10.1564 41.6348C12.8908 33.3535 18.4325 26.1504 25.7606 21.3431C32.0731 17.2025 39.422 15.0098 47.0106 15.0098C67.9116 15.0098 84.995 31.6191 85.7814 52.3327H8.23454C8.36995 48.6764 9.01579 45.0879 10.1564 41.6348Z" fill="#FAA755"/>
</g>
<mask id="mask1_3637_2954" style="mask-type:luminance" maskUnits="userSpaceOnUse" x="0" y="21" width="94" height="43">
<path d="M0 21.7461H93.9531V63.9701H0V21.7461Z" fill="white"/>
</mask>
<g mask="url(#mask1_3637_2954)">
<path d="M92.3073 64.2201H1.48438C0.661458 64.2201 0 63.5535 0 62.7358C0 61.9128 0.661458 61.2462 1.48438 61.2462H92.3073C93.1302 61.2462 93.7969 61.9128 93.7969 62.7358C93.7969 63.5535 93.1302 64.2201 92.3073 64.2201ZM22.4427 39.4233C25.3646 33.241 30.4375 28.3712 36.7292 25.7201C37.4844 25.3972 37.8438 24.5274 37.5208 23.7722C37.2031 23.0118 36.3281 22.6628 35.5729 22.9806C28.6042 25.9181 22.9844 31.3035 19.7552 38.1524C19.401 38.8972 19.7188 39.7826 20.4635 40.1316C20.6667 40.2306 20.8854 40.2722 21.099 40.2722C21.6563 40.2722 22.1875 39.9597 22.4427 39.4233Z" fill="#FAA755"/>
</g>
</svg>
