<svg width="115" height="92" viewBox="0 0 115 92" fill="none" xmlns="http://www.w3.org/2000/svg">
<mask id="mask0_3637_2950" style="mask-type:luminance" maskUnits="userSpaceOnUse" x="75" y="17" width="40" height="55">
<path d="M75.5884 17.8691H114.948V71.2025H75.5884V17.8691Z" fill="white"/>
</mask>
<g mask="url(#mask0_3637_2950)">
<path d="M114.37 28.4425C114.568 28.0884 114.63 27.7134 114.563 27.3175C114.495 26.9217 114.313 26.5884 114.005 26.3227C113.703 26.0571 113.349 25.9165 112.948 25.9009C112.547 25.8852 112.182 25.9998 111.859 26.2446C108.599 29.9946 105.333 33.7446 102.068 37.4946C103.813 32.1144 105.552 26.7342 107.297 21.354C107.427 21.0623 107.495 20.7654 107.505 20.4477C107.516 20.1352 107.464 19.8279 107.349 19.5363C107.24 19.2394 107.073 18.979 106.854 18.7498C106.641 18.5206 106.385 18.3436 106.099 18.2186C105.807 18.0884 105.505 18.0206 105.193 18.0154C104.88 18.0102 104.573 18.0623 104.281 18.1769C103.984 18.2915 103.729 18.4581 103.5 18.6769C103.271 18.8956 103.099 19.1509 102.974 19.4425C100.276 24.1456 97.5833 28.8488 94.8854 33.5519C95.8073 29.2081 96.724 24.8644 97.6458 20.5206C97.7031 20.255 97.7135 19.9946 97.6719 19.729C97.6302 19.4634 97.5417 19.2134 97.401 18.9842C97.2604 18.7498 97.0833 18.5571 96.8698 18.3956C96.6562 18.2342 96.4167 18.1196 96.1563 18.0519C95.8958 17.9842 95.6302 17.9686 95.3646 17.9998C95.099 18.0363 94.849 18.1196 94.6146 18.255C94.3802 18.3852 94.1771 18.5623 94.0104 18.7706C93.8438 18.9842 93.724 19.2186 93.651 19.479C92.099 23.7915 90.5521 28.1144 89 32.4321C88.9219 29.4738 88.8438 26.5154 88.7656 23.5623C88.6823 23.1248 88.4792 22.7602 88.1563 22.4529C87.8333 22.1509 87.4531 21.9738 87.0156 21.9217C86.75 21.9061 86.5 21.9425 86.25 22.0311C86 22.1144 85.776 22.2446 85.5781 22.4165C85.3802 22.5884 85.2188 22.7915 85.099 23.0206C84.9792 23.255 84.9062 23.4998 84.8802 23.7654C84.5365 28.4581 84.1927 33.1509 83.8438 37.8384C82.6458 40.4061 81.7708 42.6248 81.1563 44.3227C80.2344 46.854 79.9635 48.0259 80.25 49.3904C80.5312 50.6248 81.1198 51.6925 82.0156 52.5884C80.026 56.3123 78.0365 60.0415 76.0469 63.7654C81.0833 65.9321 86.125 68.104 91.1615 70.2759C91.9583 68.7134 92.7552 67.1561 93.5469 65.5988C95 62.755 96.4479 59.9165 97.901 57.0727C98.2656 57.0571 98.625 57.0206 98.9844 56.9581C101.333 56.5779 103.49 55.4686 106.729 52.6925C108.766 50.9477 110.651 49.0467 112.38 46.9946C112.49 46.8696 112.578 46.729 112.651 46.5779C112.724 46.4217 112.776 46.2654 112.807 46.0988C112.839 45.9321 112.849 45.7654 112.839 45.5988C112.828 45.4321 112.797 45.2654 112.74 45.1092C112.688 44.9477 112.615 44.7967 112.521 44.6561C112.427 44.5154 112.318 44.3904 112.193 44.2759C112.068 44.1613 111.932 44.0675 111.781 43.9894C111.635 43.9165 111.474 43.8592 111.313 43.8227C110.417 43.6196 109.521 43.6092 108.62 43.7811C106.964 44.1144 105.615 44.9425 104.573 46.2706C104.182 46.7602 103.672 46.9998 103.047 46.9894C104.042 45.0363 105.042 43.0831 106.036 41.1248C108.818 36.9009 111.594 32.6717 114.37 28.4425Z" fill="#FFD3BB"/>
</g>
<path d="M93.5469 65.5983C92.7552 67.1608 91.9583 68.7181 91.1615 70.2754C86.125 68.1035 81.0833 65.9368 76.0469 63.765C78.0365 60.0358 80.026 56.3118 82.0156 52.5879C82.0156 52.5879 85.1719 61.0618 93.5469 65.5983Z" fill="#F9B28F"/>
<path d="M94.5361 70.1654C91.9216 75.8112 89.3122 81.4622 86.7028 87.1133C86.4007 87.7643 85.9945 88.3477 85.4841 88.8581C84.9788 89.3685 84.3955 89.7747 83.7393 90.0768C83.0882 90.3789 82.4007 90.5612 81.682 90.6185C80.9632 90.6758 80.2549 90.6081 79.5622 90.4154C75.3747 89.2747 71.1091 88.5977 66.7757 88.3841C65.4893 88.3164 64.1716 88.2747 62.8434 88.2747C62.6507 88.2747 62.458 88.2747 62.2705 88.2799L67.4216 75.4831L74.4788 57.957C75.9528 58.0352 77.4163 58.207 78.8643 58.4883C84.3955 59.5404 89.2913 61.9154 93.5466 65.5977L93.5726 65.6185C93.8903 65.8945 94.1507 66.2122 94.3643 66.5768C94.5778 66.9362 94.7236 67.3216 94.8122 67.7331C94.9007 68.1393 94.9163 68.556 94.8695 68.9674C94.8226 69.3841 94.7132 69.7852 94.5361 70.1654Z" fill="#F16457"/>
<path d="M74.0414 26.8997C73.1352 27.0456 72.3018 27.3685 71.531 27.8633C70.1143 28.7956 69.1716 30.0716 68.7029 31.7018C68.5206 32.2956 68.1352 32.7018 67.5571 32.9258C67.7498 30.7435 67.9477 28.556 68.1404 26.3685C69.1404 21.4102 70.1404 16.4466 71.1352 11.4883C71.1768 11.0508 71.0727 10.655 70.8175 10.2956C70.5623 9.9362 70.2237 9.70703 69.7966 9.59766C69.4425 9.52995 69.0987 9.57162 68.7706 9.71224C68.4373 9.85808 68.1768 10.082 67.9841 10.3893C66.3591 15.0872 63.682 20.0716 62.057 24.7695C61.6612 19.1289 62.3175 13.1966 61.9216 7.55078C61.932 7.23828 61.8852 6.9362 61.7758 6.63933C61.6664 6.34766 61.505 6.08203 61.2914 5.85287C61.0779 5.6237 60.8279 5.44662 60.5414 5.31641C60.255 5.1862 59.9529 5.11328 59.6404 5.10287C59.3279 5.09245 59.0258 5.14453 58.7289 5.25391C58.4373 5.36849 58.1768 5.52995 57.9477 5.74349C57.7185 5.95703 57.5414 6.20703 57.4112 6.49349C57.281 6.77995 57.2133 7.08203 57.2029 7.39453C56.4581 12.7643 56.1925 18.7956 55.4477 24.1706C54.682 19.7956 53.432 14.7591 52.6612 10.3893C52.6195 10.1237 52.531 9.8737 52.3904 9.64453C52.255 9.41016 52.0779 9.21745 51.8643 9.05078C51.6456 8.88933 51.4112 8.77474 51.1508 8.70703C50.8904 8.63933 50.6248 8.61849 50.3591 8.65495C50.0935 8.6862 49.8383 8.76953 49.6039 8.90495C49.3696 9.03516 49.1716 9.20703 49.005 9.42058C48.8383 9.62891 48.7133 9.86329 48.6404 10.1237C48.5623 10.3841 48.5414 10.6445 48.5675 10.9102C48.7393 15.4935 48.9164 20.0768 49.0935 24.6602C47.9164 21.9518 46.7341 19.2383 45.557 16.53C45.3227 16.155 44.9945 15.8841 44.5831 15.7227C44.1716 15.5612 43.7498 15.5404 43.3227 15.655C43.0727 15.7435 42.8539 15.8737 42.656 16.0456C42.4581 16.2175 42.2966 16.4206 42.1768 16.655C42.057 16.8893 41.9841 17.1341 41.9581 17.3945C41.932 17.655 41.9581 17.9154 42.031 18.1654C43.4633 22.6445 44.8956 27.1289 46.3279 31.6081C46.1768 34.4362 46.1925 36.8216 46.2602 38.6237C46.3487 41.3216 46.531 42.5039 47.307 43.6654C48.031 44.707 48.9737 45.4779 50.1404 45.9727C49.6873 50.1758 49.2341 54.3737 48.7758 58.5716C54.2602 58.7018 59.7446 58.832 65.2341 58.9622C65.3904 57.2227 65.5466 55.4779 65.6977 53.7383C65.9841 50.5612 66.2654 47.3789 66.5466 44.2018C66.88 44.0508 67.2029 43.8789 67.5154 43.6914C69.5518 42.4622 71.1352 40.6237 73.1039 36.8425C74.3383 34.4622 75.3748 31.9987 76.2185 29.457C76.2706 29.2956 76.3018 29.1289 76.3123 28.9622C76.3227 28.7956 76.3123 28.6289 76.281 28.4622C76.2498 28.2956 76.1977 28.1341 76.1248 27.9831C76.0518 27.832 75.9581 27.6914 75.8487 27.5612C75.7393 27.4362 75.6196 27.3216 75.4789 27.2227C75.3383 27.1289 75.1925 27.0508 75.0362 26.9935C74.8748 26.9362 74.7133 26.8945 74.5414 26.8789C74.3748 26.8633 74.2081 26.8685 74.0414 26.8997Z" fill="#FFD3BB"/>
<path d="M65.6978 53.7383C65.5415 55.4779 65.3905 57.2227 65.2342 58.9622C59.7446 58.832 54.2603 58.7018 48.7759 58.5716C49.229 54.3685 49.6873 50.1706 50.1405 45.9727C50.1405 45.9727 51.7811 49.6081 65.6978 53.7383Z" fill="#F9B28F"/>
<path d="M65.7292 53.7431C66.125 53.8837 66.4896 54.0816 66.8229 54.3369C67.151 54.5921 67.4375 54.8941 67.6667 55.2431C67.901 55.5921 68.0729 55.9671 68.1875 56.3733C68.2969 56.7744 68.3438 57.1858 68.3229 57.6025C68.0208 63.566 67.724 69.5244 67.4219 75.4827C67.2031 79.7848 66.9896 84.0869 66.776 88.3837C65.4896 88.316 64.1719 88.2744 62.8438 88.2744C62.651 88.2744 62.4583 88.2744 62.2708 88.2796C62.0833 88.2796 61.901 88.2848 61.7188 88.2848C57.7135 88.3369 53.7448 88.7483 49.8125 89.5244C49.5312 89.5816 49.25 89.6077 48.9583 89.6025C48.6719 89.5973 48.3906 89.5608 48.1094 89.4931C47.8281 89.4202 47.5625 89.3212 47.3021 89.1962C47.0469 89.066 46.8073 88.9098 46.5833 88.7275C46.3594 88.5452 46.1562 88.3421 45.9792 88.1181C45.8021 87.8889 45.651 87.6441 45.5313 87.3837C45.4063 87.1233 45.3125 86.8525 45.25 86.5764C45.1875 86.2952 45.1562 86.0087 45.1562 85.7223V56.6806C45.1562 56.2431 45.224 55.816 45.3698 55.4046C45.5156 54.9931 45.7188 54.6129 45.9896 54.2691C46.2604 53.9254 46.5833 53.6389 46.9531 53.4046C47.3177 53.1702 47.7188 52.9983 48.1406 52.8994C48.5469 52.8004 48.974 52.7066 49.4219 52.6233C54.9479 51.54 60.3698 51.9098 65.6979 53.7327L65.7292 53.7431Z" fill="#FAA755"/>
<mask id="mask1_3637_2950" style="mask-type:luminance" maskUnits="userSpaceOnUse" x="0" y="17" width="44" height="55">
<path d="M0 17.8691H43.5885V71.2025H0V17.8691Z" fill="white"/>
</mask>
<g mask="url(#mask1_3637_2950)">
<path d="M40.3229 57.2491C38.8229 54.4314 37.3229 51.6189 35.8177 48.8012C36.0156 48.4939 36.1875 48.1762 36.349 47.8481C37.3802 45.7022 37.7031 43.3012 37.276 39.0512C37.0104 36.3845 36.5313 33.7491 35.8385 31.1554C35.7969 30.9939 35.7344 30.8429 35.651 30.697C35.5729 30.5512 35.474 30.4158 35.3542 30.296C35.2396 30.1762 35.1094 30.072 34.9688 29.9835C34.8281 29.9001 34.6771 29.8324 34.5156 29.7804C34.3542 29.7335 34.1927 29.7074 34.026 29.7022C33.8594 29.6918 33.6927 29.7074 33.5313 29.7439C33.3646 29.7804 33.2135 29.8376 33.0625 29.9106C32.9115 29.9887 32.776 30.0824 32.651 30.1918C31.9635 30.8168 31.4271 31.5512 31.0521 32.4001C30.375 33.9522 30.2865 35.5304 30.7813 37.1449C30.9531 37.7491 30.8542 38.3012 30.4948 38.8116C29.4583 36.8741 28.4271 34.9418 27.3958 33.0043C25.5156 28.3064 23.6406 23.6085 21.7604 18.9106C21.5573 18.5251 21.25 18.2491 20.8385 18.0876C20.4323 17.9262 20.0208 17.9158 19.6094 18.0616C19.276 18.197 19.0104 18.4158 18.8125 18.7179C18.6146 19.0199 18.5156 19.3481 18.5208 19.7126C19.7292 24.5356 20.9375 29.3585 22.1458 34.1814C18.7292 29.671 15.3125 25.1658 11.8958 20.6554C11.7344 20.3897 11.526 20.1606 11.2708 19.9731C11.0208 19.7856 10.7396 19.6554 10.4375 19.5824C10.1302 19.5043 9.82292 19.4939 9.51042 19.5408C9.20313 19.5876 8.91146 19.6918 8.64583 19.8533C8.375 20.0199 8.15104 20.2283 7.96354 20.4783C7.77604 20.7335 7.64583 21.0147 7.57292 21.3168C7.5 21.6241 7.48958 21.9314 7.53646 22.2439C7.58333 22.5512 7.69271 22.8429 7.85417 23.1085C10.1719 28.0095 12.4896 32.9158 14.8073 37.8168C11.7708 34.5772 8.72917 31.3376 5.69271 28.0981C5.51562 27.8949 5.30208 27.7387 5.0625 27.6189C4.81771 27.5043 4.5625 27.4366 4.29167 27.4158C4.02604 27.4001 3.76042 27.4314 3.50521 27.5147C3.25 27.6033 3.02083 27.7283 2.81771 27.9054C2.60937 28.0824 2.44792 28.2856 2.32292 28.5251C2.19792 28.7647 2.125 29.0199 2.09896 29.2856C2.07292 29.5564 2.10417 29.8168 2.18229 30.0772C2.26042 30.3324 2.38021 30.5668 2.55208 30.7751C5.20833 34.5199 7.85938 38.2595 10.5156 41.9991C8.04688 40.3741 5.57812 38.7491 3.10417 37.1189C2.70312 36.9366 2.28646 36.8949 1.84896 36.9835C1.41667 37.0772 1.05208 37.2856 0.755208 37.6189C0.598957 37.8272 0.484374 38.0564 0.411458 38.3064C0.33854 38.5616 0.317708 38.8168 0.343749 39.0772C0.375 39.3376 0.447916 39.5876 0.567708 39.8168C0.692708 40.0512 0.848957 40.2543 1.05208 40.421C4.70313 43.3897 8.35417 46.3585 12.0052 49.322C13.4219 51.7751 14.7448 53.7595 15.7812 55.2387C17.3333 57.4418 18.1354 58.3324 19.4167 58.8793C20.5937 59.3585 21.8073 59.4835 23.0521 59.2595C24.974 63.0251 26.8906 66.7908 28.8073 70.5512C33.4688 67.6606 38.1302 64.7699 42.7917 61.8793C41.9688 60.3324 41.1458 58.7908 40.3229 57.2491Z" fill="#FFD3BB"/>
</g>
<path d="M42.7913 61.8802C38.1299 64.7708 33.4684 67.6615 28.807 70.5521C26.8851 66.7865 24.9684 63.026 23.0518 59.2604C23.0518 59.2604 29.0622 60.6719 40.3226 57.25C41.1455 58.7917 41.9684 60.3385 42.7913 61.8802Z" fill="#F9B28F"/>
<mask id="mask2_3637_2950" style="mask-type:luminance" maskUnits="userSpaceOnUse" x="23" y="56" width="40" height="36">
<path d="M23.5884 56.5352H62.255V91.957H23.5884V56.5352Z" fill="white"/>
</mask>
<g mask="url(#mask2_3637_2950)">
<path d="M61.7186 88.285C55.5519 88.3839 49.854 89.2589 45.1561 90.6964C44.604 90.8683 44.0727 91.0402 43.5467 91.2225C42.9061 91.4516 42.2446 91.5714 41.5623 91.5766C40.88 91.5818 40.2186 91.4777 39.5727 91.2589C38.9269 91.0402 38.3331 90.7225 37.7915 90.3058C37.255 89.8891 36.7967 89.3996 36.4217 88.8266L24.7342 70.9464C24.4998 70.5818 24.3227 70.186 24.2186 69.7641C24.1144 69.3371 24.0831 68.91 24.1196 68.4777C24.1613 68.0402 24.2706 67.6235 24.4477 67.2277C24.63 66.8318 24.8696 66.4725 25.1665 66.1548C25.4581 65.8527 25.7654 65.5402 26.0936 65.2225C30.1196 61.2902 34.8644 58.6339 40.3227 57.2485L40.354 57.2381C40.7602 57.1391 41.1717 57.1027 41.5884 57.1339C42.0102 57.1652 42.4113 57.2641 42.7967 57.4308C43.1821 57.5923 43.5311 57.811 43.8436 58.0871C44.1613 58.3631 44.4217 58.686 44.63 59.0454L45.1561 59.9412C50.6717 69.3891 56.1925 78.8371 61.7186 88.285Z" fill="#F84C3C"/>
</g>
<path d="M83.7186 56.8374C83.4165 55.9676 82.9373 55.2176 82.2759 54.577C81.6196 53.9363 80.8488 53.4832 79.9686 53.2176C77.7811 52.5457 75.3852 53.4468 73.7029 55.4988C72.0154 53.4468 69.6196 52.5457 67.4321 53.2176C66.5519 53.4832 65.7811 53.9363 65.1248 54.577C64.4634 55.2176 63.9842 55.9676 63.6821 56.8374C62.9321 59.0718 63.4894 61.7436 65.1144 63.6082L73.7029 70.2749L82.2863 63.6082C83.9113 61.7436 84.4686 59.0718 83.7186 56.8374Z" fill="#F84C3C"/>
<mask id="mask3_3637_2950" style="mask-type:luminance" maskUnits="userSpaceOnUse" x="20" y="0" width="23" height="22">
<path d="M20.9219 0H42.2552V21.8698H20.9219V0Z" fill="white"/>
</mask>
<g mask="url(#mask3_3637_2950)">
<path d="M40.9321 3.24046C39.2915 0.537339 36.8227 0.230047 36.2446 0.183173C33.9373 0.00608862 31.8852 1.61546 30.854 4.31859C28.6248 2.47484 26.0415 2.08942 24.1248 3.39151C23.6508 3.71442 21.6508 5.20401 21.5623 8.36546C21.5519 9.74567 21.8383 11.0686 22.4269 12.3186C23.0206 13.5686 23.854 14.6311 24.9321 15.5009L35.1873 20.6884L41.531 11.1103C42.0415 9.81859 42.2394 8.48526 42.1352 7.10505C42.031 5.72484 41.63 4.43838 40.9321 3.24046Z" fill="#F84C3C"/>
</g>
</svg>
