<svg width="79" height="76" viewBox="0 0 79 76" fill="none" xmlns="http://www.w3.org/2000/svg">
<mask id="mask0_3637_5149" style="mask-type:luminance" maskUnits="userSpaceOnUse" x="1" y="11" width="76" height="54">
<path d="M1.76025 11.3379H76.7238V64.3119H1.76025V11.3379Z" fill="white"/>
</mask>
<g mask="url(#mask0_3637_5149)">
<path d="M76.4689 16.405C76.4689 13.7852 74.3127 11.6289 71.6981 11.6289H6.82293C4.20313 11.6289 2.04688 13.7852 2.04688 16.405V59.0352C2.04688 61.655 4.20313 63.8113 6.82293 63.8113H71.6981C74.3127 63.8113 76.4689 61.655 76.4689 59.0352V16.405Z" stroke="#838383" stroke-width="0.575171"/>
</g>
<mask id="mask1_3637_5149" style="mask-type:luminance" maskUnits="userSpaceOnUse" x="1" y="11" width="76" height="32">
<path d="M1.76025 11.3379H76.7238V42.9993H1.76025V11.3379Z" fill="white"/>
</mask>
<g mask="url(#mask1_3637_5149)">
<path d="M39.2346 36.1251C39.3075 36.1251 39.3491 36.1146 39.37 36.099C40.6669 34.8803 42.5887 34.625 44.0731 35.6355C45.3231 36.4844 45.7502 37.7969 45.3544 39.573C45.3544 39.5834 45.3544 39.599 45.3544 39.6094C45.3648 39.6511 45.4065 39.6719 45.4481 39.6615C45.4585 39.6615 45.469 39.6563 45.4794 39.6459C54.1356 32.4688 61.1461 26.6146 66.5055 22.0886C68.3596 20.5261 70.1044 18.9375 71.7346 17.3281C72.6461 16.4271 73.4534 15.4688 74.1617 14.4583C74.3023 14.2552 74.2815 13.974 74.1096 13.7969C73.5263 13.1823 72.7607 12.8698 71.8232 12.849C69.193 12.7969 58.3336 12.7708 39.2346 12.776C20.1356 12.776 9.27097 12.8073 6.64076 12.8594C5.70326 12.8802 4.93763 13.1927 4.35429 13.8073C4.18242 13.9844 4.16159 14.2656 4.30221 14.4688C5.01055 15.4792 5.81783 16.4375 6.72929 17.3333C8.36471 18.9479 10.1043 20.5365 11.9585 22.099C17.3231 26.6198 24.3335 32.4688 32.995 39.6511C33.0002 39.6563 33.0106 39.6615 33.0262 39.6667C33.0627 39.6771 33.1096 39.6511 33.1148 39.6094C33.12 39.599 33.12 39.5886 33.1148 39.5782C32.7241 37.8021 33.1512 36.4896 34.396 35.6355C35.8804 34.625 37.8023 34.8803 39.1044 36.099C39.12 36.1146 39.1669 36.1251 39.2346 36.1251Z" stroke="#817856" stroke-width="0.575171"/>
</g>
<mask id="mask2_3637_5149" style="mask-type:luminance" maskUnits="userSpaceOnUse" x="1" y="11" width="32" height="54">
<path d="M1.76025 11.3379H32.6665V64.3119H1.76025V11.3379Z" fill="white"/>
</mask>
<g mask="url(#mask2_3637_5149)">
<path d="M28.5994 37.8425C28.6463 37.8008 28.6671 37.7435 28.6671 37.681C28.6671 37.6133 28.6359 37.5508 28.5838 37.5039C23.0004 32.9362 17.115 28.0456 10.9275 22.8373C9.06291 21.2643 7.43791 19.7852 6.05249 18.3945C5.06811 17.405 4.2452 16.431 3.58895 15.4779C3.56812 15.4466 3.53166 15.4258 3.4952 15.4258C3.44312 15.4258 3.40145 15.4622 3.38583 15.5091C3.28687 15.8372 3.23998 16.2175 3.23998 16.6445C3.22957 43.1758 3.22436 56.4467 3.22436 56.4467C3.20874 57.8217 3.14102 59.129 3.63582 60.405C3.65144 60.4519 3.69832 60.4832 3.7504 60.4832C3.78686 60.4832 3.82332 60.4675 3.84415 60.4363C4.47436 59.6082 5.15665 58.8269 5.88061 58.0925C7.86499 56.0821 10.115 53.9623 12.6306 51.7384C16.8129 48.0456 21.8598 43.6654 27.7713 38.6029C28.115 38.306 28.3911 38.056 28.5994 37.8425Z" stroke="#817856" stroke-width="0.575171"/>
</g>
<mask id="mask3_3637_5149" style="mask-type:luminance" maskUnits="userSpaceOnUse" x="46" y="11" width="31" height="54">
<path d="M46 11.3379H76.724V64.3119H46V11.3379Z" fill="white"/>
</mask>
<g mask="url(#mask3_3637_5149)">
<path d="M49.8545 37.8698C50.068 38.0834 50.3441 38.3334 50.6878 38.625C56.6253 43.6876 61.6879 48.0678 65.8858 51.7657C68.4118 53.9896 70.667 56.1042 72.6618 58.1147C73.3858 58.8542 74.0681 59.6355 74.7087 60.4636C74.7295 60.4949 74.766 60.5105 74.8025 60.5105C74.8545 60.5105 74.9014 60.4792 74.9223 60.4324C75.4066 59.1511 75.3389 57.8438 75.3181 56.4636C75.3181 56.4584 75.2921 43.1667 75.2296 16.5781C75.2296 16.151 75.1775 15.7708 75.0785 15.4427C75.0681 15.3958 75.0212 15.3594 74.9743 15.3594C74.9379 15.3594 74.9014 15.375 74.8806 15.4062C74.2243 16.3646 73.4014 17.3438 72.417 18.3385C71.0264 19.7396 69.4014 21.224 67.542 22.7969C61.3493 28.0313 55.4587 32.9427 49.8753 37.5313C49.8232 37.573 49.792 37.6407 49.792 37.7084C49.792 37.7709 49.8128 37.8282 49.8545 37.8698Z" stroke="#817856" stroke-width="0.575171"/>
</g>
<path d="M39.2034 45.0618C39.2764 45.0618 39.3649 45.0254 39.4639 44.9472C41.3857 43.4681 44.6982 40.692 44.3337 38.0618C44.1514 36.7233 43.0837 36.041 41.7764 36.2128C40.7295 36.3535 40.193 37.041 39.4743 37.8431C39.4274 37.8951 39.3545 37.9212 39.2607 37.9212C39.167 37.9212 39.0993 37.8951 39.0576 37.8431C38.3493 37.0253 37.8232 36.3274 36.7816 36.1712C35.4795 35.9733 34.3961 36.6347 34.1878 37.9733C33.7764 40.5983 37.042 43.4316 38.9378 44.9472C39.0368 45.0202 39.1253 45.0618 39.2034 45.0618Z" stroke="#7B3E38" stroke-width="0.575171"/>
<mask id="mask4_3637_5149" style="mask-type:luminance" maskUnits="userSpaceOnUse" x="1" y="35" width="76" height="30">
<path d="M1.76025 35H76.7238V64.3125H1.76025V35Z" fill="white"/>
</mask>
<g mask="url(#mask4_3637_5149)">
<path d="M39.2294 62.6465C42.5367 62.6465 53.1721 62.6413 71.1253 62.6309C72.3857 62.6257 73.1409 62.5007 73.9847 61.7507C74.0472 61.6934 74.0576 61.5997 74.0211 61.5267C73.943 61.3861 73.8024 61.1934 73.5888 60.9434C72.5315 59.6882 71.1878 58.2976 69.5576 56.7767C67.6565 55.0007 65.5575 53.1048 63.2502 51.0788C58.8961 47.2611 54.0784 43.1048 48.7867 38.5996C48.7294 38.5527 48.6461 38.5527 48.5888 38.5996C47.3179 39.6621 46.0523 40.6882 44.8023 41.6673C43.2398 42.8861 41.9065 44.3444 40.62 45.5267C40.1773 45.933 39.7658 46.2403 39.3804 46.4486C39.3283 46.4746 39.2763 46.4902 39.2242 46.4902C39.1669 46.4902 39.1096 46.4746 39.0627 46.4486C38.6773 46.2403 38.2606 45.933 37.8231 45.5267C36.5367 44.3496 35.1981 42.8913 33.6356 41.6725C32.3856 40.6934 31.12 39.6673 29.8439 38.6048C29.7919 38.5579 29.7085 38.5579 29.646 38.6048C24.3648 43.11 19.5418 47.2767 15.1929 51.0996C12.8908 53.1205 10.7866 55.0215 8.89078 56.8028C7.26578 58.3236 5.92203 59.7142 4.85953 60.9694C4.6512 61.2194 4.50535 61.4122 4.43243 61.5528C4.39077 61.6257 4.40639 61.7194 4.46889 61.7767C5.30744 62.5267 6.06786 62.6517 7.32828 62.6517C25.2814 62.6517 35.9169 62.6517 39.2294 62.6465Z" stroke="#817856" stroke-width="0.575171"/>
</g>
<mask id="mask5_3637_5149" style="mask-type:luminance" maskUnits="userSpaceOnUse" x="2" y="11" width="75" height="54">
<path d="M2 11.3379H76.6667V64.3119H2V11.3379Z" fill="white"/>
</mask>
<g mask="url(#mask5_3637_5149)">
<path d="M76.4688 59.0352C76.4688 61.6549 74.3125 63.8112 71.6979 63.8112H6.82292C4.20312 63.8112 2.04688 61.6549 2.04688 59.0352V16.4049C2.04688 13.7852 4.20312 11.6289 6.82292 11.6289H71.6979C74.3125 11.6289 76.4688 13.7852 76.4688 16.4049V59.0352ZM39.2344 36.1237C39.3073 36.1237 39.349 36.1133 39.3698 36.0977C40.6667 34.8789 42.5885 34.6237 44.0729 35.6341C45.3229 36.4831 45.75 37.7956 45.3542 39.5716C45.3542 39.582 45.3542 39.5977 45.3542 39.6081C45.3646 39.6497 45.4063 39.6706 45.4479 39.6602C45.4583 39.6602 45.4688 39.6549 45.4792 39.6445C54.1354 32.4674 61.1458 26.6133 66.5052 22.0872C68.3594 20.5247 70.1042 18.9362 71.7344 17.3268C72.6458 16.4258 73.4531 15.4674 74.1615 14.457C74.3021 14.2539 74.2813 13.9727 74.1094 13.7956C73.526 13.181 72.7604 12.8685 71.8229 12.8477C69.1927 12.7956 58.3333 12.7695 39.2344 12.7747C20.1354 12.7747 9.27083 12.806 6.64063 12.8581C5.70313 12.8789 4.9375 13.1914 4.35417 13.806C4.18229 13.9831 4.16146 14.2643 4.30208 14.4674C5.01042 15.4779 5.81771 16.4362 6.72917 17.332C8.36458 18.9466 10.1042 20.5352 11.9583 22.0977C17.3229 26.6185 24.3333 32.4674 32.9948 39.6497C33 39.6549 33.0104 39.6602 33.026 39.6654C33.0625 39.6758 33.1094 39.6497 33.1146 39.6081C33.1198 39.5977 33.1198 39.5872 33.1146 39.5768C32.724 37.8008 33.151 36.4883 34.3958 35.6341C35.8802 34.6237 37.8021 34.8789 39.1042 36.0977C39.1198 36.1133 39.1667 36.1237 39.2344 36.1237ZM28.599 37.8424C28.6458 37.8008 28.6667 37.7435 28.6667 37.681C28.6667 37.6133 28.6354 37.5508 28.5833 37.5039C23 32.9362 17.1146 28.0456 10.9271 22.8372C9.0625 21.2643 7.4375 19.7852 6.05208 18.3945C5.06771 17.4049 4.24479 16.431 3.58854 15.4779C3.56771 15.4466 3.53125 15.4258 3.49479 15.4258C3.44271 15.4258 3.40104 15.4622 3.38542 15.5091C3.28646 15.8372 3.23958 16.2174 3.23958 16.6445C3.22917 43.1758 3.22396 56.4466 3.22396 56.4466C3.20833 57.8216 3.14063 59.1289 3.63542 60.4049C3.65104 60.4518 3.69792 60.4831 3.75 60.4831C3.78646 60.4831 3.82292 60.4674 3.84375 60.4362C4.47396 59.6081 5.15625 58.8268 5.88021 58.0924C7.86458 56.082 10.1146 53.9622 12.6302 51.7383C16.8125 48.0456 21.8594 43.6654 27.7708 38.6029C28.1146 38.306 28.3906 38.056 28.599 37.8424ZM49.8542 37.8685C50.0677 38.082 50.3438 38.332 50.6875 38.6237C56.625 43.6862 61.6875 48.0664 65.8854 51.7643C68.4115 53.9883 70.6667 56.1029 72.6615 58.1133C73.3854 58.8529 74.0677 59.6341 74.7083 60.4622C74.7292 60.4935 74.7656 60.5091 74.8021 60.5091C74.8542 60.5091 74.901 60.4779 74.9219 60.431C75.4063 59.1497 75.3385 57.8424 75.3177 56.4622C75.3177 56.457 75.2917 43.1654 75.2292 16.5768C75.2292 16.1497 75.1771 15.7695 75.0781 15.4414C75.0677 15.3945 75.0208 15.3581 74.974 15.3581C74.9375 15.3581 74.901 15.3737 74.8802 15.4049C74.224 16.3633 73.401 17.3424 72.4167 18.3372C71.026 19.7383 69.401 21.2227 67.5417 22.7956C61.349 28.0299 55.4583 32.9414 49.875 37.5299C49.8229 37.5716 49.7917 37.6393 49.7917 37.707C49.7917 37.7695 49.8125 37.8268 49.8542 37.8685ZM39.2031 45.0612C39.276 45.0612 39.3646 45.0247 39.4635 44.9466C41.3854 43.4674 44.6979 40.6914 44.3333 38.0612C44.151 36.7227 43.0833 36.0404 41.776 36.2122C40.7292 36.3529 40.1927 37.0404 39.474 37.8424C39.4271 37.8945 39.3542 37.9206 39.2604 37.9206C39.1667 37.9206 39.099 37.8945 39.0573 37.8424C38.349 37.0247 37.8229 36.3268 36.7813 36.1706C35.4792 35.9727 34.3958 36.6341 34.1875 37.9727C33.776 40.5977 37.0417 43.431 38.9375 44.9466C39.0365 45.0195 39.125 45.0612 39.2031 45.0612ZM39.2292 62.6445C42.5365 62.6445 53.1719 62.6393 71.125 62.6289C72.3854 62.6237 73.1406 62.4987 73.9844 61.7487C74.0469 61.6914 74.0573 61.5977 74.0208 61.5247C73.9427 61.3841 73.8021 61.1914 73.5885 60.9414C72.5313 59.6862 71.1875 58.2956 69.5573 56.7747C67.6563 54.9987 65.5573 53.1029 63.25 51.0768C58.8958 47.2591 54.0781 43.1029 48.7865 38.5977C48.7292 38.5508 48.6458 38.5508 48.5885 38.5977C47.3177 39.6602 46.0521 40.6862 44.8021 41.6654C43.2396 42.8841 41.9063 44.3424 40.6198 45.5247C40.1771 45.931 39.7656 46.2383 39.3802 46.4466C39.3281 46.4727 39.276 46.4883 39.224 46.4883C39.1667 46.4883 39.1094 46.4727 39.0625 46.4466C38.6771 46.2383 38.2604 45.931 37.8229 45.5247C36.5365 44.3477 35.1979 42.8893 33.6354 41.6706C32.3854 40.6914 31.1198 39.6654 29.8438 38.6029C29.7917 38.556 29.7083 38.556 29.6458 38.6029C24.3646 43.1081 19.5417 47.2747 15.1927 51.0977C12.8906 53.1185 10.7865 55.0195 8.89063 56.8008C7.26563 58.3216 5.92188 59.7122 4.85938 60.9674C4.65104 61.2174 4.50521 61.4102 4.43229 61.5508C4.39063 61.6237 4.40625 61.7174 4.46875 61.7747C5.30729 62.5247 6.06771 62.6497 7.32813 62.6497C25.2813 62.6497 35.9167 62.6497 39.2292 62.6445Z" fill="#F16457"/>
</g>
<path d="M39.2345 12.776C58.3335 12.7708 69.1928 12.7969 71.823 12.849C72.7605 12.8698 73.5262 13.1823 74.1095 13.7969C74.2814 13.974 74.3022 14.2552 74.1616 14.4583C73.4533 15.4688 72.646 16.4271 71.7345 17.3281C70.1043 18.9375 68.3595 20.526 66.5053 22.0885C61.146 26.6146 54.1355 32.4688 45.4793 39.6458C45.4689 39.6563 45.4585 39.6615 45.448 39.6615C45.4064 39.6719 45.3647 39.651 45.3543 39.6094C45.3543 39.599 45.3543 39.5833 45.3543 39.5729C45.7501 37.7969 45.323 36.4844 44.073 35.6354C42.5887 34.625 40.6668 34.8802 39.3699 36.099C39.3491 36.1146 39.3074 36.125 39.2345 36.125C39.1668 36.125 39.1199 36.1146 39.1043 36.099C37.8022 34.8802 35.8803 34.625 34.396 35.6354C33.1512 36.4896 32.7241 37.8021 33.1147 39.5781C33.1199 39.5885 33.1199 39.599 33.1147 39.6094C33.1095 39.651 33.0626 39.6771 33.0262 39.6667C33.0105 39.6615 33.0001 39.6563 32.9949 39.651C24.3335 32.4688 17.323 26.6198 11.9585 22.099C10.1043 20.5365 8.36471 18.9479 6.72929 17.3333C5.81784 16.4375 5.01054 15.4792 4.30221 14.4688C4.16159 14.2656 4.18242 13.9844 4.35429 13.8073C4.93763 13.1927 5.70325 12.8802 6.64075 12.8594C9.27096 12.8073 20.1355 12.776 39.2345 12.776Z" fill="#FAA755"/>
<path d="M28.5989 37.8444C28.3905 38.0579 28.1145 38.3079 27.7707 38.6048C21.8593 43.6673 16.8124 48.0475 12.6301 51.7402C10.1145 53.9642 7.8645 56.084 5.88012 58.0944C5.15616 58.8288 4.47387 59.61 3.84366 60.4382C3.82283 60.4694 3.78637 60.485 3.74991 60.485C3.69783 60.485 3.65096 60.4538 3.63533 60.4069C3.14054 59.1309 3.20825 57.8236 3.22387 56.4486C3.22387 56.4486 3.22908 43.1777 3.2395 16.6465C3.2395 16.2194 3.28637 15.8392 3.38533 15.5111C3.40096 15.4642 3.44262 15.4277 3.4947 15.4277C3.53116 15.4277 3.56762 15.4486 3.58845 15.4798C4.24471 16.4329 5.06762 17.4069 6.052 18.3965C7.43741 19.7871 9.06241 21.2663 10.927 22.8392C17.1145 28.0475 22.9999 32.9382 28.5832 37.5059C28.6353 37.5527 28.6666 37.6152 28.6666 37.6829C28.6666 37.7454 28.6457 37.8027 28.5989 37.8444Z" fill="#FAA755"/>
<path d="M49.854 37.8698C49.8123 37.8281 49.7915 37.7708 49.7915 37.7083C49.7915 37.6406 49.8228 37.5729 49.8748 37.5313C55.4582 32.9427 61.3488 28.0313 67.5415 22.7969C69.4009 21.224 71.0259 19.7396 72.4165 18.3385C73.4009 17.3437 74.2238 16.3646 74.88 15.4063C74.9009 15.375 74.9373 15.3594 74.9738 15.3594C75.0207 15.3594 75.0675 15.3958 75.078 15.4427C75.1769 15.7708 75.229 16.151 75.229 16.5781C75.2915 43.1667 75.3175 56.4583 75.3175 56.4635C75.3384 57.8438 75.4061 59.151 74.9217 60.4323C74.9009 60.4792 74.854 60.5104 74.8019 60.5104C74.7655 60.5104 74.729 60.4948 74.7082 60.4635C74.0675 59.6354 73.3853 58.8542 72.6613 58.1146C70.6665 56.1042 68.4113 53.9896 65.8853 51.7656C61.6873 48.0677 56.6248 43.6875 50.6873 38.625C50.3436 38.3333 50.0675 38.0833 49.854 37.8698Z" fill="#FAA755"/>
<path d="M39.2602 37.9212C39.354 37.9212 39.4269 37.8951 39.4738 37.8431C40.1925 37.041 40.729 36.3535 41.7759 36.2129C43.0832 36.041 44.1509 36.7233 44.3332 38.0618C44.6977 40.692 41.3852 43.4681 39.4634 44.9472C39.3644 45.0254 39.2759 45.0618 39.203 45.0618C39.1248 45.0618 39.0363 45.0201 38.9373 44.9472C37.0415 43.4316 33.7759 40.5983 34.1873 37.9733C34.3957 36.6347 35.479 35.9733 36.7811 36.1712C37.8227 36.3274 38.3488 37.0254 39.0571 37.8431C39.0988 37.8951 39.1665 37.9212 39.2602 37.9212Z" fill="#F16457"/>
<path d="M39.2241 46.4902C39.2762 46.4902 39.3283 46.4746 39.3804 46.4486C39.7658 46.2402 40.1772 45.9329 40.6199 45.5267C41.9064 44.3444 43.2397 42.8861 44.8022 41.6673C46.0522 40.6882 47.3179 39.6621 48.5887 38.5996C48.646 38.5527 48.7293 38.5527 48.7866 38.5996C54.0783 43.1048 58.896 47.2611 63.2501 51.0788C65.5574 53.1048 67.6564 55.0007 69.5574 56.7767C71.1876 58.2975 72.5314 59.6882 73.5887 60.9434C73.8022 61.1934 73.9429 61.3861 74.021 61.5267C74.0574 61.5996 74.047 61.6934 73.9845 61.7507C73.1408 62.5007 72.3856 62.6257 71.1251 62.6309C53.172 62.6413 42.5366 62.6465 39.2293 62.6465C35.9168 62.6517 25.2814 62.6517 7.32827 62.6517C6.06785 62.6517 5.30744 62.5267 4.46889 61.7767C4.40639 61.7194 4.39077 61.6257 4.43243 61.5527C4.50535 61.4121 4.65118 61.2194 4.85952 60.9694C5.92202 59.7142 7.26577 58.3236 8.89077 56.8027C10.7866 55.0215 12.8908 53.1204 15.1929 51.0996C19.5418 47.2767 24.3647 43.11 29.646 38.6048C29.7085 38.5579 29.7918 38.5579 29.8439 38.6048C31.1199 39.6673 32.3856 40.6934 33.6356 41.6725C35.1981 42.8913 36.5366 44.3496 37.8231 45.5267C38.2606 45.9329 38.6772 46.2402 39.0626 46.4486C39.1095 46.4746 39.1668 46.4902 39.2241 46.4902Z" fill="#FAA755"/>
</svg>
