<svg width="90" height="90" viewBox="0 0 90 90" fill="none" xmlns="http://www.w3.org/2000/svg">
<path d="M46.2917 73.0323L44.9167 74.4489C44.8542 74.5896 45.0052 75.3344 45.7813 76.0896L53.3229 83.3969C54.099 84.1521 54.849 84.2771 55 84.1989L56.3646 82.7875C56.4323 82.6208 56.2761 81.8864 55.5104 81.1416L47.9688 73.8344C47.1927 73.0791 46.4427 72.9541 46.2917 73.0323ZM57.75 84.1156L56.3646 85.5479C55.375 86.5687 53.4948 86.2354 51.9844 84.7771L44.4479 77.4646C42.9375 76.0062 42.5469 74.1364 43.5365 73.1104L44.9271 71.6833C45.9167 70.6625 47.7969 70.9906 49.3073 72.4541L56.8438 79.7614C58.3542 81.225 58.7396 83.0948 57.75 84.1156Z" fill="#F16457"/>
<path d="M53.3544 5.03142C50.4898 3.97934 46.9742 6.31267 44.5367 9.41684C42.719 11.7293 41.4481 14.271 40.7815 17.0418C31.521 8.68767 19.219 0.698089 6.85437 13.4533C-7.85396 28.6252 6.76062 42.7918 16.2815 52.021L47.2346 80.1043L60.7554 66.1564L74.4065 52.0783L72.245 49.7918C65.0887 41.6877 52.6408 23.0627 56.6408 12.1095C57.6929 9.24496 56.219 6.07309 53.3544 5.03142Z" fill="#F16457"/>
<path d="M50.7397 76.5218L50.3178 76.9541L55.0886 81.5739C55.3699 81.8499 55.547 82.1155 55.6511 82.3239C55.7032 82.428 55.7345 82.5218 55.7553 82.5895L55.7709 82.6676L55.7761 82.6885V82.6937L55.797 82.6885H55.7761V82.6937L55.797 82.6885H55.7761H56.1147L55.8022 82.5739C55.7709 82.6572 55.7761 82.6832 55.7761 82.6885H56.1147L55.8022 82.5739L56.3647 82.7874L55.9324 82.3707L54.5678 83.7822L55.0001 84.1989L54.724 83.6624L54.922 84.0478L54.8543 83.6155C54.8282 83.6207 54.7918 83.6312 54.724 83.6624L54.922 84.0478L54.8543 83.6155L54.8803 83.7926V83.6155H54.8543L54.8803 83.7926V83.6155C54.8803 83.6155 54.8334 83.6155 54.7605 83.5947C54.5522 83.5426 54.1563 83.3655 53.7449 82.9645L48.974 78.3395C48.8595 78.2301 48.7032 78.1676 48.547 78.1676C48.3855 78.1728 48.2293 78.2405 48.1199 78.3551L46.7813 79.7301C46.5522 79.9697 46.5574 80.3551 46.797 80.5895L51.5626 85.2093C52.573 86.1832 53.7553 86.7353 54.8751 86.7405C55.5886 86.7457 56.2918 86.4957 56.8022 85.9697L58.1876 84.5374C58.672 84.0374 58.9063 83.3655 58.9011 82.6885C58.8959 81.5426 58.3022 80.3395 57.2657 79.3291L52.4949 74.7041C52.3855 74.5947 52.224 74.5322 52.0678 74.5374C51.9063 74.5374 51.7553 74.6051 51.6407 74.7197L50.3074 76.0999C50.073 76.3395 50.0782 76.7197 50.3178 76.9541L50.7397 76.5218L51.172 76.9385L52.0886 75.9957L56.422 80.1989C57.2813 81.0218 57.698 81.9801 57.6928 82.6885C57.6928 83.1103 57.5678 83.4385 57.3178 83.6989L55.9324 85.126C55.6668 85.3968 55.3282 85.5322 54.8751 85.5322C54.172 85.5374 53.2345 85.1468 52.4063 84.3395L48.073 80.1416L48.5678 79.6312L52.9011 83.8291C53.2761 84.1937 53.6511 84.4385 53.9845 84.5895C54.1563 84.6728 54.3126 84.7249 54.4584 84.7666C54.6095 84.803 54.7449 84.8239 54.8803 84.8239C54.9376 84.8239 54.9897 84.8187 55.0522 84.8082C55.1147 84.7978 55.1876 84.7822 55.2761 84.7353C55.3334 84.7093 55.3907 84.6676 55.4376 84.6207L56.8022 83.2093C56.8543 83.152 56.9011 83.0791 56.9272 83.0062C56.974 82.876 56.9793 82.7822 56.9845 82.6885C56.9845 82.5478 56.9584 82.4124 56.9168 82.2666C56.797 81.8239 56.5001 81.2614 55.9272 80.7093L51.1615 76.0843L50.7397 76.5218Z" fill="#FAA755"/>
<path d="M34.5209 17.3914L34.5105 16.7872L23.8438 16.9539C23.5105 16.9591 23.2449 17.2351 23.2501 17.5684L23.4167 28.2351C23.4167 28.3966 23.4844 28.5476 23.599 28.6622C23.7136 28.7716 23.8699 28.8341 24.0261 28.8289L34.698 28.6622C34.8542 28.6622 35.0053 28.5945 35.1199 28.4799C35.2344 28.3653 35.2917 28.2091 35.2917 28.0528L35.1251 17.3861C35.1199 17.0476 34.8438 16.782 34.5105 16.7872L34.5209 17.3914L33.9167 17.4018L34.073 27.4643L24.6147 27.6101L24.4688 18.1518L34.5313 17.9955L34.5209 17.3914Z" fill="#FAA755"/>
<path d="M45.6824 49.2305L45.6928 49.8295L56.3595 49.668C56.521 49.6628 56.672 49.6003 56.7866 49.4858C56.896 49.366 56.9585 49.2149 56.9533 49.0535L56.7918 38.3868C56.7866 38.0535 56.5105 37.7878 56.1772 37.793L45.5105 37.9597C45.1772 37.9649 44.9064 38.2358 44.9168 38.5691L45.0783 49.241C45.0835 49.3972 45.1512 49.5535 45.2605 49.6628C45.3751 49.7722 45.5366 49.8347 45.6928 49.8295L45.6824 49.2305L46.2866 49.2201L46.1303 39.1576L55.5887 39.0118L55.7345 48.4649L45.6772 48.6264L45.6824 49.2305Z" fill="#FAA755"/>
<path d="M34.8542 38.7299L34.2501 38.7351L34.4115 49.4018C34.4167 49.5632 34.4844 49.7143 34.599 49.8289C34.7136 49.9382 34.8699 50.0007 35.0261 49.9955L45.6928 49.8289C45.8542 49.8289 46.0053 49.7611 46.1199 49.6466C46.2292 49.532 46.2917 49.3809 46.2865 49.2195L46.1199 38.5528C46.1147 38.2195 45.8438 37.9539 45.5105 37.9591L34.8438 38.1257C34.5105 38.1257 34.2449 38.4018 34.2501 38.7351L34.8542 38.7299L34.8595 39.3341L44.922 39.1726L45.073 48.6361L35.6095 48.782L35.4584 38.7143L34.8542 38.7299Z" fill="#FAA755"/>
<path d="M45.3542 27.8907L44.7501 27.9011L44.9167 38.5678C44.9167 38.7292 44.9844 38.8855 45.099 38.9949C45.2136 39.1042 45.3699 39.1667 45.5261 39.1667L56.1928 39.0001C56.3542 38.9949 56.5053 38.9324 56.6199 38.8178C56.7292 38.698 56.7917 38.547 56.7917 38.3855L56.6251 27.7188C56.6199 27.3855 56.3438 27.1199 56.0105 27.1251L45.3438 27.2865C45.0105 27.297 44.7449 27.5678 44.7501 27.9011L45.3542 27.8907L45.3647 28.4949L55.4272 28.3438L55.573 37.8022L46.1147 37.948L45.9584 27.8855L45.3542 27.8907Z" fill="#FAA755"/>
<path d="M24.1875 38.8909L23.5833 38.9013L23.7448 49.568C23.75 49.7243 23.8177 49.8805 23.927 49.9951C24.0468 50.1045 24.1979 50.1618 24.3593 50.1618L35.026 49.9951C35.1875 49.9951 35.3385 49.9274 35.4531 49.8128C35.5625 49.6982 35.625 49.542 35.6198 49.3857L35.4583 38.7138C35.4531 38.3805 35.177 38.1149 34.8437 38.1253L24.177 38.2868C23.8437 38.292 23.5729 38.568 23.5833 38.9013L24.1875 38.8909L24.1927 39.4951L34.2552 39.3388L34.401 48.7972L24.9479 48.943L24.7916 38.8857L24.1875 38.8909Z" fill="#FAA755"/>
<path d="M34.6874 28.0574L34.677 27.4532L24.0103 27.6199C23.677 27.6251 23.4114 27.9011 23.4166 28.2344L23.5832 38.9011C23.5832 39.0626 23.651 39.2136 23.7655 39.323C23.8801 39.4376 24.0364 39.5001 24.1926 39.4949L34.8593 39.3334C35.0207 39.3282 35.1718 39.2605 35.2864 39.1459C35.3957 39.0313 35.4582 38.8803 35.4582 38.7136L35.2916 28.0522C35.2864 27.7188 35.0103 27.448 34.677 27.4532L34.6874 28.0574L34.0832 28.0678L34.2395 38.1303L24.7812 38.2761L24.6353 28.8178L34.6978 28.6615L34.6874 28.0574Z" fill="#FAA755"/>
<path d="M34.6874 28.0574L34.6978 28.6615L45.3645 28.4949C45.526 28.4949 45.677 28.4272 45.7864 28.3126C45.901 28.198 45.9582 28.047 45.9582 27.8855L45.7916 17.2188C45.7864 16.8855 45.5103 16.6199 45.177 16.6251L34.5103 16.7865C34.177 16.797 33.9114 17.0678 33.9166 17.4011L34.0832 28.0678C34.0832 28.2292 34.151 28.3803 34.2655 28.4949C34.3801 28.6042 34.5364 28.6667 34.6978 28.6615L34.6874 28.0574L35.2916 28.0522L35.1353 17.9897L44.5937 17.8386L44.7395 27.297L34.677 27.4532L34.6874 28.0574Z" fill="#FAA755"/>
<path d="M4.85423 39.1928L4.34903 39.5261C6.88548 43.3595 10.1772 46.849 13.2553 49.9063C13.4272 50.0782 13.6928 50.1251 13.9167 50.0313C14.1459 49.9324 14.2865 49.7084 14.2813 49.4636L14.1251 39.047C14.1199 38.7136 13.8438 38.448 13.5105 38.4532L4.84382 38.5886C4.62507 38.5886 4.42715 38.7136 4.32298 38.9115C4.21882 39.1042 4.22923 39.3386 4.34903 39.5261L4.85423 39.1928L4.86465 39.797L12.9219 39.672L13.073 49.4845L13.6772 49.474L14.1042 49.047C11.0469 46.0105 7.81778 42.573 5.35944 38.8595L4.85423 39.1928Z" fill="#FAA755"/>
<path d="M6.85427 13.4541L6.42198 13.0322C4.95323 14.5426 3.77094 16.0583 2.83344 17.5583C2.71885 17.7458 2.71364 17.9801 2.82302 18.1728C2.93239 18.3655 3.13552 18.4853 3.35948 18.4801L13.198 18.3291C13.3595 18.3239 13.5105 18.2614 13.6199 18.1468C13.7345 18.027 13.7918 17.876 13.7918 17.7145L13.6511 8.69367C13.6459 8.48534 13.5366 8.29263 13.3543 8.18846C13.1772 8.07909 12.9532 8.07388 12.7657 8.16763C10.6511 9.2718 8.53135 10.8551 6.42198 13.0322L6.85427 13.4541L7.28656 13.8708C9.31781 11.777 11.3386 10.277 13.3282 9.24055L13.047 8.70409L12.4428 8.71451L12.573 17.1312L3.33864 17.2718L3.34906 17.876L3.85948 18.1989C4.74489 16.7718 5.8751 15.3343 7.28656 13.8708L6.85427 13.4541Z" fill="#FAA755"/>
<path d="M34.4324 11.9165L34.7813 11.4217C31.3751 9.04669 27.6876 7.15607 23.797 6.45815C23.6199 6.4269 23.4376 6.47898 23.3022 6.59357C23.1615 6.71336 23.0834 6.88523 23.0886 7.06232L23.2501 17.5675C23.2553 17.7238 23.3178 17.88 23.4324 17.9894C23.547 18.104 23.7032 18.1665 23.8647 18.1613L34.5313 17.9946C34.6928 17.9946 34.8438 17.9269 34.9532 17.8123C35.0678 17.6977 35.1251 17.5467 35.1251 17.3852L35.0365 11.9061C35.0365 11.7134 34.9376 11.5311 34.7813 11.4217L34.4324 11.9165L33.8282 11.9269L33.9063 16.7967L24.448 16.9425L24.297 7.04669L23.6928 7.05711L23.5834 7.65086C27.224 8.29669 30.7709 10.0988 34.0886 12.4113L34.4324 11.9165Z" fill="#FAA755"/>
<path d="M56.6825 70.3654L57.1148 70.7872L61.1929 66.5789L67.5836 59.9852C67.7554 59.8081 67.8023 59.5477 67.7034 59.3237C67.6096 59.0997 67.3857 58.9539 67.1409 58.9591L56.5054 59.1258C56.1721 59.131 55.9065 59.407 55.9117 59.7404L56.0784 70.3706C56.0836 70.6206 56.2346 70.8341 56.4586 70.9227C56.6877 71.0164 56.9429 70.9591 57.1148 70.7872L56.6825 70.3654L57.2867 70.355L57.1304 60.3237L65.7034 60.1935L60.3284 65.7352L56.2502 69.9435L56.6825 70.3654Z" fill="#FAA755"/>
<path d="M56.1874 38.3973L56.1926 39.0014L63.7812 38.8816C63.9999 38.8816 64.1978 38.7618 64.302 38.5691C64.4062 38.3764 64.401 38.1473 64.2864 37.9598C62.2187 34.6264 60.2968 31.0275 58.8801 27.4702C58.7864 27.2358 58.5572 27.0848 58.3124 27.09L56.0103 27.1264C55.677 27.1316 55.4114 27.4025 55.4166 27.741L55.578 38.4077C55.5832 38.5639 55.651 38.7202 55.7655 38.8296C55.8801 38.9389 56.0364 39.0014 56.1926 39.0014L56.1874 38.3973L56.7916 38.3869L56.6353 28.3243L58.328 28.2983L58.3176 27.6941L57.7603 27.9181C59.2082 31.5587 61.1614 35.215 63.2603 38.6004L63.7707 38.2775L63.7655 37.6733L56.177 37.7931L56.1874 38.3973Z" fill="#FAA755"/>
<path d="M18.1824 6.97982L18.1929 7.58398L22.7241 7.51107C23.0418 7.50586 23.3022 7.25586 23.3231 6.93815C23.3387 6.62044 23.1043 6.3444 22.7918 6.30794C22.0939 6.22461 21.3908 6.17773 20.6824 6.17773C19.8231 6.17773 18.9585 6.24023 18.0887 6.38086C17.7762 6.42773 17.5522 6.71419 17.5835 7.0319C17.6095 7.3444 17.8751 7.58398 18.1929 7.58398L18.1824 6.97982L18.2762 7.57357C19.0835 7.44857 19.8856 7.38607 20.6824 7.38607C21.3387 7.38607 21.9949 7.42773 22.646 7.50586L22.7189 6.9069L22.7085 6.30273L18.172 6.37565L18.1824 6.97982Z" fill="#FAA755"/>
<path d="M35.3231 69.2978L35.9273 69.2874L35.7867 60.053C35.7815 59.7145 35.5054 59.4489 35.1721 59.4593L25.3075 59.6103C25.0575 59.6103 24.8335 59.7666 24.7502 60.0009C24.6617 60.2301 24.7242 60.4957 24.9065 60.6624L34.9221 69.7457C35.0992 69.9072 35.3544 69.9489 35.5731 69.8499C35.7971 69.7457 35.9325 69.527 35.9273 69.2874L35.3231 69.2978L35.7294 68.8499L26.8544 60.7926L34.5887 60.6728L34.719 69.3082L35.3231 69.2978Z" fill="#FAA755"/>
<path d="M45.1875 17.2293L45.7917 17.2188L45.6615 8.78134C45.6563 8.53134 45.5 8.30738 45.2604 8.22405C45.026 8.13551 44.7656 8.20322 44.599 8.39072C44.4167 8.60426 44.2396 8.8178 44.0677 9.04176C42.1979 11.4168 40.8854 14.0365 40.1979 16.8959L40.7865 17.0366L41.1927 16.5886C39.1927 14.7866 37.0469 12.9949 34.7813 11.422C34.5938 11.2918 34.3542 11.2761 34.151 11.3803C33.9479 11.4897 33.8281 11.698 33.8281 11.9272L33.9167 17.4011C33.9167 17.5626 33.9844 17.7188 34.099 17.8282C34.2135 17.9376 34.3698 18.0001 34.5313 17.9949L45.1979 17.8334C45.3594 17.8282 45.5104 17.7657 45.6198 17.6459C45.7344 17.5313 45.7969 17.3803 45.7917 17.2188L45.1875 17.2293L45.1771 16.6251L35.1146 16.7761L35.0365 11.9063L34.4323 11.9168L34.0885 12.4116C36.2969 13.948 38.4062 15.7032 40.3802 17.4845C40.5417 17.6303 40.7604 17.6772 40.9635 17.6147C41.1667 17.5522 41.3229 17.3855 41.375 17.1772C42.0156 14.4949 43.2448 12.0418 45.0156 9.78655C45.1771 9.58342 45.3438 9.3803 45.5104 9.18238L45.0573 8.79176L44.4531 8.79697L44.5833 17.2345L45.1875 17.2293Z" fill="#FAA755"/>
<path d="M34.8544 38.7298L34.8596 39.334L45.5263 39.1673C45.6877 39.1621 45.8388 39.0996 45.9534 38.985C46.0679 38.8652 46.1252 38.7142 46.12 38.5527L45.9586 27.8861C45.9534 27.5527 45.6773 27.2871 45.344 27.2871L34.6773 27.4538C34.344 27.459 34.0784 27.735 34.0836 28.0684L34.2502 38.735C34.2502 38.8965 34.3179 39.0527 34.4325 39.1621C34.5471 39.2715 34.7034 39.334 34.8596 39.334L34.8544 38.7298L35.4586 38.7142L35.3023 28.6569L44.7607 28.5059L44.9065 37.9642L34.844 38.1257L34.8544 38.7298Z" fill="#FAA755"/>
<path d="M16.2812 52.0157L15.875 52.4636L24.099 59.9272C24.276 60.0886 24.5312 60.1303 24.7552 60.0313C24.974 59.9272 25.1146 59.7084 25.1094 59.4688L24.9531 49.547C24.9479 49.2136 24.6771 48.948 24.3437 48.9532L13.9167 49.1147C13.6719 49.1199 13.4583 49.2709 13.3646 49.4949C13.276 49.7188 13.3281 49.9792 13.5052 50.1511C14.3125 50.948 15.1042 51.7136 15.8594 52.4532L15.875 52.4636L16.2812 52.0157L16.7031 51.5834C15.9427 50.849 15.1562 50.0834 14.3542 49.2917L13.9271 49.7188L13.9375 50.323L23.7552 50.172L23.8802 58.0938L16.6875 51.5678L16.2812 52.0157Z" fill="#FAA755"/>
<path d="M53.3543 5.02734L53.5626 4.45964C53.021 4.26172 52.4533 4.16797 51.8908 4.16797C50.2449 4.17318 48.6043 4.92318 47.1043 6.03776C46.896 6.19401 46.8074 6.47005 46.896 6.72005C46.9793 6.96484 47.2137 7.13151 47.4741 7.1263L55.4533 7.0013C55.6981 7.0013 55.9116 6.85547 56.0001 6.63151C56.0939 6.40755 56.047 6.15755 55.8803 5.98047C55.2553 5.32422 54.4741 4.79297 53.5626 4.45964L53.146 5.59505C53.8804 5.86068 54.5001 6.28776 55.0106 6.81901L55.4481 6.39714L55.4376 5.79297L47.4585 5.91797L47.4637 6.52214L47.8283 7.00651C49.1928 5.98568 50.6303 5.37109 51.8908 5.3763C52.3283 5.3763 52.7449 5.44922 53.146 5.59505L53.3543 5.02734Z" fill="#FAA755"/>
<path d="M56.0211 27.7299L56.6252 27.7195L56.4586 17.0528C56.4534 16.7195 56.1773 16.4539 55.844 16.4591L45.1773 16.6257C44.844 16.6257 44.5784 16.9018 44.5836 17.2351L44.7502 27.9018C44.7502 28.0632 44.8179 28.2195 44.9325 28.3289C45.0471 28.4382 45.2034 28.5007 45.3648 28.4955L56.0315 28.3341C56.1877 28.3289 56.3388 28.2664 56.4534 28.1518C56.5679 28.032 56.6252 27.8809 56.6252 27.7195L56.0211 27.7299L56.0107 27.1257L45.9482 27.282L45.8023 17.8236L55.2607 17.6778L55.4169 27.7403L56.0211 27.7299Z" fill="#FAA755"/>
<path d="M24.0209 28.2253L24.0105 27.6212L13.3438 27.7878C13.0105 27.793 12.7449 28.0691 12.7501 28.4024L12.9167 39.0691C12.9167 39.2253 12.9844 39.3816 13.099 39.491C13.2136 39.6055 13.3699 39.6628 13.5261 39.6628L24.1928 39.4962C24.3542 39.4962 24.5053 39.4285 24.6199 39.3139C24.7344 39.1993 24.7917 39.043 24.7917 38.8868L24.6251 28.2149C24.6199 27.8816 24.3438 27.616 24.0105 27.6212L24.0209 28.2253L23.4167 28.2358L23.573 38.2983L14.1147 38.4441L13.9636 28.9858L24.0261 28.8295L24.0209 28.2253Z" fill="#FAA755"/>
<path d="M2.54167 19.292L2.00521 19.0159C0.609374 21.7086 0 24.3805 0 26.9743C0 27.5368 0.0260413 28.0941 0.0833333 28.6461C0.114584 28.9586 0.38021 29.1982 0.692708 29.193L2.69792 29.1618C2.85937 29.1566 3.01042 29.0941 3.11979 28.9795C3.23437 28.8597 3.29167 28.7086 3.29167 28.5472L3.14583 19.2816C3.14063 19.0055 2.94792 18.7659 2.68229 18.7034C2.41146 18.6409 2.13542 18.7659 2.00521 19.0159L2.54167 19.292L1.9375 19.3024L2.07292 27.9586L0.677083 27.9847L0.682292 28.5888L1.28646 28.5263C1.23437 28.0107 1.20833 27.4951 1.20833 26.9743C1.20833 24.568 1.77083 22.1045 3.07813 19.568L2.54167 19.292Z" fill="#FAA755"/>
<path d="M13.5211 39.058L14.1252 39.0476L13.9586 28.3809C13.9534 28.0476 13.6773 27.782 13.344 27.7872L2.67732 27.9539C2.34399 27.9591 2.07836 28.2299 2.08357 28.5632L2.19295 35.6309C2.19295 35.7195 2.21378 35.808 2.25545 35.8914C2.86482 37.1361 3.57316 38.3445 4.3492 39.5268C4.46378 39.6986 4.65649 39.7976 4.86482 39.7976L13.5263 39.6622C13.6877 39.657 13.8388 39.5945 13.9534 39.4799C14.0627 39.3653 14.1252 39.2091 14.1252 39.0476L13.5211 39.058L13.5107 38.4539L4.84399 38.5893L4.8544 39.1934L5.35961 38.8601C4.60441 37.7143 3.92211 36.5476 3.33878 35.3549L2.79711 35.6205L3.40128 35.6153L3.30232 29.1518L12.7607 29.0059L12.9169 39.0684L13.5211 39.058Z" fill="#FAA755"/>
<path d="M56.0209 27.7301L56.0313 28.3343L58.3282 28.2978C58.5261 28.2926 58.7136 28.1937 58.823 28.027C58.9324 27.8655 58.9532 27.652 58.8803 27.4697C57.4324 23.8343 56.5209 20.251 56.4845 17.053C56.4845 16.8968 56.4167 16.7405 56.3022 16.626C56.1876 16.5166 56.0313 16.4541 55.8647 16.4593H55.8386C55.5105 16.4645 55.2449 16.7405 55.2501 17.0739L55.4167 27.7405C55.4167 27.902 55.4844 28.053 55.599 28.1624C55.7136 28.277 55.8647 28.3343 56.0313 28.3343L56.0209 27.7301L56.6251 27.7197L56.4584 17.053L55.8542 17.0635L55.8647 17.6676H55.8959L55.8803 17.0635L55.2761 17.0687C55.3126 20.4801 56.2761 24.1937 57.7605 27.9176L58.3178 27.6937L58.3126 27.0895L56.0105 27.126L56.0209 27.7301Z" fill="#FAA755"/>
<path d="M13.3542 28.392L13.9583 28.3816L13.7917 17.7149C13.7865 17.3816 13.5104 17.116 13.1771 17.1212L3.33854 17.2722C3.13542 17.2774 2.94271 17.3816 2.83333 17.5587C2.53125 18.043 2.25521 18.5274 2.00521 19.017C1.95833 19.1003 1.9375 19.2045 1.9375 19.3035L2.08333 28.5639C2.08333 28.7253 2.15104 28.8816 2.26563 28.991C2.38021 29.1003 2.53646 29.1628 2.69792 29.1628L13.3646 28.9962C13.5208 28.991 13.6719 28.9285 13.7865 28.8139C13.901 28.6993 13.9583 28.543 13.9583 28.3816L13.3542 28.392L13.3438 27.7878L3.28125 27.9441L3.14583 19.2826L2.54167 19.293L3.07813 19.5691C3.31771 19.116 3.57292 18.6576 3.85938 18.1993L3.34896 17.8764L3.35938 18.4805L12.5938 18.3399L12.75 28.4024L13.3542 28.392Z" fill="#FAA755"/>
<path d="M56.1875 38.3958L55.5781 38.4063L55.7448 49.0677C55.75 49.2292 55.8177 49.3854 55.9323 49.4948C56.0469 49.6042 56.2031 49.6667 56.3594 49.6667L67.026 49.5C67.1875 49.5 67.3385 49.4323 67.4531 49.3177C67.5625 49.2031 67.625 49.0469 67.6198 48.8854L67.5313 43.0104C67.5313 42.8906 67.4896 42.7708 67.4167 42.6719C66.3698 41.1875 65.3073 39.6042 64.2865 37.9583C64.1719 37.776 63.974 37.6719 63.7656 37.6719L56.1771 37.7917C55.8438 37.7969 55.5781 38.0729 55.5781 38.4063L56.1875 38.3958L56.1927 39L63.7813 38.8802L63.7708 38.276L63.2604 38.599C64.2969 40.2656 65.3698 41.8698 66.4323 43.3698L66.9271 43.0208L66.3229 43.0313L66.4063 48.3021L56.9427 48.4479L56.7917 38.3854L56.1875 38.3958Z" fill="#FAA755"/>
<path d="M36.8752 70.7041L36.469 71.152L45.745 79.5634C45.9221 79.7249 46.1773 79.7666 46.396 79.6676C46.6148 79.5687 46.7554 79.3447 46.7554 79.1103L46.62 70.553C46.6148 70.2197 46.3387 69.9489 46.0054 69.9593L36.8648 70.0999C36.62 70.0999 36.396 70.2562 36.3127 70.4905C36.2242 70.7197 36.2867 70.9853 36.469 71.152L36.8752 70.7041L36.8856 71.3082L45.4221 71.178L45.521 77.7301L37.2815 70.2562L36.8752 70.7041Z" fill="#FAA755"/>
<path d="M56.5155 59.7292L56.5051 59.1251L45.8385 59.2917C45.5051 59.297 45.2395 59.5678 45.2447 59.9011L45.4114 70.5678C45.4114 70.7292 45.4791 70.8855 45.5937 70.9949C45.7082 71.1042 45.8645 71.1667 46.026 71.1667L56.6562 71.0001C56.8176 70.9949 56.9739 70.9324 57.0832 70.8178L57.1145 70.7865C57.2291 70.672 57.2864 70.5157 57.2864 70.3542L57.1197 59.7188C57.1145 59.3855 56.8385 59.1199 56.5051 59.1251L56.5155 59.7292L55.9114 59.7397L56.078 70.3699L56.6822 70.3647L56.2499 69.9428L56.2187 69.974L56.651 70.3959L56.6405 69.7917L46.6093 69.948L46.4635 60.4897L56.526 60.3334L56.5155 59.7292Z" fill="#FAA755"/>
<path d="M46.1513 79.116L45.745 79.5639L46.8336 80.5535C47.0732 80.7723 47.4429 80.7619 47.6721 80.5275L57.0836 70.8191C57.2554 70.6421 57.3023 70.3816 57.2034 70.1577C57.1096 69.9337 56.8857 69.7879 56.6409 69.7931L46.0054 69.9598C45.6721 69.965 45.4065 70.2358 45.4117 70.5691L45.5471 79.1264C45.5471 79.2931 45.6148 79.4494 45.745 79.5639L46.1513 79.116L46.7554 79.1108L46.6304 71.1577L55.1982 71.0223L47.2086 79.2671L46.5523 78.6681L46.1513 79.116Z" fill="#FAA755"/>
<path d="M71.4166 48.8291L71.8802 48.4385C70.5 46.8135 68.9687 44.8551 67.4166 42.6729C67.2656 42.4541 66.9895 42.3656 66.7395 42.4489C66.4895 42.5322 66.3177 42.7666 66.3229 43.0322L66.4114 48.9072C66.4166 49.0635 66.4843 49.2197 66.5989 49.3291C66.7083 49.4385 66.8697 49.5062 67.026 49.501L71.427 49.4333C71.6614 49.4281 71.8697 49.2874 71.9687 49.0791C72.0625 48.8656 72.0312 48.6156 71.8802 48.4385L71.4166 48.8291L71.4062 48.2249L67.6145 48.2822L67.5312 43.0114L66.927 43.0218L66.4322 43.3708C68 45.5791 69.552 47.5635 70.9583 49.2197L71.4166 48.8291Z" fill="#FAA755"/>
<path d="M45.849 59.8972L45.8386 59.293L35.172 59.4597C34.8386 59.4597 34.573 59.7358 34.5782 60.0691L34.7188 69.3087C34.724 69.4753 34.797 69.6316 34.922 69.7462L36.4688 71.1524C36.5834 71.2566 36.7292 71.3087 36.8855 71.3087L46.0261 71.168C46.1876 71.1628 46.3386 71.1003 46.448 70.9805C46.5626 70.866 46.6199 70.7149 46.6199 70.5535L46.4532 59.8868C46.448 59.5535 46.172 59.2878 45.8386 59.293L45.849 59.8972L45.2449 59.9024L45.4011 69.9649L37.1042 70.0951L35.9272 69.0274L35.797 60.6576L45.8595 60.5014L45.849 59.8972Z" fill="#FAA755"/>
<path d="M0.68255 28.5886L0.0835922 28.6459C0.333592 31.1563 1.12005 33.5782 2.25547 35.8907C2.37526 36.1407 2.66172 36.2761 2.93776 36.2084C3.2138 36.1459 3.4013 35.8959 3.4013 35.6147L3.29193 28.547C3.28672 28.2136 3.01068 27.948 2.67734 27.9532L0.677342 27.9845C0.510675 27.9845 0.34401 28.0574 0.234634 28.1824C0.125259 28.3126 0.0679668 28.4792 0.0835922 28.6459L0.68255 28.5886L0.692967 29.1928L2.09401 29.1667L2.19297 35.6303L2.79713 35.6199L3.3388 35.3542C2.25547 33.1459 1.51588 30.8647 1.28672 28.5261L0.68255 28.5886Z" fill="#FAA755"/>
<path d="M24.3489 49.558L24.953 49.5476L24.7916 38.8861C24.7864 38.5476 24.5103 38.282 24.177 38.2872L13.5103 38.4539C13.177 38.4591 12.9114 38.7351 12.9166 39.0684L13.0728 49.4851C13.078 49.6414 13.1405 49.7924 13.2551 49.9018C13.3385 49.9851 13.4218 50.0684 13.5051 50.1518C13.6197 50.2664 13.776 50.3289 13.9374 50.3236L24.3593 50.1622C24.5207 50.1622 24.6718 50.0945 24.7864 49.9799C24.8957 49.8653 24.9582 49.7091 24.953 49.5476L24.3489 49.558L24.3437 48.9539L13.9166 49.1153L13.927 49.7195L14.3541 49.2924C14.2707 49.2091 14.1874 49.1309 14.1041 49.0476L13.677 49.4747L14.2812 49.4643L14.1301 39.6518L23.5885 39.5059L23.7447 49.5684L24.3489 49.558Z" fill="#FAA755"/>
<path d="M23.693 7.05794L23.7972 6.46419C23.4691 6.40169 23.1305 6.34961 22.792 6.30794L22.7087 6.30273L18.1722 6.37565L18.0889 6.38086C16.3284 6.6569 14.5472 7.24024 12.7659 8.16732C12.5628 8.27669 12.4378 8.48503 12.443 8.71419L12.5837 17.735C12.5837 17.8913 12.6514 18.0475 12.7659 18.1569C12.8805 18.2715 13.0368 18.3288 13.1982 18.3288L23.8649 18.1621C24.0264 18.1621 24.1774 18.0944 24.2868 17.9798C24.4014 17.8652 24.4639 17.709 24.4587 17.5475L24.2972 7.04753C24.292 6.76107 24.0837 6.51107 23.7972 6.46419L23.693 7.05794L23.0889 7.06315L23.2399 16.9642L13.7816 17.11L13.6514 8.69336L13.0472 8.70378L13.3284 9.24023C15.0003 8.37044 16.6514 7.83398 18.2764 7.57357L18.1826 6.97982L18.193 7.58398L22.7243 7.51107L22.7191 6.9069L22.6409 7.50586C22.9534 7.54753 23.2712 7.5944 23.5837 7.65169L23.693 7.05794Z" fill="#FAA755"/>
<path d="M23.8544 17.5574L23.844 16.9532L13.1773 17.1199C12.844 17.1251 12.5784 17.4011 12.5836 17.7345L12.7502 28.4011C12.7502 28.5574 12.8179 28.7136 12.9325 28.823C13.0471 28.9324 13.2034 29.0001 13.3648 28.9949L24.0263 28.8282C24.1929 28.8282 24.344 28.7605 24.4534 28.6459C24.5679 28.5261 24.6252 28.3751 24.6252 28.2136L24.4586 17.547C24.4534 17.2136 24.1773 16.948 23.844 16.9532L23.8544 17.5574L23.2502 17.5678L23.4065 27.6303L13.9482 27.7761L13.8023 18.3178L23.8648 18.1615L23.8544 17.5574Z" fill="#FAA755"/>
<path d="M55.8802 17.0636L56.4843 17.0532C56.4843 16.9907 56.4843 16.923 56.4843 16.8605C56.4843 15.225 56.7083 13.6938 57.2135 12.3188C57.4635 11.6261 57.5833 10.9177 57.5833 10.2198C57.5833 8.77191 57.0677 7.38129 56.1562 6.28754C55.9948 6.08962 55.7239 6.02191 55.4791 6.10525C55.2448 6.19899 55.0833 6.42816 55.0885 6.68337L55.25 17.074C55.25 17.2355 55.3177 17.3865 55.4323 17.4959C55.552 17.6105 55.7031 17.673 55.8645 17.6677H55.8958C56.2239 17.6573 56.4895 17.3865 56.4843 17.0532L55.8802 17.0636L55.8645 16.4594H55.8385L55.8541 17.0636L56.4583 17.0532L56.2968 6.66775L55.6927 6.67816L55.2291 7.06358C55.9635 7.93858 56.375 9.06358 56.375 10.2198C56.375 10.7771 56.2812 11.3448 56.0781 11.9021C55.5156 13.4438 55.276 15.1157 55.276 16.8605C55.276 16.9282 55.276 16.9959 55.276 17.0688L55.8802 17.0636Z" fill="#FAA755"/>
<path d="M45.0573 8.79297L44.4531 8.79818L44.5833 17.2357C44.5885 17.3971 44.651 17.5534 44.7656 17.6628C44.8802 17.7721 45.0365 17.8346 45.1979 17.8346L55.8646 17.668C56.026 17.6628 56.1771 17.6003 56.2865 17.4857C56.401 17.3659 56.4583 17.2148 56.4583 17.0534L56.2969 6.66797C56.2969 6.52734 56.2448 6.39193 56.1563 6.28776C56.0677 6.18359 55.974 6.07943 55.8802 5.98047C55.7656 5.86068 55.6042 5.79297 55.4375 5.79297L47.4583 5.91797C47.3281 5.92318 47.2083 5.96484 47.1042 6.03776C46.2083 6.70964 45.3646 7.51172 44.599 8.39714C44.5 8.50651 44.4531 8.65234 44.4531 8.79818L45.0573 8.79297L45.5156 9.18359C46.224 8.36068 47.0104 7.61589 47.8281 7.00651L47.4635 6.52214L47.474 7.1263L55.4531 7.0013L55.4479 6.39714L55.0104 6.81901C55.0885 6.89714 55.1615 6.98047 55.2292 7.0638L55.6927 6.67839L55.0885 6.68359L55.2396 16.4701L45.7813 16.6159L45.6615 8.78255L45.0573 8.79297Z" fill="#FAA755"/>
<path d="M35.0159 49.3909L34.4117 49.4013L34.5784 60.068C34.5836 60.2295 34.6513 60.3805 34.7607 60.4951C34.8752 60.6045 35.0315 60.667 35.1929 60.667L45.8596 60.5003C46.0211 60.4951 46.1721 60.4326 46.2867 60.318C46.3961 60.1982 46.4586 60.0472 46.4534 59.8857L46.2867 49.219C46.2815 48.8857 46.0107 48.6149 45.6773 48.6253L35.0054 48.7867C34.6721 48.792 34.4065 49.068 34.4117 49.4013L35.0159 49.3909L35.0263 49.9951L45.0888 49.844L45.2346 59.2972L35.7763 59.4482L35.62 49.3857L35.0159 49.3909Z" fill="#FAA755"/>
<path d="M45.6824 49.2299L45.0782 49.2403L45.2449 59.9018C45.2501 60.0632 45.3126 60.2195 45.4272 60.3289C45.5417 60.4382 45.698 60.5007 45.8594 60.5007L56.5261 60.3341C56.6876 60.3341 56.8386 60.2664 56.948 60.1466C57.0626 60.032 57.1251 59.8809 57.1199 59.7195L56.9532 49.0528C56.948 48.7195 56.6719 48.4539 56.3386 48.4591L45.6772 48.6257C45.3438 48.6309 45.073 48.9018 45.0782 49.2403L45.6824 49.2299L45.6928 49.8289L55.7553 49.6778L55.9011 59.1361L46.4428 59.282L46.2865 49.2195L45.6824 49.2299Z" fill="#FAA755"/>
<path d="M56.3489 49.0639L55.7447 49.0691L55.9114 59.741C55.9166 59.8972 55.9843 60.0535 56.0937 60.1628C56.2082 60.2722 56.3645 60.3347 56.526 60.3347L67.1614 60.168C67.3228 60.168 67.4739 60.1003 67.5832 59.9858L67.6145 59.9493C67.7291 59.8347 67.7864 59.6785 67.7864 59.5222L67.6197 48.8868C67.6145 48.5535 67.3437 48.2878 67.0103 48.293L56.3385 48.4597C56.0051 48.4649 55.7395 48.7358 55.7447 49.0691L56.3489 49.0639L56.3593 49.668L66.4218 49.5118L66.578 59.543L67.1822 59.5326L66.7447 59.1108L66.7135 59.1472L67.151 59.5639L67.1405 58.9597L57.1093 59.116L56.953 49.0535L56.3489 49.0639Z" fill="#FAA755"/>
<path d="M67.1825 59.5321L67.6148 59.954L74.844 52.5009C75.0679 52.2665 75.0679 51.8967 74.8492 51.6624L72.6877 49.3759L72.2502 49.7926L72.7034 49.3915C72.4377 49.0894 72.1617 48.7665 71.8804 48.4384C71.7607 48.2978 71.5888 48.2196 71.4065 48.2249L67.0107 48.2926C66.6721 48.2978 66.4065 48.5738 66.4117 48.9071L66.5784 59.5426C66.5836 59.7821 66.7346 60.0009 66.9586 60.0946C67.1877 60.1832 67.4482 60.1259 67.6148 59.954L67.1825 59.5321L67.7867 59.5217L67.6304 49.4905L71.4273 49.4332L71.4169 48.829L70.9586 49.2196C71.2398 49.553 71.5211 49.8811 71.7971 50.1936L71.8075 50.2092L73.5732 52.0738L66.7502 59.1103L67.1825 59.5321Z" fill="#FAA755"/>
<path d="M24.3489 49.558L23.7447 49.5684L23.901 59.4903C23.901 59.657 23.9739 59.8132 24.0989 59.9278L24.9062 60.6622C25.0207 60.7664 25.1718 60.8184 25.3228 60.8184L35.1926 60.6674C35.3541 60.6622 35.5051 60.5997 35.6145 60.4799C35.7291 60.3653 35.7916 60.2143 35.7864 60.0528L35.6197 49.3861C35.6145 49.0528 35.3385 48.782 35.0051 48.7872L24.3437 48.9538C24.0103 48.9591 23.7395 49.2351 23.7447 49.5684L24.3489 49.558L24.3593 50.1622L34.4218 50.0059L34.5676 59.4643L25.5416 59.6049L25.1041 59.2091L24.953 49.5476L24.3489 49.558Z" fill="#FAA755"/>
<mask id="mask0_3637_2951" style="mask-type:luminance" maskUnits="userSpaceOnUse" x="40" y="69" width="12" height="21">
<path d="M40.6826 69.7812H51.3493V89.2031H40.6826V69.7812Z" fill="white"/>
</mask>
<g mask="url(#mask0_3637_2951)">
<path d="M44.9223 72.7912L43.0004 73.2495C42.8702 73.3329 42.5994 74.0412 42.8494 75.0933L45.2765 85.312C45.5265 86.3641 46.089 86.8745 46.2609 86.8902L48.1671 86.437C48.3182 86.3277 48.5786 85.6245 48.3338 84.5881L45.9015 74.3693C45.6567 73.3172 45.089 72.8068 44.9223 72.7912ZM48.6254 88.3016L46.6879 88.7599C45.3025 89.0881 43.8963 87.7964 43.4067 85.7547L40.9796 75.5412C40.4952 73.4943 41.1723 71.7079 42.5577 71.3797L44.4952 70.9214C45.8807 70.5881 47.2869 71.8797 47.7713 73.9266L50.2036 84.1402C50.6879 86.1818 50.0109 87.9683 48.6254 88.3016Z" fill="#F16457"/>
</g>
<path d="M87.4326 19.2509C85.5784 16.8291 81.3649 16.9072 77.6409 18.2093C74.8649 19.1832 72.4274 20.6416 70.3753 22.6207C67.0576 10.5947 60.9795 -2.75426 43.693 1.35511C23.1357 6.24053 27.8441 26.0426 30.9118 38.9437L41.9118 79.2666L60.8128 74.7718L79.8909 70.2405L79.2972 67.152C77.6201 56.4697 77.1357 34.0739 86.4013 26.9905C88.8232 25.1364 89.2816 21.6728 87.4326 19.2509Z" fill="#F16457"/>
<mask id="mask1_3637_2951" style="mask-type:luminance" maskUnits="userSpaceOnUse" x="40" y="76" width="12" height="14">
<path d="M40.6826 76.4492H51.3493V89.2044H40.6826V76.4492Z" fill="white"/>
</mask>
<g mask="url(#mask1_3637_2951)">
<path d="M46.797 78.1255L46.2084 78.2661L47.7449 84.7244C47.8074 84.99 47.8282 85.2192 47.8282 85.4119C47.8282 85.6463 47.797 85.8286 47.7605 85.9327C47.7449 85.99 47.7293 86.0265 47.7241 86.0369L48.0157 86.2244L47.8126 85.9484C47.7397 86.0057 47.7293 86.0317 47.7241 86.0369L48.0157 86.2244L47.8126 85.9484L48.1668 86.438L48.0313 85.8494L46.1199 86.3025L46.2605 86.8911L46.3178 86.2921L46.2813 86.6723L46.4688 86.3338C46.4532 86.3286 46.4272 86.3025 46.3178 86.2921L46.2813 86.6723L46.4688 86.3338L46.4168 86.4223L46.4741 86.3338H46.4688L46.4168 86.4223L46.4741 86.3338L46.4688 86.3286C46.4324 86.3077 46.3126 86.188 46.1928 85.9952C46.073 85.8025 45.948 85.5265 45.8647 85.1723L44.3282 78.7088C44.2501 78.3859 43.9272 78.1827 43.5991 78.2609L41.7345 78.7088C41.4063 78.7817 41.2084 79.1098 41.2866 79.4327L42.823 85.8963C43.0574 86.9015 43.5001 87.7557 44.0886 88.3859C44.3855 88.6984 44.7188 88.9536 45.0782 89.1359C45.4428 89.313 45.8438 89.4171 46.2501 89.4171C46.4428 89.4171 46.6355 89.3963 46.823 89.3494L48.7657 88.8911C49.4793 88.7192 50.0574 88.24 50.4168 87.6255C50.7813 87.0109 50.9584 86.2505 50.9584 85.4275C50.9584 84.9692 50.9063 84.49 50.7866 84.0005L49.2553 77.5421C49.2136 77.3859 49.1147 77.2505 48.9793 77.1671C48.8438 77.0838 48.6824 77.0577 48.5261 77.0942L46.6563 77.5369C46.3334 77.615 46.1303 77.938 46.2084 78.2661L46.797 78.1255L46.9376 78.714L48.2188 78.4067L49.6147 84.2817C49.7084 84.6827 49.7501 85.0682 49.7501 85.4275C49.7553 86.0734 49.6095 86.6255 49.3751 87.0109C49.1407 87.3963 48.8491 87.6255 48.4845 87.714L46.547 88.1723C46.448 88.1984 46.3491 88.2088 46.2501 88.2088C46.047 88.2088 45.8334 88.1567 45.6147 88.0525C45.2918 87.8911 44.9584 87.5994 44.672 87.1827C44.3855 86.7661 44.1407 86.2348 43.9949 85.615L42.5991 79.7452L43.2918 79.5786L44.6876 85.4536C44.8334 86.0577 45.0678 86.5213 45.3126 86.8494C45.4376 87.0161 45.5574 87.1463 45.6876 87.2505C45.7501 87.3025 45.8126 87.3494 45.8907 87.3911C45.9688 87.4327 46.0522 87.4744 46.2032 87.4952C46.2709 87.5005 46.3334 87.4952 46.4011 87.4796L48.3074 87.0213C48.3855 87.0057 48.4584 86.9744 48.5209 86.9275C48.672 86.8077 48.7241 86.714 48.7866 86.615C48.8647 86.464 48.922 86.2973 48.9688 86.0994C49.0105 85.9015 49.0366 85.6723 49.0366 85.4119C49.0366 85.1255 49.0053 84.7973 48.922 84.4484L47.3855 77.9848L46.797 78.1255Z" fill="#FAA755"/>
</g>
<path d="M64.9062 19.5524L65.2239 19.0368L56.1406 13.443C55.8541 13.2659 55.4843 13.3545 55.3073 13.6357L49.7135 22.7191C49.6302 22.8545 49.6041 23.0211 49.6406 23.1774C49.6771 23.3336 49.776 23.4691 49.9114 23.5524L58.9948 29.1461C59.1302 29.2295 59.2968 29.2555 59.4479 29.2191C59.6041 29.1826 59.7396 29.0836 59.8229 28.9482L65.4218 19.8701C65.5052 19.7295 65.5312 19.568 65.4948 19.4118C65.4583 19.2555 65.3593 19.1201 65.2239 19.0368L64.9062 19.5524L64.3906 19.2347L59.1146 27.8024L51.0573 22.8388L56.0208 14.7868L64.5885 20.0628L64.9062 19.5524Z" fill="#FAA755"/>
<path d="M57.2032 52.3972L56.8907 52.9076L65.9688 58.5014C66.1042 58.5847 66.2709 58.616 66.4272 58.5795C66.5834 58.543 66.7188 58.4441 66.8022 58.3087L72.3959 49.2253C72.4792 49.0899 72.5053 48.9233 72.4688 48.767C72.4324 48.616 72.3334 48.4753 72.198 48.392L63.1147 42.7983C62.8334 42.6212 62.4584 42.7097 62.2865 42.9962L56.6876 52.0795C56.5157 52.366 56.6042 52.7358 56.8907 52.9076L57.2032 52.3972L57.7188 52.7149L62.9949 44.1472L71.0522 49.1055L66.0886 57.1576L57.5209 51.8816L57.2032 52.3972Z" fill="#FAA755"/>
<path d="M53.7134 37.7201L53.203 37.4024L47.6093 46.4805C47.5259 46.616 47.4947 46.7826 47.5312 46.9389C47.5728 47.0951 47.6666 47.2305 47.8072 47.3139L56.8905 52.9076C57.0259 52.9962 57.1874 53.0222 57.3437 52.9858C57.4999 52.9441 57.6353 52.8503 57.7187 52.7149L63.3124 43.6264C63.4895 43.3451 63.4009 42.9701 63.1145 42.7983L54.0312 37.2045C53.7499 37.0274 53.3749 37.116 53.203 37.4024L53.7134 37.7201L53.4009 38.2305L61.9687 43.5118L57.0103 51.5639L48.953 46.6003L54.2291 38.0326L53.7134 37.7201Z" fill="#FAA755"/>
<path d="M68.396 34.2299L67.8804 33.9122L62.2866 42.9955C62.2033 43.1309 62.172 43.2976 62.2137 43.4539C62.2501 43.6049 62.3491 43.7403 62.4845 43.8236L71.5679 49.4226C71.6981 49.5059 71.8699 49.532 72.021 49.4955C72.1772 49.4591 72.3126 49.3601 72.396 49.2247L77.9897 40.1414C78.0731 40.0059 78.1043 39.8393 78.0679 39.683C78.0262 39.5268 77.9272 39.3914 77.7918 39.308L68.7137 33.7143C68.4272 33.5372 68.0522 33.6257 67.8804 33.9122L68.396 34.2299L68.0783 34.7455L76.646 40.0216L71.6824 48.0736L63.6304 43.1153L68.9116 34.5476L68.396 34.2299Z" fill="#FAA755"/>
<path d="M44.6354 32.1207L44.1198 31.8082L38.526 40.8863C38.4427 41.0217 38.4166 41.1884 38.4531 41.3446C38.4896 41.5009 38.5833 41.6363 38.7239 41.7196L47.8073 47.3134C47.9427 47.3967 48.1041 47.4228 48.2604 47.3863C48.4166 47.3498 48.5521 47.2509 48.6354 47.1155L54.2291 38.0321C54.3125 37.8967 54.3385 37.73 54.3021 37.579C54.2656 37.4228 54.1666 37.2873 54.0312 37.204L44.9531 31.605C44.6666 31.4332 44.2968 31.5217 44.1198 31.8082L44.6354 32.1207L44.3177 32.6363L52.8854 37.9123L47.9218 45.9696L39.8698 41.0061L45.1458 32.4384L44.6354 32.1207Z" fill="#FAA755"/>
<path d="M59.3125 28.6312L59.6302 28.1207L50.5468 22.527C50.2604 22.3499 49.8906 22.4385 49.7135 22.7197L44.1198 31.8082C44.0364 31.9437 44.0104 32.1103 44.0468 32.2614C44.0833 32.4176 44.1823 32.553 44.3177 32.6364L53.401 38.2301C53.5364 38.3135 53.7031 38.3447 53.8541 38.303C54.0104 38.2666 54.1458 38.1676 54.2291 38.0322L59.8229 28.9489C59.9062 28.8135 59.9323 28.6468 59.901 28.4957C59.8646 28.3395 59.7656 28.2041 59.6302 28.1207L59.3125 28.6312L58.7968 28.3187L53.5156 36.8864L45.4635 31.9228L50.4271 23.8707L58.9948 29.1468L59.3125 28.6312Z" fill="#FAA755"/>
<path d="M59.3126 28.6303L58.9949 29.1459L68.0783 34.7449C68.2137 34.8282 68.3751 34.8542 68.5366 34.8178C68.6928 34.7813 68.823 34.6824 68.9116 34.547L74.5053 25.4636C74.5887 25.323 74.6147 25.1615 74.5783 25.0053C74.5418 24.849 74.4428 24.7136 74.3074 24.6303L65.2241 19.0365C64.9376 18.8595 64.5678 18.948 64.3908 19.2345L58.797 28.3178C58.7137 28.4532 58.6876 28.6199 58.7241 28.7709C58.7605 28.9272 58.8595 29.0626 58.9949 29.1459L59.3126 28.6303L59.823 28.948L65.1043 20.3803L73.1564 25.3438L68.198 33.3959L59.6303 28.1199L59.3126 28.6303Z" fill="#FAA755"/>
<path d="M28.1722 21.9857L27.568 21.9909C27.6462 26.5899 28.542 31.2982 29.4951 35.5326C29.5524 35.7722 29.7451 35.9545 29.9847 35.9961C30.2295 36.0326 30.4691 35.9284 30.5993 35.7149L36.0628 26.8451C36.2399 26.5638 36.1514 26.1888 35.8649 26.0118L28.4899 21.4701C28.3024 21.3503 28.068 21.3503 27.8753 21.4597C27.6826 21.5691 27.5628 21.7722 27.568 21.9909L28.1722 21.9857L27.8545 22.4961L34.7191 26.7253L29.5732 35.0847L30.0837 35.3972L30.6774 35.267C29.7295 31.0638 28.8545 26.4284 28.7764 21.9753L28.1722 21.9857Z" fill="#FAA755"/>
<path d="M43.6983 1.35417L43.5576 0.765625C41.5055 1.25 39.6983 1.89062 38.0993 2.65625C37.9014 2.75 37.7712 2.94792 37.7608 3.16667C37.7451 3.39063 37.8545 3.59896 38.0472 3.71354L46.4222 8.875C46.5576 8.95833 46.7243 8.98438 46.8805 8.94792C47.0368 8.91146 47.1722 8.8125 47.2555 8.67708L51.9847 0.994792C52.0941 0.817709 52.1045 0.59375 52.0108 0.40625C51.917 0.21875 51.7347 0.0937503 51.5264 0.078125C50.9274 0.0260423 50.3128 0 49.6826 0C47.8024 0 45.766 0.239584 43.5576 0.765625L43.6983 1.35417L43.8337 1.94271C45.9639 1.43229 47.9066 1.20833 49.6826 1.20833C50.2816 1.20833 50.8545 1.22917 51.417 1.28125L51.4691 0.677083L50.9587 0.364583L46.542 7.53125L38.6774 2.6875L38.3597 3.19792L38.6201 3.74479C40.1358 3.02083 41.8597 2.41146 43.8337 1.94271L43.6983 1.35417Z" fill="#FAA755"/>
<path d="M67.776 14.8866L68.3385 14.6575C66.7396 10.8241 64.6458 7.246 61.7396 4.56892C61.6093 4.44392 61.4271 4.39183 61.25 4.41267C61.0677 4.43871 60.9114 4.54287 60.8177 4.69392L55.3073 13.6366C55.2239 13.772 55.1979 13.9387 55.2343 14.095C55.2708 14.2512 55.3698 14.3866 55.5052 14.47L64.5885 20.0637C64.7239 20.147 64.8906 20.1731 65.0468 20.1418C65.1979 20.1002 65.3385 20.0064 65.4218 19.871L68.2916 15.2043C68.3958 15.0377 68.4114 14.8345 68.3385 14.6575L67.776 14.8866L67.2604 14.5689L64.7083 18.72L56.6562 13.7564L61.8437 5.32933L61.3281 5.01163L60.9218 5.45954C63.6458 7.95954 65.6666 11.3866 67.2187 15.121L67.776 14.8866Z" fill="#FAA755"/>
<path d="M55.1149 76.1306L55.2555 76.7139L60.9586 75.3597L69.8857 73.24C70.1253 73.1827 70.3076 72.99 70.3441 72.7452C70.3857 72.5056 70.2711 72.266 70.068 72.1358L61.0107 66.5577C60.7243 66.3858 60.3545 66.4691 60.1774 66.7556L54.5993 75.8129C54.4743 76.0212 54.4847 76.2868 54.6253 76.4847C54.7711 76.6827 55.0159 76.7712 55.2555 76.7139L55.1149 76.1306L55.6305 76.4431L60.8909 67.9014L68.1878 72.4014L60.6774 74.1827L54.9743 75.542L55.1149 76.1306Z" fill="#FAA755"/>
<path d="M71.8854 48.9066L71.5677 49.4222L78.026 53.4014C78.2135 53.516 78.4427 53.5212 78.6354 53.417C78.8281 53.3077 78.9427 53.1097 78.9479 52.891C78.9948 48.9691 79.3125 44.9014 80.0312 41.141C80.0781 40.8962 79.9687 40.6462 79.75 40.516L77.7916 39.3077C77.5104 39.1358 77.1354 39.2191 76.9635 39.5056L71.3698 48.5889C71.2864 48.7243 71.2604 48.891 71.2968 49.0472C71.3281 49.2035 71.4323 49.3389 71.5677 49.4222L71.8854 48.9066L72.3958 49.2243L77.6771 40.6514L79.1198 41.542L79.4375 41.0316L78.8437 40.917C78.1093 44.7712 77.7864 48.9014 77.7396 52.8806L78.3437 52.8858L78.6614 52.3702L72.1979 48.391L71.8854 48.9066Z" fill="#FAA755"/>
<path d="M37.6827 63.7512L38.1983 64.0637L43.042 56.1991C43.1254 56.0637 43.1514 55.8971 43.115 55.746C43.0785 55.5898 42.9795 55.4544 42.8441 55.371L34.4379 50.1939C34.2295 50.0637 33.9587 50.0741 33.7608 50.2252C33.5629 50.371 33.4743 50.6262 33.542 50.8658L37.0993 63.9075C37.1618 64.1419 37.3597 64.3137 37.5941 64.3502C37.8337 64.3814 38.0681 64.2721 38.1983 64.0637L37.6827 63.7512L38.266 63.5898L35.1097 52.0273L41.6931 56.0794L37.167 63.4335L37.6827 63.7512Z" fill="#FAA755"/>
<path d="M73.9897 25.1471L74.5053 25.4648L78.9272 18.2773C79.0626 18.0637 79.047 17.7877 78.896 17.5898C78.7449 17.3918 78.4793 17.3085 78.2397 17.3814C77.9741 17.4596 77.7085 17.5481 77.4428 17.6366C74.5939 18.6366 72.073 20.1418 69.9585 22.1835L70.3803 22.621L70.9585 22.4596C70.2449 19.8658 69.396 17.2043 68.3387 14.6575C68.2501 14.4439 68.0522 14.3033 67.823 14.2877C67.5991 14.2668 67.3803 14.3762 67.2605 14.5689L64.3908 19.2356C64.3074 19.371 64.2814 19.5377 64.3178 19.6887C64.3543 19.845 64.4533 19.9804 64.5887 20.0637L73.672 25.6575C73.8074 25.7408 73.9741 25.7721 74.1303 25.7356C74.2814 25.6939 74.422 25.6002 74.5053 25.4648L73.9897 25.1471L74.3074 24.6314L65.7345 19.3554L68.2918 15.2043L67.7762 14.8866L67.2189 15.121C68.2553 17.6054 69.0887 20.22 69.797 22.7825C69.8543 22.9856 70.0158 23.1471 70.2189 23.2043C70.4272 23.2564 70.646 23.2043 70.797 23.0533C72.7814 21.1418 75.1408 19.7304 77.8439 18.7773C78.0887 18.6939 78.3387 18.6158 78.5887 18.5377L78.4168 17.9596L77.9012 17.6418L73.4741 24.8293L73.9897 25.1471Z" fill="#FAA755"/>
<path d="M53.7137 37.7195L53.4012 38.2299L62.4845 43.8236C62.6199 43.9122 62.7866 43.9382 62.9376 43.9018C63.0939 43.8601 63.2293 43.7664 63.3126 43.6309L68.9116 34.5476C68.9949 34.4122 69.021 34.2455 68.9845 34.0893C68.9428 33.933 68.8491 33.7976 68.7137 33.7143L59.6303 28.1205C59.3439 27.9434 58.9741 28.032 58.797 28.3184L53.2033 37.4018C53.1199 37.5372 53.0939 37.7039 53.1303 37.8601C53.1668 38.0111 53.2658 38.1466 53.4012 38.2299L53.7137 37.7195L54.2293 38.032L59.5105 29.4643L67.5626 34.4278L62.6043 42.4799L54.0314 37.2039L53.7137 37.7195Z" fill="#FAA755"/>
<path d="M30.9118 38.943L30.3337 39.0993L33.2556 49.8076C33.3181 50.042 33.5108 50.2139 33.7504 50.2503C33.9899 50.2816 34.2243 50.1722 34.3493 49.9691L39.5524 41.5212C39.6358 41.3858 39.6618 41.2191 39.6254 41.068C39.5889 40.9118 39.4899 40.7712 39.3545 40.6878L30.4795 35.2243C30.2712 35.0941 30.0108 35.1045 29.8129 35.2451C29.6149 35.3858 29.5212 35.6358 29.5733 35.8701C29.8285 36.9795 30.0785 38.0524 30.3233 39.0785L30.3337 39.0993L30.9118 38.943L31.5004 38.8024C31.2556 37.7764 31.0056 36.7035 30.7504 35.6045L30.1618 35.7399L29.8441 36.2503L38.2087 41.4014L34.0524 48.1462L31.4952 38.7816L30.9118 38.943Z" fill="#FAA755"/>
<mask id="mask2_3637_2951" style="mask-type:luminance" maskUnits="userSpaceOnUse" x="80" y="16" width="10" height="8">
<path d="M80.6826 16.4492H89.0889V23.1159H80.6826V16.4492Z" fill="white"/>
</mask>
<g mask="url(#mask2_3637_2951)">
<path d="M87.4326 19.2507L87.917 18.8809C87.3128 18.0944 86.4951 17.5423 85.5732 17.1986C84.6461 16.8548 83.6149 16.709 82.5368 16.709C82.2347 16.709 81.9326 16.7194 81.6201 16.7402C81.3597 16.7611 81.1409 16.9486 81.0784 17.1986C81.0159 17.4538 81.1253 17.7194 81.3493 17.86L88.1409 22.0423C88.3493 22.1673 88.6097 22.1621 88.8076 22.0267C89.0003 21.8913 89.0993 21.6465 89.0524 21.4121C88.8805 20.5215 88.5055 19.6517 87.917 18.8809L86.9534 19.6152C87.4274 20.235 87.7243 20.9277 87.8701 21.6465L88.4587 21.5267L88.7764 21.0163L81.9847 16.8288L81.667 17.3444L81.7087 17.9486C81.9899 17.9277 82.2659 17.9173 82.5368 17.9173C83.5055 17.9173 84.3962 18.0527 85.1462 18.3288C85.9014 18.6152 86.5107 19.0319 86.9534 19.6152L87.4326 19.2507Z" fill="#FAA755"/>
</g>
<path d="M77.4792 39.823L77.9897 40.1407L83.5834 31.0574C83.6667 30.922 83.698 30.7553 83.6615 30.599C83.6251 30.4428 83.5261 30.3074 83.3907 30.224L74.3074 24.6303C74.0209 24.4532 73.6511 24.5417 73.474 24.8282L67.8803 33.9115C67.7032 34.1928 67.7917 34.5678 68.0782 34.7449L77.1615 40.3386C77.297 40.422 77.4636 40.448 77.6199 40.4115C77.7709 40.3751 77.9063 40.2761 77.9897 40.1407L77.4792 39.823L77.7917 39.3074L69.2292 34.0313L74.1876 25.974L82.2397 30.9376L76.9636 39.5053L77.4792 39.823Z" fill="#FAA755"/>
<path d="M50.2295 23.0369L50.5472 22.5265L41.4638 16.9275C41.1774 16.7557 40.8024 16.8442 40.6305 17.1254L35.0368 26.2088C34.9534 26.3442 34.9274 26.5109 34.9638 26.6671C35.0003 26.8234 35.0993 26.9588 35.2347 27.0421L44.318 32.6359C44.4534 32.7192 44.6201 32.7452 44.7711 32.7088C44.9274 32.6723 45.0628 32.5734 45.1461 32.4379L50.7451 23.3546C50.8284 23.2192 50.8545 23.0525 50.818 22.8963C50.7815 22.7452 50.6826 22.6098 50.5472 22.5265L50.2295 23.0369L49.7138 22.7192L44.4378 31.2921L36.3805 26.3286L41.344 18.2765L49.9118 23.5525L50.2295 23.0369Z" fill="#FAA755"/>
<path d="M36.922 3.95922L36.6199 3.43839C33.422 5.28735 31.2292 7.73527 29.8178 10.5269C29.6772 10.8082 29.7761 11.1467 30.0417 11.3134L31.7449 12.3655C31.8803 12.4488 32.047 12.4748 32.2032 12.4384C32.3542 12.4019 32.4949 12.303 32.5782 12.1676L37.4376 4.27693C37.5834 4.03735 37.547 3.73527 37.3542 3.53735C37.1615 3.33943 36.8595 3.29776 36.6199 3.43839L36.922 3.95922L36.4063 3.64152L31.8647 11.0165L30.672 10.2873L30.3595 10.7978L30.8959 11.0738C32.2136 8.47485 34.224 6.22485 37.224 4.48527L36.922 3.95922Z" fill="#FAA755"/>
<path d="M35.5521 26.5265L36.0625 26.8442L41.6615 17.7609C41.7448 17.6254 41.7708 17.4588 41.7344 17.3025C41.6927 17.1463 41.599 17.0109 41.4635 16.9275L32.3802 11.3338C32.0937 11.1619 31.724 11.2504 31.5469 11.5317L27.8438 17.5473C27.7917 17.6254 27.7656 17.7088 27.7552 17.7973C27.625 18.9744 27.5625 20.1671 27.5625 21.3702C27.5625 21.5786 27.5677 21.7869 27.5677 21.99C27.5729 22.1984 27.6823 22.3911 27.8542 22.4952L35.2344 27.0421C35.3698 27.1254 35.5313 27.1515 35.6875 27.115C35.8438 27.0786 35.9792 26.9848 36.0625 26.8442L35.5521 26.5265L35.8646 26.0109L28.4896 21.4692L28.1719 21.9848L28.776 21.9744C28.776 21.7713 28.7708 21.5682 28.7708 21.3702C28.7708 20.2088 28.8281 19.0577 28.9531 17.9327L28.3542 17.865L28.8698 18.1827L32.2604 12.6775L40.3125 17.6411L35.0365 26.2088L35.5521 26.5265Z" fill="#FAA755"/>
<path d="M77.4791 39.8234L77.1614 40.339L79.1198 41.5421C79.2864 41.6463 79.5 41.6619 79.6823 41.5838C79.8593 41.5004 79.9948 41.339 80.0312 41.1411C80.7604 37.2973 81.9218 33.7869 83.6093 31.0734C83.6927 30.9379 83.7187 30.7713 83.6823 30.615C83.6458 30.4588 83.5468 30.3234 83.4114 30.24L83.3854 30.2244C83.1041 30.0525 82.7343 30.1411 82.5573 30.4223L76.9635 39.5057C76.8802 39.6411 76.8541 39.8077 76.8906 39.964C76.9271 40.115 77.026 40.2557 77.1614 40.339L77.4791 39.8234L77.9896 40.1411L83.5833 31.0577L83.0729 30.74L82.7552 31.2557L82.7812 31.2713L83.0937 30.7557L82.5833 30.4327C80.7812 33.3338 79.5937 36.9796 78.8437 40.9171L79.4375 41.0317L79.75 40.5161L77.7916 39.3077L77.4791 39.8234Z" fill="#FAA755"/>
<path d="M41.146 17.4435L41.6616 17.7612L47.2553 8.67791C47.3387 8.54249 47.3647 8.37582 47.3283 8.22478C47.2918 8.06853 47.1928 7.93311 47.0574 7.84978L38.6772 2.68832C38.5001 2.57895 38.2866 2.56853 38.0991 2.65707C37.5835 2.90186 37.0887 3.16228 36.6199 3.43832C36.5314 3.4852 36.4585 3.55811 36.4064 3.64145L31.547 11.5321C31.4637 11.6675 31.4376 11.8342 31.4741 11.9904C31.5105 12.1414 31.6095 12.2821 31.7449 12.3654L40.8283 17.9592C40.9637 18.0425 41.1303 18.0685 41.2866 18.0321C41.4376 17.9956 41.5783 17.8967 41.6616 17.7612L41.146 17.4435L41.4637 16.9279L32.8908 11.6519L37.4376 4.27686L36.922 3.95916L37.2241 4.47999C37.6668 4.22478 38.1355 3.97999 38.6199 3.74561L38.3595 3.19874L38.047 3.71436L45.9064 8.55811L40.6303 17.1258L41.146 17.4435Z" fill="#FAA755"/>
<path d="M71.8857 48.9076L71.3701 48.5899L65.7711 57.6733C65.6878 57.8087 65.6618 57.9753 65.6982 58.1316C65.7347 58.2826 65.8336 58.418 65.969 58.5014L75.0524 64.1003C75.193 64.1837 75.3545 64.2097 75.5107 64.1733C75.667 64.1368 75.8024 64.0378 75.8857 63.9024L78.969 58.8972C79.0315 58.793 79.0628 58.6733 79.0576 58.5535C78.9847 57.0743 78.943 55.5326 78.943 53.9649C78.943 53.6108 78.943 53.2514 78.9482 52.8972C78.9482 52.6837 78.844 52.4858 78.6618 52.3712L72.1982 48.392C71.917 48.2149 71.542 48.3035 71.3701 48.5899L71.8857 48.9076L71.568 49.4233L78.0263 53.4024L78.344 52.8868L77.7399 52.8816C77.7347 53.241 77.7347 53.6055 77.7347 53.9649C77.7347 55.5535 77.7763 57.1108 77.8493 58.6108L78.4534 58.5847L77.9378 58.267L75.1722 62.7514L67.1201 57.793L72.3961 49.2253L71.8857 48.9076Z" fill="#FAA755"/>
<path d="M38.2347 65.7662L37.6514 65.9277L40.9431 78.0058C41.0056 78.235 41.2035 78.4121 41.4431 78.4433C41.6775 78.4798 41.917 78.3704 42.042 78.1621L46.5316 70.8756C46.615 70.7402 46.641 70.5735 46.6045 70.4225C46.5681 70.2662 46.4691 70.1308 46.3337 70.0475L38.5525 65.2506C38.3389 65.1256 38.0681 65.136 37.8702 65.2819C37.6722 65.4329 37.5837 65.6881 37.6514 65.9277L38.2347 65.7662L37.917 66.2819L45.1827 70.7558L41.7452 76.3444L38.8181 65.61L38.2347 65.7662Z" fill="#FAA755"/>
<path d="M60.6928 67.0736L61.0105 66.558L51.9272 60.9643C51.6408 60.7872 51.271 60.8757 51.0939 61.1622L45.5001 70.2455C45.4168 70.3809 45.3908 70.5476 45.4272 70.7039C45.4637 70.8549 45.5626 70.9903 45.698 71.0736L54.7553 76.6518C54.8908 76.7403 55.0574 76.7664 55.2137 76.7247L55.2605 76.7143C55.4116 76.6778 55.547 76.5789 55.6303 76.4434L61.2085 67.3914C61.2918 67.2559 61.3178 67.0893 61.2814 66.933C61.2449 66.7768 61.146 66.6414 61.0105 66.558L60.6928 67.0736L60.1772 66.7559L54.5991 75.8132L55.1147 76.1309L54.9741 75.5424L54.9272 75.5528L55.073 76.1414L55.3908 75.6257L46.8491 70.3653L51.8074 62.308L60.3751 67.5893L60.6928 67.0736Z" fill="#FAA755"/>
<path d="M41.5261 77.8451L40.9427 78.0066L41.3334 79.4233C41.4167 79.741 41.7396 79.9285 42.0573 79.8555L55.2084 76.7253C55.4479 76.6733 55.6302 76.4753 55.6667 76.2358C55.7084 75.9962 55.599 75.7514 55.3906 75.6264L46.3334 70.0483C46.0469 69.8712 45.6771 69.9597 45.5 70.2462L41.0156 77.5274C40.9271 77.6733 40.9011 77.8451 40.9427 78.0066L41.5261 77.8451L42.0417 78.1628L46.2136 71.392L53.5104 75.8868L42.3438 78.543L42.1094 77.6889L41.5261 77.8451Z" fill="#FAA755"/>
<path d="M79.1147 65.8903L79.7189 65.8069C79.4272 63.6976 79.1876 61.2236 79.0574 58.5517C79.0418 58.2861 78.8595 58.0622 78.6043 57.9944C78.3491 57.9267 78.0783 58.0361 77.9376 58.2653L74.8595 63.2653C74.6824 63.5517 74.771 63.9215 75.0522 64.0986L78.8022 66.4059C79.0001 66.5257 79.2501 66.5257 79.4481 66.3955C79.6408 66.2705 79.7501 66.0413 79.7189 65.8069L79.1147 65.8903L79.4324 65.3747L76.2033 63.3851L78.9689 58.8955L78.4533 58.583L77.8491 58.609C77.9845 61.3174 78.2241 63.8226 78.521 65.9736L79.1147 65.8903Z" fill="#FAA755"/>
<path d="M51.6097 61.4799L51.9274 60.9643L42.844 55.3705C42.5576 55.1934 42.1878 55.282 42.0107 55.5684L37.167 63.433C37.0784 63.5736 37.0576 63.7455 37.0993 63.907L37.6513 65.9278C37.693 66.0736 37.7815 66.1986 37.917 66.282L45.6982 71.0736C45.8336 71.157 46.0003 71.1882 46.1565 71.1466C46.3128 71.1101 46.4482 71.0111 46.5315 70.8757L52.1253 61.7976C52.2086 61.6622 52.2347 61.4903 52.1982 61.3393C52.1618 61.183 52.0628 61.0476 51.9274 60.9643L51.6097 61.4799L51.094 61.1622L45.818 69.7299L38.7555 65.3757L38.3336 63.8445L42.7243 56.7143L51.292 61.9955L51.6097 61.4799Z" fill="#FAA755"/>
<path d="M30.3594 10.7983L29.8177 10.5275C28.6771 12.7775 28.0417 15.2411 27.7552 17.7984C27.724 18.0796 27.8906 18.3452 28.1563 18.439C28.4271 18.5327 28.7188 18.4234 28.8698 18.1838L32.5781 12.1681C32.6615 12.0327 32.6875 11.8661 32.651 11.7098C32.6146 11.5536 32.5156 11.4181 32.3802 11.3348L30.6719 10.2879C30.5313 10.1994 30.3542 10.1733 30.1927 10.2202C30.0313 10.2619 29.8958 10.3765 29.8177 10.5275L30.3594 10.7983L30.0417 11.314L31.2292 12.0483L27.8438 17.5484L28.3542 17.8661L28.9531 17.9338C29.2292 15.4859 29.8386 13.1681 30.8958 11.0744L30.3594 10.7983Z" fill="#FAA755"/>
<path d="M39.0416 41.2042L39.552 41.5219L45.1458 32.4386C45.2291 32.3032 45.2603 32.1365 45.2239 31.9855C45.1822 31.8292 45.0885 31.6886 44.9531 31.6053L35.8645 26.0115C35.5833 25.8396 35.2083 25.9282 35.0364 26.2094L29.5728 35.0844C29.4895 35.2146 29.4635 35.3761 29.4947 35.5323C29.5208 35.6417 29.5468 35.7563 29.5728 35.8761C29.6093 36.0323 29.7083 36.1678 29.8437 36.2511L38.7239 41.7198C38.8593 41.8032 39.0208 41.8292 39.177 41.7928C39.3333 41.7563 39.4687 41.6573 39.552 41.5219L39.0416 41.2042L39.3541 40.6886L30.4791 35.2251L30.1614 35.7407L30.7499 35.6053C30.7239 35.4907 30.7031 35.3813 30.677 35.2667L30.0833 35.3969L30.5989 35.7146L35.7447 27.3605L43.802 32.3188L38.526 40.8865L39.0416 41.2042Z" fill="#FAA755"/>
<path d="M61.3284 5.01099L61.7399 4.56828C61.4951 4.33911 61.2399 4.11515 60.9743 3.8964L60.9065 3.84953L57.0472 1.46932L56.9743 1.43286C55.3336 0.719319 53.5211 0.255778 51.5211 0.0786936C51.292 0.0578603 51.0732 0.167235 50.9586 0.365152L46.2243 8.04224C46.1409 8.17765 46.1149 8.34432 46.1513 8.50057C46.1878 8.65682 46.2868 8.79224 46.4222 8.87557L55.5055 14.4693C55.6409 14.5527 55.8076 14.5787 55.9638 14.5422C56.1201 14.5058 56.2555 14.4068 56.3388 14.2714L61.844 5.32869C61.9951 5.0839 61.9534 4.76099 61.7399 4.56828L61.3284 5.01099L60.818 4.69328L55.6253 13.1256L47.5732 8.16203L51.9847 0.99536L51.469 0.677652L51.417 1.28182C53.292 1.44849 54.9743 1.88078 56.4899 2.53703L56.7295 1.98494L56.4118 2.50057L60.2711 4.87557L60.5888 4.35994L60.2034 4.82869C60.4482 5.03182 60.6878 5.24015 60.9222 5.4589L61.3284 5.01099Z" fill="#FAA755"/>
<path d="M55.8232 13.9534L56.1409 13.443L47.0576 7.84926C46.7711 7.67218 46.4013 7.76072 46.2243 8.04197L40.6305 17.1253C40.5472 17.2607 40.5211 17.4274 40.5576 17.5836C40.594 17.7347 40.693 17.8753 40.8284 17.9586L49.9118 23.5524C50.0472 23.6357 50.2138 23.6618 50.3701 23.6253C50.5211 23.5888 50.6618 23.4899 50.7451 23.3545L56.3388 14.2711C56.4222 14.1357 56.4482 13.969 56.4118 13.818C56.3753 13.6618 56.2763 13.5263 56.1409 13.443L55.8232 13.9534L55.3076 13.6357L50.0315 22.2086L41.9743 17.2451L46.9378 9.19301L55.5055 14.4691L55.8232 13.9534Z" fill="#FAA755"/>
<mask id="mask3_3637_2951" style="mask-type:luminance" maskUnits="userSpaceOnUse" x="82" y="20" width="8" height="13">
<path d="M82.0156 20.4492H89.0885V32.4492H82.0156V20.4492Z" fill="white"/>
</mask>
<g mask="url(#mask3_3637_2951)">
<path d="M83.0937 30.757L83.6093 31.0747C84.5104 29.6216 85.5573 28.3976 86.7708 27.4705C88.3437 26.2674 89.1718 24.4393 89.1718 22.6007C89.1718 22.3403 89.151 22.0799 89.1198 21.8195C89.0885 21.5643 88.8958 21.3559 88.6458 21.3038C88.3958 21.2518 88.1406 21.3611 88.0052 21.5799L82.5573 30.4236C82.4739 30.5643 82.4479 30.7257 82.4843 30.882C82.5208 31.0382 82.6198 31.1736 82.7552 31.257L82.7812 31.2726C83.0625 31.4445 83.4323 31.3559 83.6093 31.0747L83.0937 30.757L83.4114 30.2413L83.3854 30.2257L83.0729 30.7413L83.5833 31.0591L89.0364 22.2101L88.5208 21.8976L87.9218 21.9757C87.9479 22.1788 87.9635 22.3924 87.9635 22.6007C87.9583 24.0851 87.3021 25.5434 86.0364 26.5122C84.6771 27.5486 83.5416 28.8924 82.5833 30.4341L83.0937 30.757Z" fill="#FAA755"/>
</g>
<mask id="mask4_3637_2951" style="mask-type:luminance" maskUnits="userSpaceOnUse" x="72" y="16" width="18" height="17">
<path d="M72.6826 16.4492H89.0889V32.4492H72.6826V16.4492Z" fill="white"/>
</mask>
<g mask="url(#mask4_3637_2951)">
<path d="M78.417 17.959L77.9013 17.6413L73.4743 24.8288C73.3909 24.9642 73.3649 25.1309 73.4013 25.2871C73.4378 25.4382 73.5368 25.5736 73.6722 25.6569L82.7555 31.2559C82.8909 31.3392 83.0576 31.3652 83.2138 31.3288C83.3649 31.2923 83.5055 31.1934 83.5836 31.058L89.0368 22.209C89.1097 22.0892 89.1357 21.9538 89.1201 21.8184C89.0993 21.6777 89.0784 21.5423 89.0524 21.4121C89.0211 21.2507 88.9222 21.1048 88.7763 21.0163L81.9847 16.8288C81.8753 16.7611 81.7451 16.7298 81.6201 16.7402C80.5107 16.8236 79.3649 17.0475 78.2399 17.3809C78.0993 17.4225 77.9795 17.5163 77.9013 17.6413L78.417 17.959L78.5888 18.5371C79.6305 18.2246 80.693 18.0215 81.7086 17.9486L81.667 17.3444L81.3493 17.86L88.1409 22.0423L88.4586 21.5267L87.8701 21.6465C87.8909 21.7559 87.9065 21.8652 87.9222 21.9746L88.5211 21.8965L88.0055 21.5788L82.8753 29.9069L74.8232 24.9486L78.9274 18.2767L78.417 17.959Z" fill="#FAA755"/>
</g>
<path d="M48.1198 46.8024L47.6093 46.4795L42.0104 55.568C41.9271 55.7034 41.901 55.8701 41.9375 56.0211C41.9739 56.1774 42.0729 56.3128 42.2083 56.3961L51.2916 61.9951C51.4271 62.0784 51.5937 62.1045 51.75 62.0628C51.9062 62.0315 52.0416 61.9274 52.125 61.7972L57.7187 52.7138C57.8021 52.5784 57.8281 52.4118 57.7916 52.2555C57.7552 52.0993 57.6562 51.9638 57.5208 51.8805L48.4375 46.2868C48.1562 46.1097 47.7812 46.1982 47.6093 46.4795L48.1198 46.8024L47.8073 47.3128L56.375 52.5941L51.4114 60.6461L43.3593 55.6878L48.6354 47.1149L48.1198 46.8024Z" fill="#FAA755"/>
<path d="M57.2033 52.3959L56.6876 52.0782L51.0939 61.1615C51.0105 61.297 50.9845 61.4636 51.021 61.6199C51.0574 61.7709 51.1564 61.9115 51.2918 61.9949L60.3751 67.5886C60.5158 67.672 60.6772 67.698 60.8335 67.6615C60.9897 67.6251 61.1251 67.5261 61.2085 67.3907L66.8022 58.3074C66.9793 58.0209 66.8908 57.6511 66.6043 57.474L57.521 51.8803C57.2397 51.7032 56.8647 51.7917 56.6876 52.0782L57.2033 52.3959L56.8908 52.9063L65.4585 58.1876L60.4949 66.2397L52.4428 61.2813L57.7189 52.7136L57.2033 52.3959Z" fill="#FAA755"/>
<path d="M66.2864 57.9904L65.7708 57.6727L60.177 66.756C60.0052 67.0425 60.0937 67.4123 60.375 67.5893L69.4322 73.1675C69.5677 73.2508 69.7343 73.2768 69.8958 73.2404L69.9375 73.2248C70.0937 73.1883 70.2239 73.0893 70.3072 72.9591L75.8854 63.9018C75.9687 63.7664 75.9947 63.5998 75.9583 63.4435C75.9218 63.2925 75.8229 63.1518 75.6875 63.0685L66.6041 57.4748C66.3229 57.2977 65.9479 57.3914 65.7708 57.6727L66.2864 57.9904L65.9687 58.5008L74.5416 63.7821L69.2812 72.3237L69.7916 72.6414L69.6458 72.0529L69.6041 72.0633L69.75 72.6518L70.0677 72.1362L61.526 66.8758L66.802 58.3081L66.2864 57.9904Z" fill="#FAA755"/>
<path d="M69.7918 72.6411L69.9325 73.2244L80.0314 70.8286C80.3439 70.7557 80.5471 70.4432 80.4846 70.1254L79.896 67.0369L79.3023 67.1515L79.896 67.0577C79.8387 66.6619 79.7762 66.24 79.7189 65.8077C79.6929 65.6307 79.5887 65.4744 79.4325 65.3754L75.6877 63.0682C75.4064 62.8963 75.0314 62.9848 74.8596 63.2661L69.2814 72.3234C69.1512 72.5317 69.1616 72.7973 69.3023 72.9952C69.4481 73.1932 69.6981 73.2817 69.9325 73.2244L69.7918 72.6411L70.3075 72.9588L75.5679 64.4171L78.8023 66.4067L79.1148 65.8911L78.521 65.9744C78.5783 66.4119 78.6408 66.839 78.7033 67.2452L78.7085 67.2661L79.1929 69.7869L69.6512 72.0525L69.7918 72.6411Z" fill="#FAA755"/>
<path d="M39.0418 41.2029L38.5262 40.8852L33.3231 49.3331C33.2345 49.4738 33.2085 49.6508 33.2554 49.8071L33.5418 50.8644C33.5783 51.0154 33.6773 51.1404 33.8075 51.2238L42.2085 56.3956C42.3439 56.479 42.5106 56.505 42.6668 56.4685C42.8231 56.4321 42.9585 56.3331 43.0418 56.1977L48.6356 47.1144C48.7189 46.979 48.745 46.8123 48.7085 46.6613C48.672 46.505 48.5731 46.3696 48.4377 46.2863L39.3543 40.6873C39.0731 40.5154 38.6981 40.604 38.5262 40.8852L39.0418 41.2029L38.7241 41.7185L47.2918 46.9946L42.3283 55.0519L34.646 50.3175L34.4845 49.7446L39.5523 41.5206L39.0418 41.2029Z" fill="#FAA755"/>
</svg>
