<svg width="58" height="62" viewBox="0 0 58 62" fill="none" xmlns="http://www.w3.org/2000/svg">
<mask id="mask0_3591_4875" style="mask-type:luminance" maskUnits="userSpaceOnUse" x="2" y="35" width="53" height="27">
<path d="M2.72412 35.9531H54.7241V61.9063H2.72412V35.9531Z" fill="white"/>
</mask>
<g mask="url(#mask0_3591_4875)">
<path d="M52.0365 36.6348H5.9375C4.80208 36.6348 3.89583 37.6087 3.98958 38.7441C5.05729 51.6816 15.8385 61.8431 28.9896 61.8431C42.1354 61.8431 52.9219 51.6816 53.9896 38.7441C54.0833 37.6087 53.1719 36.6348 52.0365 36.6348Z" fill="#F16457"/>
</g>
<path d="M18.5522 20.9C18.2032 26.7855 22.7188 31.6605 27.8126 33.8844C28.172 34.0355 28.5574 34.1552 28.9428 34.1605C29.4741 34.1813 30.0001 33.999 30.4845 33.7802C34.0157 32.1448 36.9793 29.4938 38.5261 25.8115C39.2918 24.025 39.6876 22.0355 39.2813 20.1188C38.9636 18.5355 38.0209 17.0771 36.5261 16.3896C34.6824 15.5302 32.3543 15.4938 30.6876 16.6292C30.1355 16.9677 29.6459 17.6136 28.9741 17.6396H28.9532C28.2345 17.6136 27.6876 16.9521 27.0782 16.6136C23.5157 14.3584 18.823 16.7386 18.5574 20.9H18.5522Z" fill="#FAA755"/>
<mask id="mask1_3591_4875" style="mask-type:luminance" maskUnits="userSpaceOnUse" x="46" y="25" width="12" height="7">
<path d="M46.7241 25.2852H57.9741V31.9518H46.7241V25.2852Z" fill="white"/>
</mask>
<g mask="url(#mask1_3591_4875)">
<path d="M53.6462 26.0449C51.6097 26.0449 48.5264 27.2793 47.542 28.123C47.0628 28.5345 47.0628 29.2741 47.542 29.6803C48.5264 30.5293 51.6097 31.7585 53.6462 31.7585C56.7555 31.7585 57.9743 30.4824 57.9743 28.9043C57.9743 27.3262 56.7555 26.0449 53.6462 26.0449Z" fill="#FAA755"/>
</g>
<path d="M45.4428 20.3281C46.7241 20.5677 50.0105 20.099 51.7762 19.0833C54.4637 17.5313 54.8803 15.8177 54.0939 14.4531C53.3022 13.0833 51.6043 12.5885 48.9168 14.1354C47.146 15.1511 45.0939 17.7552 44.6668 18.9792C44.4585 19.5729 44.8282 20.2135 45.448 20.3281H45.4428Z" fill="#F16457"/>
<path d="M38.9427 13.2696C40.1666 12.8425 42.7812 10.7956 43.8021 9.03519C45.3541 6.35289 44.8541 4.66019 43.4843 3.87373C42.1146 3.08206 40.3906 3.49873 38.8385 6.18102C37.8229 7.94144 37.3489 11.2175 37.5885 12.4935C37.7031 13.1133 38.3437 13.4831 38.9427 13.2748V13.2696Z" fill="#FAA755"/>
<path d="M29.7708 10.401C30.6146 9.42187 31.849 6.34375 31.849 4.3125C31.8542 1.21354 30.5677 0 28.9896 0C27.4063 0 26.125 1.21354 26.125 4.3125C26.125 6.34375 27.3594 9.42187 28.2083 10.401C28.6198 10.8802 29.3594 10.8802 29.7708 10.401Z" fill="#F16457"/>
<path d="M19.0365 13.2705C19.6303 13.4789 20.2709 13.1091 20.3855 12.4945C20.6303 11.2184 20.1563 7.9372 19.1407 6.17678C17.5886 3.49449 15.8647 3.08303 14.4949 3.86949C13.1251 4.65595 12.6251 6.34866 14.1772 9.03095C15.198 10.7914 17.8074 12.8382 19.0365 13.2705Z" fill="#FAA755"/>
<path d="M6.19798 19.0833C7.96361 20.099 11.2553 20.5677 12.5313 20.3281C13.1511 20.2135 13.5209 19.5729 13.3126 18.9792C12.8803 17.7552 10.8334 15.1511 9.06777 14.1354C6.37507 12.5885 4.67715 13.0833 3.89069 14.4531C3.09902 15.8177 3.51569 17.5313 6.20319 19.0833H6.19798Z" fill="#F16457"/>
<mask id="mask2_3591_4875" style="mask-type:luminance" maskUnits="userSpaceOnUse" x="0" y="25" width="13" height="7">
<path d="M0 25.2852H12.0573V31.9518H0V25.2852Z" fill="white"/>
</mask>
<g mask="url(#mask2_3591_4875)">
<path d="M10.4375 29.6803C10.9167 29.2689 10.9167 28.5293 10.4375 28.123C9.45313 27.2741 6.36979 26.0449 4.32813 26.0449C1.22396 26.0449 0 27.321 0 28.8991C0 30.4772 1.22396 31.7533 4.32813 31.7533C6.36979 31.7533 9.45313 30.5241 10.4375 29.6803Z" fill="#FAA755"/>
</g>
</svg>
