<svg width="549" height="193" viewBox="0 0 549 193" fill="none" xmlns="http://www.w3.org/2000/svg">
<path d="M217.188 36.0677C221.167 36.0677 224.135 34.5521 225.74 32.4635C225.953 32.1823 226.203 31.651 226.203 31.2448C226.203 30.6615 225.828 30.3073 225.297 30.3073C224.927 30.3073 224.521 30.5208 224.078 30.8906C223.021 31.7917 221.5 32.7656 219.042 32.7656C214.13 32.7656 210.917 29.2135 210.917 23.9635C210.917 19.4219 213.458 16.401 217.542 16.401C220.193 16.401 221.87 17.8333 223.073 20.0417C223.604 21.0156 223.974 21.5417 224.661 21.5417C225.245 21.5417 225.724 21.1042 225.635 20.3073L225.104 15.4844C225.068 15.1094 224.979 14.1406 224.078 14.1406C223.302 14.1406 223.146 14.9167 222.365 14.9167C221.516 14.9167 220.031 14.1406 217.349 14.1406C210.594 14.1406 205.984 18.6823 205.984 25.3438C205.984 32.0052 210.437 36.0885 217.151 36.0885L217.188 36.0677Z" fill="#FCF7DD"/>
<path d="M230.125 33.4733L229.755 33.8796C229.38 34.2493 229.261 34.5306 229.261 34.8483C229.261 35.4316 229.698 35.7858 230.37 35.7858H235.318C236.026 35.7858 236.469 35.4525 236.469 34.8171C236.469 34.4785 236.38 34.2493 236.026 33.8796L235.708 33.541C235.302 33.0983 235.125 32.6921 235.125 31.4056V25.5202C235.125 24.2441 236.646 22.6191 238.604 22.6191C240.443 22.6191 241.469 23.8379 241.469 26.4577V31.4056C241.469 32.7129 241.276 33.1191 240.886 33.541L240.568 33.8796C240.235 34.2493 240.11 34.4941 240.11 34.8171C240.11 35.4316 240.552 35.7858 241.255 35.7858H246.203C246.912 35.7858 247.354 35.4525 247.354 34.8171C247.354 34.4421 247.162 34.1973 246.86 33.8796L246.453 33.4733C246.011 33.0306 245.87 32.4837 245.87 31.3171V26.1191C245.87 22.0723 243.875 20.0566 240.391 20.0566C238.11 20.0566 236.307 20.9941 235.125 22.515V13.8014C235.125 13.0931 234.667 12.7441 234.063 12.7441C233.818 12.7441 233.537 12.8118 233.25 12.8639L230.193 13.5566C229.63 13.6764 229.224 14.0827 229.224 14.5462C229.224 14.916 229.344 15.1087 229.682 15.4837L230.089 15.9212C230.531 16.3848 230.672 16.9473 230.672 17.9733V31.3327C230.672 32.5514 230.511 33.0098 230.089 33.4889L230.125 33.4733Z" fill="#FCF7DD"/>
<path d="M250.287 31.7233C250.287 34.4629 252.287 36.0879 255.396 36.0879C257.818 36.0879 259.62 34.8483 260.875 33.4733H260.964V34.4629C260.964 35.4837 261.422 36.0514 262.36 36.0514C263.292 36.0514 266.844 35.1139 266.844 33.8066C266.844 32.6608 264.974 33.3483 264.974 31.3848V25.6973C264.974 22.0566 262.604 20.0566 257.974 20.0566C254.297 20.0566 251.136 21.4525 251.136 23.5046C251.136 24.5306 251.88 25.1504 252.974 25.1504C255.344 25.1504 254.37 22.0931 257.552 22.0931C259.391 22.0931 260.61 23.3275 260.61 25.5723V26.1921C252.886 26.4733 250.307 28.5931 250.307 31.7025L250.287 31.7233ZM260.589 30.6973C260.589 32.166 258.964 33.5254 257.162 33.5254C255.693 33.5254 254.703 32.7129 254.703 31.2285C254.703 29.1764 256.88 28.2389 260.589 28.0306V30.6973Z" fill="#FCF7DD"/>
<path d="M270.026 15.9056C270.557 16.4368 270.594 17.0879 270.594 17.9889V34.8327C270.594 35.5723 271.089 36.0514 271.828 36.0514C272.484 36.0514 273.172 35.5931 273.755 34.7441C275.026 35.7702 276.953 36.0879 278.37 36.0879C283.406 36.0879 286.672 32.6921 286.672 27.5879C286.672 23.0098 284.094 20.0566 280.172 20.0566C277.802 20.0566 276.089 21.1556 275.01 22.7285V13.765C275.01 13.0618 274.604 12.7441 273.984 12.7441C273.74 12.7441 273.422 12.8118 273.245 12.8327L270.135 13.5566C269.479 13.7129 269.109 14.1712 269.109 14.6139C269.109 14.9525 269.318 15.1973 269.641 15.515L270.047 15.9212L270.026 15.9056ZM275.01 26.0827C275.01 24.0358 276.51 22.5671 278.37 22.5671C280.615 22.5671 282.078 24.5306 282.078 28.3275C282.078 32.1296 280.703 34.0566 278.245 34.0566C276.354 34.0566 275.01 32.7806 275.01 30.8743V26.0827Z" fill="#FCF7DD"/>
<path d="M289.838 31.7233C289.838 34.4629 291.833 36.0879 294.943 36.0879C297.364 36.0879 299.187 34.8483 300.422 33.4733H300.51V34.4629C300.51 35.4837 300.969 36.0514 301.906 36.0514C302.844 36.0514 306.396 35.1139 306.396 33.8066C306.396 32.6608 304.521 33.3483 304.521 31.3848V25.6973C304.521 22.0566 302.156 20.0566 297.526 20.0566C293.849 20.0566 290.687 21.4525 290.687 23.5046C290.687 24.5306 291.427 25.1504 292.521 25.1504C294.89 25.1504 293.922 22.0931 297.099 22.0931C298.937 22.0931 300.156 23.3275 300.156 25.5723V26.1921C292.437 26.4733 289.854 28.5931 289.854 31.7025L289.838 31.7233ZM300.14 30.6973C300.14 32.166 298.515 33.5254 296.713 33.5254C295.245 33.5254 294.255 32.7129 294.255 31.2285C294.255 29.1764 296.427 28.2389 300.14 28.0306V30.6973Z" fill="#FCF7DD"/>
<path d="M315.672 36.0671C318.094 36.0671 319.917 35.0462 321.026 33.4525H321.151V34.4264C321.187 35.4837 321.521 36.0514 322.635 36.0514C323.573 36.0514 327.021 35.0775 327.021 33.8066C327.021 32.6608 325.146 33.3483 325.146 31.3848V13.765C325.146 13.0618 324.688 12.7441 324.083 12.7441C323.839 12.7441 323.557 12.8118 323.271 12.8639L320.25 13.5566C319.651 13.6764 319.281 14.0514 319.281 14.5827C319.281 14.9525 319.437 15.1452 319.74 15.515L320.146 15.9212C320.604 16.3848 320.708 16.9473 320.708 18.0098V20.9421C319.719 20.3743 318.464 20.0775 317.141 20.0775C312.229 20.0775 309.047 23.4681 309.047 28.5775C309.047 33.0827 311.536 36.1035 315.641 36.1035L315.672 36.0671ZM317.474 22.0723C319.401 22.0723 320.745 23.3431 320.745 25.2546V30.1139C320.745 32.1087 319.26 33.5618 317.385 33.5618C315.089 33.5618 313.661 31.4733 313.661 27.7441C313.661 24.015 315.057 22.0931 317.495 22.0931L317.474 22.0723Z" fill="#FCF7DD"/>
<path d="M243.818 103.963H256.474C258.151 103.963 259.302 103.046 259.302 101.598C259.302 100.077 258.24 99.39 256.703 98.2389C254.651 96.7181 253.734 95.64 251.365 92.3014L236.734 72.4889L246.188 63.4941C248.927 60.9004 251.823 58.5462 255.109 56.64C256.49 55.8796 257.479 55.1921 257.479 53.9004C257.479 52.5202 256.333 51.7598 254.651 51.7598H244.599C242.849 51.7598 241.63 52.5931 241.63 53.9733C241.63 55.4889 242.849 55.8796 242.849 57.2389C242.849 58.1608 241.698 59.8379 240.021 61.4264L221.802 78.8014V62.9473C221.802 60.2806 222.49 58.7598 223.708 57.6087L224.63 56.5514C225.458 55.5618 225.917 55.0306 225.917 54.041C225.917 52.6608 224.771 51.7598 223.021 51.7598H209.078C207.396 51.7598 206.25 52.6816 206.25 54.041C206.25 55.1035 206.635 55.6504 207.469 56.5514L208.458 57.6087C209.839 59.1296 210.276 60.8118 210.276 62.9473V92.7441C210.276 95.4837 209.521 96.9316 208.458 98.0827L207.469 99.14C206.635 100.062 206.25 100.588 206.25 101.65C206.25 103.031 207.396 103.932 209.078 103.932H223.021C224.771 103.932 225.917 103.01 225.917 101.65C225.917 100.729 225.531 100.202 224.63 99.14L223.708 98.0827C222.188 96.5619 221.802 94.7233 221.802 92.7441V86.6452L228.589 80.1608L239.26 94.5619C240.781 96.8431 241.469 97.8327 241.469 99.14C241.469 100.291 240.849 100.588 240.849 101.51C240.849 103.187 242.141 103.947 243.818 103.947V103.963Z" fill="#FCF7DD"/>
<path d="M271.938 60.2292C275.594 60.2292 278.261 58.1771 278.261 54.5208C278.261 50.8594 275.594 48.9531 271.938 48.9531C268.276 48.9531 265.537 51.0052 265.537 54.5208C265.537 58.0365 268.208 60.2292 271.938 60.2292Z" fill="#FCF7DD"/>
<path d="M281.531 101.614C281.531 100.854 281.14 100.234 280.312 99.3327L279.479 98.3431C278.422 97.2858 277.963 95.9785 277.963 93.0775V68.0046C277.963 66.3223 276.974 65.4941 275.453 65.4941C274.833 65.4941 274.073 65.5618 273.474 65.7233L266 67.4004C264.547 67.7025 263.557 68.6191 263.557 69.8379C263.557 70.6712 263.786 71.2181 264.708 72.1191L265.698 73.1087C266.755 74.1712 267.146 75.4785 267.146 78.1452V93.0775C267.146 96.0462 266.844 97.1973 265.698 98.3431L264.864 99.3327C264.036 100.322 263.578 100.854 263.578 101.702C263.578 103.15 264.635 103.984 266.318 103.984H278.739C280.417 103.984 281.568 103.15 281.568 101.614H281.531Z" fill="#FCF7DD"/>
<path d="M284.89 69.8216C284.89 71.0404 285.88 71.9622 287.401 71.9622H290.984L290.917 91.8581C290.917 100.556 295.031 104.743 302.651 104.743C307.297 104.743 311.713 102.603 314.01 100.092C315 99.0352 315.531 98.2747 315.531 97.0352C315.531 95.8893 314.844 95.1289 313.713 95.1289C313.255 95.1289 312.495 95.5195 311.802 95.8893C310.583 96.5768 309.062 97.4987 306.765 97.4987C302.422 97.4987 301.729 93.9102 301.729 88.7331V71.9622H311.255C312.776 71.9622 313.854 70.9727 313.854 69.1341C313.854 67.2956 312.792 66.2331 311.255 66.2331H301.729V56.7799C301.729 55.2591 300.583 54.4102 299.13 54.4102C297.682 54.4102 296.625 55.2435 296.073 56.3893C295.083 58.4414 294.255 61.4258 292.578 63.4779C290.896 65.5299 289.521 66.0768 287.239 66.9779C285.859 67.6654 284.87 68.3529 284.87 69.806L284.89 69.8216Z" fill="#FCF7DD"/>
<path d="M318.271 85.6758C318.271 97.4102 326.276 104.723 337.479 104.723C343.505 104.723 348.755 102.676 352.646 99.0143C354.25 97.6393 354.922 96.5091 354.922 95.1289C354.922 93.9779 354.162 93.1497 352.943 93.1497C352.115 93.1497 351.333 93.6081 350.505 94.207C348.136 95.957 344.87 97.707 340.912 97.707C334.125 97.707 329.333 92.3737 329.333 82.9154C329.333 75.1393 332.761 70.4935 338.031 70.4935C344.813 70.4935 343.297 78.8685 348.615 78.8685C351.354 78.8685 353.651 76.5924 353.651 73.7643C353.651 68.5872 346.266 65.457 338.948 65.457C326.985 65.457 318.292 73.5352 318.292 85.6549L318.271 85.6758Z" fill="#FCF7DD"/>
<path d="M389.453 81.1139V103.525C389.453 116.015 397.391 122.505 408.432 122.505C416.281 122.505 422.234 119.072 422.234 114.354C422.234 111.916 420.786 110.307 418.188 110.307C412.391 110.307 413.469 117.468 407.375 117.468C402.953 117.468 400.219 113.739 400.219 106.031V80.3535C400.219 70.4421 395.339 65.4941 386.802 65.4941C381.234 65.4941 376.818 67.7702 373.922 71.5202V50.1712C373.922 48.4212 372.771 47.5723 371.323 47.5723C370.703 47.5723 370.031 47.7337 369.344 47.8743L361.87 49.5514C360.49 49.8535 359.5 50.8431 359.5 51.9941C359.5 52.9108 359.802 53.3691 360.651 54.2702L361.641 55.3327C362.698 56.4785 363.089 57.8431 363.089 60.3691V93.0619C363.089 96.0306 362.698 97.1764 361.641 98.3275L360.719 99.3171C359.802 100.234 359.5 100.926 359.5 101.687C359.5 103.135 360.562 103.963 362.24 103.963H374.365C376.109 103.963 377.188 103.135 377.188 101.598C377.188 100.765 376.958 100.218 376.13 99.3171L375.37 98.4889C374.38 97.4264 373.922 96.4368 373.922 93.2181V78.8171C373.922 75.6921 377.651 71.7337 382.458 71.7337C386.943 71.7337 389.474 74.7025 389.474 81.0983L389.453 81.1139Z" fill="#FCF7DD"/>
<path d="M427.323 104.723C432.802 104.723 438.297 102.973 442.115 99.2279C443.724 97.7799 444.484 96.5612 444.484 95.3424C444.484 94.1185 443.797 93.2904 442.734 93.2904C441.818 93.2904 440.984 93.9102 440.068 94.5091C437.786 96.332 434.891 97.707 431.073 97.707C423.755 97.707 419.708 92.832 419.036 85.1237H439.698C442.755 85.1237 444.573 83.1445 444.573 79.4883C444.573 71.2539 437.948 65.4727 428.031 65.4727C416.526 65.4727 407.922 73.5508 407.922 85.5143C407.922 97.4779 415.469 104.723 427.359 104.723H427.323ZM427.698 70.1237C432.573 70.1237 434.625 73.6237 434.625 77.207C434.625 79.9466 432.573 80.4049 430.896 80.4049H419.089C419.693 74.0091 423.047 70.1237 427.698 70.1237Z" fill="#FCF7DD"/>
<path d="M480.287 81.0247V93.2174C480.287 96.4206 479.761 97.4779 478.839 98.4883L478.078 99.3164C477.458 99.9362 476.932 100.608 476.932 101.525C476.932 103.134 477.99 103.962 479.761 103.962H491.88C493.63 103.962 494.708 103.134 494.708 101.598C494.708 100.379 494.021 99.8477 493.49 99.3164L492.5 98.3268C491.438 97.2643 491.052 96.0456 491.052 93.0612V80.3372C491.052 70.4206 486.245 65.4727 477.479 65.4727C471.453 65.4727 466.662 68.6029 464.365 72.332H464.136V68.056C464.136 66.4466 463.146 65.457 461.537 65.457C461.078 65.457 460.62 65.5299 459.932 65.7591L452.682 67.5091C451.235 67.8945 450.318 68.8841 450.318 70.1029C450.318 70.9362 450.615 71.4831 451.464 72.3112L452.453 73.3008C453.516 74.3633 453.906 75.8112 453.906 78.2539V93.0404C453.906 96.0977 453.516 97.1602 452.453 98.3112L451.537 99.3008C450.932 99.9154 450.318 100.587 450.318 101.665C450.318 103.118 451.375 103.947 453.057 103.947H465.177C466.927 103.947 468.005 103.118 468.005 101.577C468.005 100.431 467.474 99.8268 466.948 99.3008L466.188 98.4674C465.198 97.3216 464.735 96.0977 464.735 93.2018V78.8008C464.735 75.6706 468.396 71.7122 473.432 71.7122C477.776 71.7122 480.287 74.681 480.287 81.0091V81.0247Z" fill="#FCF7DD"/>
<mask id="mask0_3591_4876" style="mask-type:luminance" maskUnits="userSpaceOnUse" x="205" y="118" width="95" height="75">
<path d="M205.87 118.02H299.203V192.905H205.87V118.02Z" fill="white"/>
</mask>
<g mask="url(#mask0_3591_4876)">
<path d="M295.031 177.639C288.547 177.639 292.364 186.561 282.609 186.561C268.208 186.561 250.979 171.858 237.193 139.009L246.187 130.473C248.854 127.962 251.682 125.665 254.724 123.613C256.099 122.858 257.094 122.098 257.094 120.874C257.094 119.587 255.943 118.738 254.265 118.738H244.578C242.828 118.738 241.609 119.566 241.609 120.947C241.609 122.467 242.828 122.858 242.828 124.217C242.828 125.046 241.542 126.884 240 128.405L221.781 145.775V129.926C221.781 127.327 222.474 125.738 223.693 124.587L224.609 123.525C225.443 122.535 225.901 122.009 225.901 121.02C225.901 119.639 224.75 118.738 223 118.738H209.057C207.38 118.738 206.229 119.655 206.229 121.02C206.229 122.077 206.62 122.624 207.453 123.525L208.443 124.587C209.818 126.108 210.26 127.947 210.26 129.926V159.717C210.26 162.457 209.5 163.905 208.443 165.056L207.453 166.118C206.62 167.035 206.229 167.566 206.229 168.624C206.229 170.004 207.38 170.905 209.057 170.905H223C224.75 170.905 225.901 169.988 225.901 168.624C225.901 167.566 225.443 167.02 224.609 166.118L223.693 165.056C222.083 163.535 221.781 161.467 221.781 159.717V153.624L229.099 146.697C237.792 169.863 253.948 193.03 278.635 193.03C292.349 193.03 298.974 186.103 298.974 181.598C298.974 179.228 297.526 177.639 295.015 177.639H295.031Z" fill="#FCF7DD"/>
</g>
<path d="M263.401 165.307L262.568 166.297C261.74 167.286 261.281 167.813 261.281 168.661C261.281 170.109 262.339 170.943 264.021 170.943H276.443C278.12 170.943 279.271 170.109 279.271 168.573C279.271 167.813 278.88 167.198 278.052 166.297L277.219 165.307C276.161 164.245 275.698 162.938 275.698 160.036V134.964C275.698 133.281 274.708 132.453 273.193 132.453C272.573 132.453 271.813 132.521 271.214 132.682L263.734 134.359C262.286 134.661 261.297 135.578 261.297 136.802C261.297 137.63 261.526 138.177 262.448 139.078L263.438 140.068C264.495 141.13 264.885 142.438 264.885 145.104V160.036C264.885 163.005 264.583 164.156 263.438 165.307H263.401Z" fill="#FCF7DD"/>
<path d="M269.656 127.186C273.312 127.186 275.984 125.134 275.984 121.478C275.984 117.822 273.312 115.91 269.656 115.91C266 115.91 263.26 117.962 263.26 121.478C263.26 124.993 265.927 127.186 269.656 127.186Z" fill="#FCF7DD"/>
<path d="M328.026 166.297L327.036 165.307C325.974 164.245 325.588 163.026 325.588 160.036V147.313C325.588 137.401 320.781 132.453 312.015 132.453C305.989 132.453 301.198 135.578 298.901 139.307H298.672V135.031C298.672 133.427 297.682 132.438 296.073 132.438C295.614 132.438 295.156 132.505 294.469 132.734L287.224 134.484C285.771 134.875 284.854 135.865 284.854 137.083C284.854 137.911 285.156 138.464 286 139.292L286.989 140.281C288.052 141.344 288.443 142.792 288.443 145.229V160.021C288.443 163.078 288.052 164.141 286.989 165.286L286.073 166.276C285.474 166.896 284.854 167.568 284.854 168.646C284.854 170.094 285.917 170.927 287.594 170.927H299.713C301.463 170.927 302.542 170.094 302.542 168.557C302.542 167.406 302.015 166.807 301.484 166.276L300.724 165.448C299.734 164.297 299.276 163.078 299.276 160.182V145.776C299.276 142.651 302.932 138.693 307.969 138.693C312.318 138.693 314.823 141.661 314.823 147.984V160.182C314.823 163.38 314.297 164.458 313.375 165.448L312.614 166.276C312 166.896 311.469 167.568 311.469 168.484C311.469 170.094 312.526 170.927 314.297 170.927H326.417C328.167 170.927 329.245 170.094 329.245 168.557C329.245 167.339 328.557 166.807 328.026 166.276V166.297Z" fill="#FCF7DD"/>
<path d="M373.901 160.197V117.061C373.901 115.311 372.755 114.551 371.307 114.551C370.687 114.551 370.015 114.707 369.328 114.848L361.937 116.53C360.489 116.827 359.573 117.749 359.573 119.04C359.573 119.957 359.958 120.415 360.719 121.316L361.708 122.306C362.859 123.457 363.088 124.816 363.088 127.415V134.572C360.651 133.191 357.594 132.436 354.323 132.436C342.286 132.436 334.51 140.738 334.51 153.233C334.51 164.28 340.609 171.681 350.667 171.681C356.604 171.681 361.021 169.176 363.776 165.285H364.078V167.655C364.146 170.254 364.995 171.613 367.734 171.613C370.015 171.613 378.479 169.243 378.479 166.134C378.479 163.306 373.901 164.983 373.901 160.197ZM363.088 157.066C363.088 161.947 359.427 165.535 354.854 165.535C349.213 165.535 345.698 160.426 345.698 151.29C345.698 142.155 349.125 137.415 355.062 137.415C359.781 137.415 363.068 140.546 363.068 145.191V157.087L363.088 157.066Z" fill="#FCF7DD"/>
<path d="M426.635 166.297L425.646 165.307C424.588 164.245 424.198 163.026 424.198 160.036V147.313C424.198 137.401 419.39 132.453 410.625 132.453C404.599 132.453 399.807 135.578 397.51 139.307H397.281V135.031C397.281 133.427 396.292 132.438 394.687 132.438C394.224 132.438 393.765 132.505 393.078 132.734L385.833 134.484C384.38 134.875 383.463 135.865 383.463 137.083C383.463 137.911 383.765 138.464 384.609 139.292L385.604 140.281C386.661 141.344 387.052 142.792 387.052 145.229V160.021C387.052 163.078 386.661 164.141 385.604 165.286L384.682 166.276C384.083 166.896 383.463 167.568 383.463 168.646C383.463 170.094 384.526 170.927 386.203 170.927H398.323C400.073 170.927 401.151 170.094 401.151 168.557C401.151 167.406 400.625 166.807 400.094 166.276L399.333 165.448C398.344 164.297 397.885 163.078 397.885 160.182V145.776C397.885 142.651 401.542 138.693 406.578 138.693C410.927 138.693 413.437 141.661 413.437 147.984V160.182C413.437 163.38 412.906 164.458 411.984 165.448L411.224 166.276C410.609 166.896 410.078 167.568 410.078 168.484C410.078 170.094 411.135 170.927 412.906 170.927H425.026C426.776 170.927 427.854 170.094 427.854 168.557C427.854 167.339 427.167 166.807 426.635 166.276V166.297Z" fill="#FCF7DD"/>
<path d="M469.474 146.469C469.474 138.229 462.844 132.438 452.932 132.438C441.427 132.438 432.823 140.51 432.823 152.474C432.823 164.438 440.364 171.682 452.26 171.682C457.739 171.682 463.234 169.938 467.052 166.188C468.661 164.74 469.422 163.521 469.422 162.302C469.422 161.083 468.729 160.25 467.672 160.25C466.75 160.25 465.922 160.87 465 161.469C462.724 163.292 459.823 164.667 456.005 164.667C448.693 164.667 444.646 159.792 443.974 152.089H464.63C467.687 152.089 469.51 150.109 469.51 146.448L469.474 146.469ZM455.828 147.385H444.026C444.625 140.99 447.984 137.099 452.63 137.099C457.51 137.099 459.557 140.599 459.557 144.188C459.557 146.927 457.51 147.385 455.828 147.385Z" fill="#FCF7DD"/>
<path d="M495.38 147.615C490.203 146.234 485.552 145.177 485.552 141.589C485.552 139.219 487.995 137.313 491.813 137.313C499.125 137.313 499.125 142.948 503.313 142.948C505.365 142.948 507.203 141.661 507.203 139.292C507.203 134.875 500.417 132.438 492.729 132.438C482.286 132.438 476.047 137.542 476.047 144.63C476.047 153.005 484.214 154.984 490.677 156.75C495.099 157.969 498.844 159.193 498.844 162.318C498.844 164.755 496.474 166.807 491.688 166.807C483.313 166.807 483.38 160.021 478.964 160.021C476.526 160.021 474.688 161.844 474.688 164.141C474.688 168.625 482.161 171.682 490.38 171.682C502.115 171.682 508.51 166.349 508.51 158.958C508.51 151.573 501.583 149.203 495.396 147.599L495.38 147.615Z" fill="#FCF7DD"/>
<mask id="mask1_3591_4876" style="mask-type:luminance" maskUnits="userSpaceOnUse" x="512" y="131" width="37" height="42">
<path d="M512.536 131.354H548.396V172.687H512.536V131.354Z" fill="white"/>
</mask>
<g mask="url(#mask1_3591_4876)">
<path d="M534.312 147.615C529.135 146.234 524.484 145.177 524.484 141.589C524.484 139.219 526.922 137.313 530.739 137.313C538.057 137.313 538.057 142.948 542.245 142.948C544.297 142.948 546.135 141.661 546.135 139.292C546.135 134.875 539.349 132.438 531.661 132.438C521.219 132.438 514.979 137.542 514.979 144.63C514.979 153.005 523.14 154.984 529.609 156.75C534.026 157.969 537.776 159.193 537.776 162.318C537.776 164.755 535.406 166.807 530.62 166.807C522.239 166.807 522.312 160.021 517.896 160.021C515.453 160.021 513.62 161.844 513.62 164.141C513.62 168.625 521.094 171.682 529.312 171.682C541.042 171.682 547.443 166.349 547.443 158.958C547.443 151.573 540.515 149.203 534.328 147.599L534.312 147.615Z" fill="#FCF7DD"/>
</g>
<path d="M524.771 86.416C524.771 81.416 521.041 78.1973 515.401 78.1973C508.26 78.1973 503.333 83.3952 503.333 89.3327C503.333 94.5618 507.328 97.515 512.698 97.515C519.786 97.515 524.771 92.3171 524.771 86.416ZM513.531 94.6348C511.286 94.6348 509.869 92.3535 509.869 88.8379C509.869 84.4733 511.885 81.1139 514.609 81.1139C516.817 81.1139 518.229 83.3223 518.229 86.8223C518.229 91.1868 516.213 94.6348 513.531 94.6348Z" fill="#FCF7DD"/>
<path d="M521.286 100.521C519.839 100.521 518.938 101.49 518.938 102.906C518.938 104.953 521.359 106.297 524.307 106.297C529.469 106.297 533.198 102.708 533.87 97.9375L536.151 81.7708H540.036C541.078 81.7708 541.75 80.9896 541.75 79.8281C541.75 79.0469 541.276 78.5521 540.516 78.5521H536.589L536.927 76.1302C537.297 73.4792 538.13 72.1719 539.349 72.1719C541.188 72.1719 540.427 75.0208 542.776 75.0208C544.276 75.0208 545.391 73.8698 545.391 72.2604C545.391 70.4792 543.552 69.3125 540.656 69.3125C535.656 69.3125 531.203 72.8646 530.458 77.6354L530.318 78.5729H528.531C527.526 78.5729 526.818 79.349 526.818 80.4792C526.818 81.2552 527.297 81.7865 528.057 81.7865H529.875L527.417 99.4948C527.156 101.245 526.552 103.417 525 103.417C523.214 103.417 523.76 100.536 521.307 100.536L521.286 100.521Z" fill="#FCF7DD"/>
<mask id="mask2_3591_4876" style="mask-type:luminance" maskUnits="userSpaceOnUse" x="11" y="114" width="158" height="79">
<path d="M11.2031 114.02H168.536V192.905H11.2031V114.02Z" fill="white"/>
</mask>
<g mask="url(#mask2_3591_4876)">
<path d="M161.963 114.354H18.4842C14.9477 114.354 12.1248 117.395 12.4061 120.947C15.729 161.327 49.3019 193.051 90.2134 193.051C131.14 193.051 164.703 161.327 168.026 120.947C168.323 117.395 165.479 114.354 161.948 114.354H161.963Z" fill="#FCF7DD"/>
</g>
<path d="M57.7345 65.245C56.6564 83.6252 70.7033 98.8231 86.5418 105.766C87.6512 106.245 88.8543 106.615 90.0731 106.636C91.7189 106.688 93.3595 106.12 94.8647 105.448C105.854 100.344 115.078 92.0731 119.906 80.5679C122.271 75.0002 123.511 68.7971 122.235 62.8075C121.245 57.8596 118.313 53.3179 113.667 51.1773C107.922 48.5106 100.677 48.37 95.4793 51.9221C93.7658 52.9846 92.2449 54.995 90.146 55.0836H90.0939C87.8491 54.995 86.1512 52.9273 84.2606 51.8856C73.1616 44.8336 58.5626 52.2763 57.7345 65.245Z" fill="#FCF7DD"/>
<path d="M166.984 81.3125C160.635 81.3125 151.042 85.1458 147.969 87.7969C146.484 89.0677 146.484 91.3854 147.969 92.6563C151.042 95.2865 160.635 99.1406 166.984 99.1406C176.646 99.1406 180.448 95.1458 180.448 90.2344C180.448 85.3021 176.646 81.3281 166.984 81.3281V81.3125Z" fill="#FCF7DD"/>
<path d="M141.448 63.4628C145.422 64.218 155.656 62.7337 161.151 59.5722C169.526 54.7493 170.818 49.3951 168.359 45.1191C165.906 40.8587 160.62 39.3014 152.245 44.1295C146.75 47.3066 140.349 55.4212 139.026 59.2545C138.37 61.1087 139.521 63.1087 141.464 63.4628H141.448Z" fill="#FCF7DD"/>
<path d="M121.193 41.4212C125.01 40.0827 133.141 33.7025 136.323 28.2077C141.146 19.8275 139.589 14.5462 135.333 12.0879C131.073 9.62956 125.719 10.9212 120.875 19.2962C117.693 24.7962 116.229 35.0254 116.99 39.0046C117.359 40.9264 119.339 42.0775 121.193 41.4421V41.4212Z" fill="#FCF7DD"/>
<mask id="mask3_3591_4876" style="mask-type:luminance" maskUnits="userSpaceOnUse" x="80" y="0" width="20" height="35">
<path d="M80.5366 0H99.2033V34.0208H80.5366V0Z" fill="white"/>
</mask>
<g mask="url(#mask3_3591_4876)">
<path d="M92.6514 32.4844C95.2868 29.4063 99.141 19.8125 99.141 13.4688C99.141 3.80208 95.1462 0 90.2139 0C85.2868 0 81.3076 3.80208 81.3076 13.4688C81.3076 19.8125 85.141 29.4063 87.792 32.4844C89.068 33.9688 91.3805 33.9688 92.6514 32.4844Z" fill="#FCF7DD"/>
</g>
<path d="M59.2343 41.4212C61.0937 42.0775 63.0885 40.9264 63.4427 38.9837C64.2031 35.0098 62.7187 24.7754 59.552 19.2806C54.7291 10.9056 49.375 9.61393 45.0989 12.0723C40.8229 14.5254 39.2864 19.8119 44.1093 28.1869C47.2916 33.6816 55.401 40.0827 59.2343 41.4056V41.4212Z" fill="#FCF7DD"/>
<path d="M19.2967 59.556C24.7915 62.7331 35.0259 64.2018 38.9998 63.4414C40.9269 63.0716 42.078 61.0925 41.4425 59.2383C40.0988 55.4206 33.7186 47.2904 28.2238 44.1081C19.8436 39.2852 14.5623 40.8425 12.104 45.0977C9.64567 49.3581 10.9373 54.7123 19.3123 59.556H19.2967Z" fill="#FCF7DD"/>
<path d="M32.4792 92.6348C33.9635 91.3639 33.9635 89.0514 32.4792 87.7754C29.4063 85.1452 19.8073 81.291 13.4635 81.291C3.79688 81.3118 0 85.2858 0 90.2181C0 95.1452 3.79688 99.1243 13.4635 99.1243C19.8073 99.1243 29.4063 95.2858 32.4792 92.6348Z" fill="#FCF7DD"/>
</svg>
