<svg width="180" height="155" viewBox="0 0 180 155" fill="none" xmlns="http://www.w3.org/2000/svg">
<path d="M79.3996 0.157875C81.9116 -0.0531248 85.5626 -0.0521248 88.0756 0.157875C88.4216 0.186875 88.6916 1.08986 89.0396 1.12186C93.1376 1.50086 96.6236 1.16185 100.607 2.08585C136.503 10.4139 169.124 48.5719 177.24 83.5389C179.632 93.8439 180.107 107.53 178.204 118.241C177.994 119.421 178.455 120.996 178.204 122.097C178.118 122.472 177.328 122.685 177.24 123.061C177.038 123.92 177.461 125.144 177.24 125.953C176.907 127.175 175.038 128.819 174.348 129.809C172.176 132.928 169.337 136.269 166.155 138.966C165.971 139.122 165.383 138.806 165.191 138.966C161.181 142.315 157.139 145.953 152.66 148.605C151.663 149.196 148.498 151.354 147.84 151.497C146.709 151.742 145.103 151.247 143.984 151.497C143.596 151.584 143.326 152.811 142.056 152.461C141.67 152.354 141.461 151.58 141.092 151.497C139.741 151.194 137.768 151.704 136.272 151.497C134.231 149.786 130.824 148.553 129.043 146.195C128.901 146.007 129.204 145.468 129.043 145.231C128.596 144.574 127.244 143.753 127.115 143.303C126.942 142.7 127.298 141.949 127.115 141.375C126.987 140.975 126.214 140.765 126.151 140.411C125.851 138.727 125.851 132.456 126.151 130.771C126.214 130.417 126.987 130.207 127.115 129.807C127.298 129.234 126.942 128.482 127.115 127.879C127.244 127.429 128.596 126.608 129.043 125.951C129.199 125.721 128.897 125.187 129.043 124.987C129.873 123.845 132.226 121.575 133.381 120.649C133.575 120.494 134.145 120.807 134.345 120.649C137.317 118.295 140.168 116.062 143.021 113.901C143.88 113.25 144.579 112.2 145.431 111.491C144.937 106.662 146.111 100.714 145.431 96.0679C145.121 93.9479 143.227 89.7169 142.539 87.3919C136.174 65.8869 118.679 44.0878 96.7516 36.7848C92.7366 35.4478 91.3236 35.4958 87.1116 34.8568C86.7496 34.8018 86.5086 33.9469 86.1476 33.8929C84.9616 33.7169 82.5136 33.7169 81.3276 33.8929C80.9666 33.9469 80.7256 34.8018 80.3636 34.8568C76.6856 35.4148 73.5206 35.3968 69.7606 36.7848L64.4586 40.1589C65.4226 40.8839 67.2636 38.9128 67.8326 38.7128C68.4046 38.5118 69.1866 38.9108 69.7606 38.7128C76.3996 36.4168 82.8436 34.6328 90.9676 35.8208C91.3256 35.8728 91.5576 36.7098 91.9316 36.7848C106.822 39.7568 115.045 46.6159 122.296 59.4379C124.076 62.5859 126.254 66.8038 127.116 70.0408C134.384 97.3538 120.912 126.237 97.7156 141.855C90.4496 145.852 81.5976 150.607 73.6166 152.458C45.5336 158.974 17.6416 149.161 4.69464 122.094C-11.2354 77.8509 15.0546 24.1789 58.1936 4.97489C61.2266 5.08389 64.6776 2.5378 66.8686 2.0828C70.5936 1.3098 74.6046 1.52181 78.4356 1.11881C78.7876 1.08481 79.0536 0.186875 79.3996 0.157875ZM72.1696 91.7318C71.9896 91.9118 71.1796 91.4778 70.7236 91.7318C69.8246 92.2328 68.4836 94.4368 67.8316 94.6238C67.2286 94.7968 66.4776 94.4408 65.9036 94.6238C65.5066 94.7508 65.2996 95.5128 64.9396 95.5878C63.7966 95.8248 62.2006 95.3378 61.0836 95.5878C60.7146 95.6708 60.5056 96.4459 60.1196 96.5519C58.8496 96.9019 58.5796 95.6748 58.1916 95.5878C57.0726 95.3378 55.4686 95.8318 54.3356 95.5878C53.2536 95.3548 51.4046 93.3418 50.4796 92.6958C50.2536 92.5378 49.7126 92.8428 49.5156 92.6958C46.5526 90.4928 45.5846 87.7578 44.2136 84.5028C44.0486 84.1118 43.4016 83.9229 43.2496 83.5389C41.8166 79.9209 41.2856 75.8548 41.3216 71.9718C41.3376 70.2928 40.7696 68.3029 42.2856 67.1519C42.7576 64.3509 40.4926 66.5939 40.3576 67.1519C39.0206 72.6659 35.4006 78.5349 34.5736 83.5389C34.3296 85.0129 34.7986 86.8598 34.5736 88.3588C34.5186 88.7218 33.6456 88.9739 33.6096 89.3229C33.3236 92.0889 33.2226 98.2468 33.6096 100.89C33.6616 101.248 34.4986 101.48 34.5736 101.854C34.9406 103.689 35.0516 105.78 35.5376 107.638C37.3816 110.907 39.5656 114.468 42.7676 116.795C42.9676 116.94 43.5016 116.639 43.7316 116.795C44.3886 117.242 45.2096 118.594 45.6596 118.723C46.2626 118.896 47.0146 118.54 47.5876 118.723C47.9756 118.847 48.1726 119.576 48.5516 119.687C49.3246 119.913 50.5506 119.509 51.4436 119.687C51.8176 119.762 52.0496 120.599 52.4076 120.651C54.3066 120.929 59.1836 120.929 61.0836 120.651C61.4406 120.599 61.6736 119.762 62.0476 119.687C66.2516 118.846 69.4816 117.984 73.6146 116.795C74.2476 116.613 79.2206 112.776 80.3626 111.975C87.2456 107.146 91.0507 102.305 93.3757 94.1419C93.4867 93.7519 94.2637 93.5429 94.3397 93.1779C94.5747 92.0439 94.1287 90.4998 94.3397 89.3218C94.4057 88.9528 95.2496 88.7178 95.3036 88.3578C95.4796 87.1718 95.4796 84.7239 95.3036 83.5379C95.2506 83.1779 94.4047 82.9419 94.3397 82.5739C94.1317 81.3919 94.5817 79.8388 94.3397 78.7178C94.2927 78.5008 92.5406 75.0559 92.4116 74.8619C91.9376 74.1469 88.7376 70.9188 88.0736 70.5238C87.8656 70.4008 87.4086 70.6598 87.1096 70.5238C86.6916 70.3338 86.4886 69.6369 86.1456 69.5599C83.4986 68.9669 81.7086 70.4798 79.3976 70.5238L76.0236 73.8979C76.1266 76.2579 77.4886 77.8999 76.9876 80.6459C76.9206 81.0109 76.1076 81.2319 76.0236 81.6099C75.8286 82.4829 76.2526 83.7199 76.0236 84.5019C75.9126 84.8819 75.1836 85.0779 75.0596 85.4659C74.8766 86.0389 75.2326 86.7908 75.0596 87.3938C74.8726 88.0458 72.6686 89.3868 72.1676 90.2858C71.9156 90.7418 72.3496 91.5518 72.1696 91.7318Z" fill="white"/>
</svg>
