<svg width="19" height="18" viewBox="0 0 19 18" fill="none" xmlns="http://www.w3.org/2000/svg">
<path d="M14.1609 3.59539C14.3129 3.52212 14.4716 3.35527 14.5797 3.22528C14.9506 2.77893 15.2722 2.1914 15.6266 1.74493C15.7272 1.61824 15.9738 1.36012 16.0978 1.26907C16.1195 1.25317 16.1775 1.28629 16.2025 1.26907C16.2739 1.22004 16.3631 1.07173 16.4119 1.05758C16.4774 1.0386 16.559 1.07765 16.6213 1.05758C16.6648 1.04354 16.6876 0.958742 16.726 0.951831C16.8963 0.921117 17.498 0.921117 17.6684 0.951831C17.7067 0.958742 17.7296 1.04354 17.7731 1.05758C17.8353 1.07765 17.917 1.0386 17.9825 1.05758C18.0314 1.07173 18.1205 1.22004 18.1919 1.26907C18.2169 1.28629 18.2749 1.25317 18.2966 1.26907C18.3892 1.33697 18.5958 1.54573 18.6631 1.63919C18.6788 1.66113 18.6461 1.71959 18.6631 1.74493C18.7116 1.817 18.8585 1.90707 18.8725 1.95643C18.8913 2.02258 18.8526 2.10506 18.8725 2.16792C18.8864 2.2118 18.9703 2.23495 18.9772 2.27367C19.0076 2.44567 19.0076 3.05328 18.9772 3.22528C18.9702 3.26455 18.8845 3.28802 18.8725 3.33103C18.8533 3.39959 18.8951 3.48526 18.8725 3.54252C18.7264 3.91318 18.2752 4.384 18.0348 4.70562C15.817 7.67454 13.4516 10.4693 11.1248 13.3763C10.2232 14.5028 9.3497 15.7621 8.40258 16.8657C8.06044 17.2644 7.72156 17.5453 7.30329 17.7645C7.23605 17.7997 7.02556 17.9681 6.98917 17.976C6.8433 18.0078 5.98177 18.0082 5.83753 17.976C5.7993 17.9674 5.77736 17.8881 5.73283 17.8702C5.66266 17.842 5.46227 17.7936 5.41871 17.7645C5.32063 17.699 4.90801 17.282 4.84284 17.1829C4.82796 17.1602 4.85924 17.1051 4.84284 17.0771C4.8008 17.0052 4.64581 16.8056 4.63343 16.7599C4.60964 16.6717 4.65428 16.5384 4.63343 16.4426C4.62441 16.4013 4.536 16.3769 4.52872 16.3369C4.51135 16.2409 4.51135 16.0099 4.52872 15.9139C4.536 15.8739 4.6243 15.8495 4.63343 15.8082C4.67427 15.6229 4.67883 15.565 4.73813 15.3852C5.01076 14.5583 5.38352 13.8153 5.78507 13.0589C5.93713 12.7723 6.15284 12.4949 6.20389 12.1601L5.57566 12.8475C5.16173 13.641 4.35244 14.3718 3.9005 15.1738C3.65275 15.6135 3.64862 16.2397 3.37697 16.6541C3.32256 16.7371 3.09545 16.962 3.01051 17.0243C2.98879 17.0402 2.93079 17.007 2.90581 17.0243C2.83445 17.0733 2.74527 17.2216 2.6964 17.2357C2.6309 17.2547 2.54922 17.2157 2.48699 17.2357C2.44354 17.2498 2.42073 17.3346 2.38228 17.3415C2.21784 17.3711 1.48686 17.3753 1.33534 17.3415C1.29711 17.3329 1.27517 17.2536 1.23064 17.2357C1.16048 17.2076 0.960082 17.1591 0.916528 17.13C0.808022 17.0575 0.307958 16.5523 0.235946 16.4426C0.221066 16.4199 0.252347 16.3649 0.235946 16.3369C0.196193 16.2689 0.0339251 16.0541 0.0265393 16.0197C-0.0109328 15.8447 -0.00669678 14.9393 0.0265393 14.7508C0.0334906 14.7115 0.119078 14.6881 0.131243 14.6451C0.470446 13.4419 1.48621 12.2604 2.22522 11.2614C4.59487 8.05815 7.22074 4.71045 9.86822 1.74471C10.2907 1.27138 10.9858 0.553525 11.491 0.31724C11.58 0.275666 11.8513 0.118035 11.9099 0.105749C12.0904 0.0679039 12.3163 0.188677 12.4334 0L13.3756 0.211495C13.586 0.433519 13.8633 0.525115 14.0562 0.793102C14.0719 0.815042 14.0391 0.873618 14.0562 0.898848C14.1047 0.970918 14.2516 1.06098 14.2656 1.11034C14.2844 1.17649 14.2457 1.25887 14.2656 1.32184C14.2791 1.3644 14.3582 1.3859 14.3703 1.42758C14.3948 1.51238 14.3509 1.64687 14.3703 1.74482C14.3784 1.78585 14.4694 1.8113 14.475 1.85057C14.5379 2.28475 14.3518 2.60287 14.3703 3.01368L14.1609 3.59539Z" fill="#FFCA24"/>
</svg>
