<svg width="222" height="227" viewBox="0 0 222 227" fill="none" xmlns="http://www.w3.org/2000/svg">
<path d="M153.645 166.028C153.543 166.896 153.805 167.946 153.645 168.742C151.006 181.847 146.161 194.456 142.016 207.503C139.314 212.219 137.135 220.203 132.326 223.395C132.047 223.581 127.934 225.665 127.675 225.721C126.774 225.916 125.519 225.549 124.574 225.721C124.351 225.762 123.762 226.956 122.249 226.496C121.93 226.4 121.76 225.773 121.473 225.721C120.529 225.549 119.286 225.911 118.372 225.721C118.083 225.66 117.916 225.048 117.597 224.946C117.136 224.798 116.531 225.085 116.046 224.946C115.685 224.842 115.024 223.755 114.496 223.395C112.552 222.074 110.313 220.457 108.681 218.356C108.56 218.199 108.809 217.751 108.681 217.581C101.771 208.354 97.7006 196.174 93.9521 185.796C90.2269 175.482 86.0691 164.487 83.0991 154.012C82.7686 152.844 82.7582 150.694 82.3239 149.36L78.8352 146.647C78.4033 146.475 77.7631 146.806 77.2846 146.647C57.7389 140.125 37.9357 133.836 18.3682 127.266C15.2101 126.206 10.0872 125.092 7.51528 123.389C6.76334 122.892 2.10933 118.262 1.70079 117.576C1.02122 116.433 1.21023 114.577 0.150267 113.699C0.483214 111.388 -0.316181 108.055 0.150267 105.947C0.212996 105.664 0.794439 105.502 0.925527 105.172C1.1491 104.608 1.45309 103.281 1.70079 102.846C1.99835 102.324 2.85885 101.853 3.25131 101.296C5.50151 98.1015 5.8023 98.1755 9.06502 96.2567C14.3624 93.1419 20.1038 91.0437 25.3449 89.28C39.6873 84.4531 54.0708 81.3199 67.9822 76.8765C68.8411 76.6023 69.8987 77.1845 70.6957 75.7136V74.9383C70.6096 74.6263 69.9791 74.4558 69.9204 74.1631C67.6043 62.6909 65.2993 51.5412 62.9438 40.0537C61.7479 34.2215 59.6143 27.454 59.0675 21.4481C58.7096 17.5162 58.9798 12.937 60.618 9.81987C61.9835 4.5096 65.818 2.425 70.308 0.129759C72.7062 0.41767 75.8016 -0.273155 78.0599 0.129759C78.3478 0.181229 78.5199 0.814946 78.8352 0.905019C83.1032 2.121 83.8961 2.89229 87.3623 5.55668C100.686 15.7968 110.834 30.7263 121.085 43.1548C122.923 45.3841 124.986 47.5659 126.899 49.7437C138.848 38.7573 148.861 25.6236 161.008 14.8591C163.756 12.4239 167.957 8.89095 171.086 7.10719C173.043 5.99094 174.528 5.98774 176.512 5.55668C176.816 5.49073 177.002 4.82323 177.288 4.78142C178.471 4.60851 181.582 4.57956 182.714 4.78142C183.002 4.83289 183.174 5.4666 183.489 5.55668C183.985 5.69822 184.605 5.39664 185.04 5.55668C185.34 5.66766 185.493 6.18718 185.815 6.33193C186.305 6.5531 187.814 6.89086 188.141 7.10719C188.867 7.58812 191.922 10.6434 192.405 11.3712C192.515 11.5376 192.283 11.9414 192.405 12.1464C192.753 12.7359 193.774 13.9816 193.955 14.4722C194.116 14.9065 193.815 15.5258 193.955 16.0228C194.045 16.3381 194.679 16.5102 194.731 16.7981C195.049 18.5867 194.968 24.176 194.731 26.1005C194.464 28.2598 192.98 31.6841 192.405 33.8523C188.088 50.1394 181.619 66.8752 173.799 82.691L173.024 86.5673C174.235 87.9208 175.722 89.0661 176.9 90.4437C189.807 105.535 203.154 121.86 214.111 137.732C215.918 140.35 220.223 146.184 221.087 149.36C221.263 150.007 220.934 150.982 221.087 151.686C221.153 151.99 221.821 152.175 221.862 152.461C222.046 153.717 222.046 156.633 221.862 157.888C221.821 158.174 221.154 158.359 221.087 158.663C220.934 159.366 221.263 160.343 221.087 160.989C221.006 161.286 220.428 161.444 220.312 161.764C218.459 166.886 215.919 168.804 211.397 171.454C209.904 171.845 208.221 171.935 206.746 172.23C206.445 172.29 206.258 172.963 205.97 173.005C202.161 173.562 192.975 173.336 188.915 173.005C179.374 172.228 165.685 169.158 156.356 166.803C155.965 166.705 155.11 165.456 153.645 166.028ZM110.232 71.4513C110.087 71.3065 110.436 70.6551 110.232 70.2884C109.437 68.8609 106.146 66.4433 104.805 64.8614C101.15 60.5508 97.358 55.1915 93.9521 50.9075C93.4044 50.219 92.4772 49.229 91.6263 48.9693L92.4016 54.0085C94.9421 62.5927 96.5376 71.5799 98.6029 80.366C100.247 83.3079 103.568 85.5364 104.805 88.8932C104.965 89.3283 104.663 89.9475 104.805 90.4437C104.895 90.759 105.529 90.9311 105.58 91.219C105.73 92.0594 105.73 94.2549 105.58 95.0953C105.529 95.3832 104.894 95.5553 104.805 95.8706C104.664 96.3684 104.966 96.9869 104.805 97.4212C104.623 97.9117 103.603 99.1575 103.255 99.7469C103.133 99.952 103.365 100.356 103.255 100.522C102.776 101.244 100.513 103.467 99.7658 104.011C99.605 104.128 99.1755 103.885 98.9905 104.011C98.4622 104.37 97.8019 105.458 97.44 105.561C96.9551 105.701 96.351 105.414 95.8894 105.561C95.5677 105.664 95.3988 106.286 95.1141 106.337C93.944 106.546 92.4249 106.14 91.2378 106.337C90.9411 106.386 90.7207 107.112 90.4626 107.112C90.2044 107.112 89.9841 106.386 89.6873 106.337C88.5019 106.14 86.9216 106.576 85.8109 106.337C85.6364 106.299 82.8587 104.886 82.7099 104.786C81.4352 103.935 80.4749 102.289 78.8335 101.685H77.283C76.5431 102.993 75.2419 102.189 74.1819 102.46C66.755 104.362 59.4301 107.401 51.7008 108.662L49.7626 110.213L58.6773 112.539C70.0313 116.922 81.4473 119.852 92.7868 124.167C93.9682 124.617 96.1934 124.886 97.4383 125.718C98.5385 126.453 99.2688 127.231 100.539 128.043C101.683 128.774 101.529 129.736 101.702 129.982C102.284 130.805 103.485 131.493 104.028 132.307C105.347 134.285 105.625 137.043 106.354 139.285C110.928 153.346 114.545 167.365 120.308 181.147L121.471 184.636C123.202 183.645 122.323 182.295 122.634 181.147C125.256 171.472 127.826 161.48 130.386 151.688C130.696 150.501 130.676 148.257 131.161 147.037C131.407 146.42 133.149 143.612 133.487 143.161C134.072 142.381 136.227 140.168 136.975 139.672C137.302 139.456 138.81 139.118 139.301 138.897C139.623 138.752 139.776 138.233 140.077 138.122C140.512 137.962 141.131 138.264 141.627 138.122C141.942 138.032 142.114 137.398 142.402 137.347C143.872 137.084 148.616 137.121 150.154 137.347C151.901 137.602 155.233 139.183 157.132 139.672C166.132 141.993 174.794 143.767 184.264 145.099C184.49 145.131 187.144 147.425 186.978 144.712C185.356 142.65 183.109 140.51 181.551 138.51C172.369 126.713 162.021 114.849 152.868 102.85C151.083 100.509 147.74 97.0206 146.666 94.3225C146.421 93.7089 147.077 92.6119 145.89 91.9967V81.919C148.566 75.4772 151.218 68.7692 154.417 62.5381L155.58 58.2741L140.851 73.0034C138.298 73.9105 135.663 76.7101 133.099 77.655C132.448 77.8955 131.395 77.2481 130.773 78.4303C124.621 78.8718 121.132 78.4568 116.044 75.3292C114.132 74.1542 112.69 72.1767 111.392 71.4529C111.028 71.247 110.377 71.5961 110.232 71.4513Z" fill="white"/>
</svg>
