<svg width="169" height="253" viewBox="0 0 169 253" fill="none" xmlns="http://www.w3.org/2000/svg">
<path d="M109.057 58.5103C110.155 58.782 110.218 58.2687 110.838 57.7983C117.409 52.8167 123.508 43.9538 130.067 38.5786C130.945 38.7883 132.313 37.3195 132.916 37.1549C133.51 36.9932 134.408 37.2967 135.053 37.1549C135.331 37.0936 135.496 36.4925 135.765 36.443C137.996 36.0361 139.383 37.3639 141.462 37.1549L148.229 43.9169C148.166 46.1692 149.376 47.8861 148.941 50.323C148.894 50.5874 148.312 50.7454 148.229 51.0349C148.099 51.4905 148.376 52.0591 148.229 52.4586C147.99 53.1062 146.709 54.2907 146.804 55.3061L118.316 85.2032C119.407 85.7666 118.803 86.782 119.028 87.3388C120.623 91.2821 121.926 94.8843 123.302 98.7279C123.452 99.1474 124.391 99.3357 124.014 100.508C125.047 100.014 126.128 98.8911 126.863 98.0161C131.548 92.4341 137.531 86.2436 142.532 80.9326C144.932 78.3828 149.132 73.9454 152.146 72.7469C152.532 72.5933 153.109 72.8776 153.571 72.7469C153.86 72.6649 154.018 72.0823 154.283 72.035C155.258 71.8608 159.077 71.8357 159.98 72.035C160.24 72.0926 160.389 72.6265 160.692 72.7469C163.052 73.6847 165.184 74.5628 166.746 76.6622C166.596 77.5978 167.898 78.7749 168.17 79.5096C168.318 79.9084 168.041 80.4763 168.17 80.9335C168.252 81.2229 168.835 81.381 168.883 81.6453C169.039 82.5226 169.039 85.0392 168.883 85.9165C168.835 86.1801 168.253 86.3381 168.17 86.6283C168.04 87.084 168.317 87.6527 168.17 88.0522C168.068 88.3283 167.591 88.4687 167.458 88.764C165.8 92.4489 164.264 93.0507 161.761 95.8827C157.145 101.101 151.617 107.231 146.804 112.254C142.396 116.856 137.708 121.201 133.272 125.779V127.203C134.352 127.781 133.772 128.693 133.985 129.338C134.194 129.973 135.184 131.538 135.409 132.186C143.881 156.602 152.714 179.108 161.761 202.657C162.421 204.375 164.312 207.386 164.61 209.063C165.014 211.34 164.319 214.479 164.61 216.893C164.067 218.025 163.091 218.857 162.473 219.741C162.356 219.908 162.581 220.307 162.473 220.453C162.03 221.048 160.555 222.563 159.98 222.944C159.827 223.045 159.456 222.833 159.268 222.944C158.784 223.23 157.44 224.284 157.131 224.368C156.533 224.531 155.628 224.219 154.994 224.368C154.505 224.484 153.909 225.492 152.145 225.08C151.868 225.015 151.712 224.434 151.433 224.368C150.801 224.218 149.896 224.531 149.296 224.368C149.024 224.294 148.879 223.763 148.584 223.656C146.397 222.862 144.68 221.656 143.242 219.741C142.019 218.112 141.765 216.339 141.106 214.758C132.347 193.757 124.065 172.598 116.178 151.405C115.747 150.245 115.095 148.848 114.754 147.846C114.573 147.315 115.174 146.143 114.398 146.066L90.5389 171.336C91.6132 171.918 91.0435 172.799 91.2511 173.471C97.2033 192.77 104.898 211.844 111.193 231.129C111.747 232.826 113.152 236.542 113.329 237.535C113.529 238.653 113.557 243.623 113.329 244.653C113.272 244.913 112.738 245.062 112.617 245.365C112.407 245.892 112.138 247.078 111.905 247.501C111.635 247.991 110.755 248.431 110.48 248.924C110.293 249.261 110.613 249.859 110.48 249.992C110.347 250.125 109.749 249.805 109.412 249.992C108.748 250.362 107.757 251.99 107.275 252.128C106.83 252.256 106.274 251.993 105.851 252.128C105.555 252.222 105.399 252.793 105.139 252.84C104.02 253.039 99.0475 253.067 98.0168 252.84C97.7567 252.782 97.6075 252.248 97.3046 252.128C96.8273 251.938 95.4641 251.612 95.1678 251.416C94.5006 250.974 91.6937 248.168 91.2504 247.501C90.4865 246.35 90.2412 244.319 89.8259 243.229C83.4977 226.607 78.6782 210.128 72.7327 194.113C72.3389 193.054 71.8151 192.106 72.0205 190.91C70.9225 190.639 70.8597 191.151 70.2398 191.622C64.731 195.8 58.5823 203.298 54.215 208.35C53.1851 209.541 52.1736 210.964 51.366 211.909C50.5947 212.812 49.0593 214.46 48.1609 215.113C48.0131 215.22 47.6186 214.997 47.4486 215.113C46.9632 215.443 46.3566 216.441 46.0242 216.537C45.5786 216.664 45.0237 216.401 44.5996 216.537C44.3041 216.631 44.1489 217.202 43.8874 217.248C42.7688 217.448 37.7964 217.476 36.7657 217.248C36.5056 217.191 36.3564 216.657 36.0534 216.537C35.5761 216.347 34.2129 216.02 33.9167 215.825C33.429 215.502 30.0761 212.175 29.9993 211.909C29.8641 211.44 30.1648 210.842 29.9993 210.486C29.7932 210.043 28.6302 208.606 28.5748 208.35C28.3761 207.431 28.399 203.64 28.5748 202.655C28.6221 202.391 29.205 202.233 29.2871 201.943C29.4178 201.482 29.1334 200.905 29.2871 200.519C30.4729 197.541 33.5997 195.089 35.6965 192.69C35.8155 192.553 35.5805 192.108 35.6965 191.978C44.0034 182.613 54.2638 174.211 62.7605 164.928L62.0483 161.369C60.1627 158.311 59.2488 154.607 58.487 151.403L56.7064 148.2L42.106 162.793C36.0527 169.513 29.621 176.785 23.5883 183.435C21.968 185.222 20.6987 186.14 18.9587 187.351C18.276 187.826 16.9106 189.313 16.1097 189.486C15.2726 189.666 14.0875 189.301 13.2607 189.486C12.9741 189.551 12.7746 190.457 11.8362 190.198C11.551 190.12 11.3966 189.548 11.124 189.486C10.2965 189.301 9.10621 189.669 8.27501 189.486C8.01493 189.429 7.86567 188.895 7.56274 188.774C7.08545 188.585 5.72228 188.258 5.426 188.062C4.11085 187.193 2.84964 185.168 1.50863 184.147C0.409231 181.45 -0.241677 178.903 0.0841546 175.606C1.171 175.035 0.57548 174.069 0.796395 173.47C1.66454 171.115 3.51978 169.683 5.06914 167.775C14.2759 156.444 26.1839 144.333 36.4059 133.607C40.3387 129.48 44.5531 125.609 48.5133 121.506L47.8011 117.947C42.5213 103.686 39.4114 89.1008 34.9813 75.237C33.958 72.0343 31.5871 69.7887 30.7078 66.6953C30.1589 64.7635 30.2941 62.2719 29.9956 60.2885C29.955 60.0204 29.31 59.8343 29.2834 59.5766C29.1275 58.0687 29.0373 54.5499 29.2834 53.1697C29.3203 52.9622 30.4928 52.1514 29.9956 51.0342C30.5387 49.9028 31.5125 49.0713 32.1324 48.1866C32.2506 48.0182 32.0252 47.6165 32.1324 47.4748C33.6876 45.4241 36.1583 45.0991 38.1865 43.5595C39.9649 43.7692 42.2117 43.2611 43.8837 43.5595C44.0913 43.5964 44.9026 44.7683 46.0205 44.2713C46.9573 45.2874 49.9046 46.2977 50.6501 47.4748C51.0904 48.1704 51.7059 48.9783 52.0746 49.6104C53.847 52.6484 54.6583 56.3909 55.6358 59.5759C59.6869 72.7861 63.2799 85.7312 67.0311 99.4384L68.0994 101.218L90.5338 78.0838C89.4595 77.5011 90.0291 76.6208 89.8215 75.9481C88.7893 72.6007 87.3959 68.8272 86.2603 65.2708C82.1811 52.497 77.3047 38.4649 74.865 25.4083C74.2185 21.9479 73.5115 14.0545 74.1528 10.4597C74.2001 10.1961 74.7823 10.0381 74.865 9.74786C75.0992 8.92965 75.1029 7.80428 75.5773 6.90041C76.622 6.45143 76.7964 5.04174 77.0018 4.76482C78.8127 2.32349 81.3403 1.76375 83.7674 0.137673C85.8908 0.443393 88.9526 -0.289892 90.8891 0.137673C91.1492 0.195272 91.2984 0.729167 91.6013 0.849535C92.0786 1.03932 93.4426 1.36571 93.7381 1.5614C94.3233 1.94835 97.3341 4.93687 97.6555 5.47669C97.7478 5.63102 97.5543 5.96996 97.6555 6.18855C97.7914 6.48171 98.2569 6.62201 98.3677 6.90041C98.5214 7.28588 98.2362 7.86334 98.3677 8.32413C98.4505 8.61435 99.0327 8.77163 99.08 9.036C99.3083 10.315 99.213 13.3257 99.08 14.7303C98.8073 17.6154 98.4778 17.0364 99.08 20.4252C101.134 31.9798 104.608 42.4821 107.626 53.8809L109.057 58.5103ZM99.7989 104.068L76.2962 127.202C75.8366 128.868 76.8451 129.484 77.0084 130.05C78.2016 134.188 79.502 137.983 80.5697 142.151L82.3503 145.354L105.497 120.084L102.648 111.542C101.064 109.958 101.121 107.556 100.511 105.847C100.362 105.429 99.4206 105.239 99.7989 104.068Z" fill="#FFCA24"/>
</svg>
