<svg width="80" height="80" viewBox="0 0 80 80" fill="none" xmlns="http://www.w3.org/2000/svg">
<path d="M0 40C0 17.9086 17.9086 0 40 0C62.0914 0 80 17.9086 80 40C80 62.0914 62.0914 80 40 80C17.9086 80 0 62.0914 0 40Z" fill="#498ACA"/>
<path fill-rule="evenodd" clip-rule="evenodd" d="M36.5194 29.4811C37.8253 34.7379 43.8946 33.2054 43.7563 28.4119C43.5024 27.1617 42.371 26.7818 41.1702 27.0391C40.9433 27.103 40.7439 27.0299 40.6607 27.1048C40.476 27.271 40.3685 27.1792 40.3055 27.2817C40.2578 27.3593 40.1994 27.3159 40.1841 27.3482C40.1588 27.4078 40.1204 27.4209 40.0798 27.4462C40.3683 27.7471 40.1283 27.7501 40.6661 28.003C40.846 28.0852 41.4391 28.2887 41.5323 28.3363C42.9151 28.6005 40.9335 31.204 40.0436 31.0813C38.8593 30.9837 37.9841 29.8421 37.8881 28.7031C37.9468 27.9033 39.5494 27.941 39.9845 27.538C39.9711 27.5024 39.8813 27.5311 39.9324 27.4291C39.9604 27.3731 39.9603 27.4023 39.9208 27.3625C39.9853 27.3376 40.0538 27.3268 40.0799 27.2829C38.4165 26.4805 35.9929 27.1185 36.5194 29.4811ZM57.3638 47.6021C56.8121 46.9814 55.6316 47.1531 54.823 47.2874C54.6435 47.4527 54.5306 47.3635 54.4678 47.4643C54.4174 47.5451 54.3614 47.4959 54.3465 47.5322C54.3212 47.5905 54.2813 47.6034 54.2422 47.6289C54.5458 47.9315 54.2446 47.897 54.8278 48.1858C55.0033 48.2657 55.6088 48.4739 55.694 48.5198C57.0778 48.7827 55.0974 51.3834 54.2066 51.2655C53.0733 51.2178 52.0776 49.9272 52.0498 48.8866C52.1085 48.0886 53.7075 48.1229 54.1455 47.7221C54.1338 47.6915 54.0416 47.7106 54.0947 47.6117C54.1079 47.5873 54.1359 47.5905 54.0831 47.5452C54.1439 47.5234 54.2165 47.5073 54.2422 47.4657C49.7374 45.4867 49.7513 51.6905 53.2674 52.8421C55.9164 53.8711 59.3534 49.8356 57.3638 47.6021ZM50.5604 59.819C50.5511 59.6764 50.5911 59.7228 50.5103 59.7065C50.5541 59.6692 50.655 59.5942 50.6667 59.5392C42.6951 62.5076 37.4317 61.9083 29.4156 59.6827C32.4364 65.0684 47.2833 64.1042 50.5604 59.819ZM17.6864 34.7491C17.7052 34.9276 17.8497 35.8017 17.914 35.9108C17.964 35.9956 17.964 35.8411 18.0669 35.9128C18.0908 35.9295 18.0862 35.9502 18.1348 35.9156L18.1876 36.0548C18.5003 35.9524 18.3503 35.7251 18.5166 35.5514C19.6358 31.9101 21.724 28.4372 23.7278 25.1793C23.6996 24.9675 23.829 24.9556 23.7875 24.8516C23.7546 24.769 23.8202 24.7666 23.8032 24.7349C23.7737 24.6787 23.7861 24.6478 23.7881 24.6068C20.8085 23.9686 17.662 32.2693 17.6864 34.7491ZM57.1264 26.3518C59.2308 29.123 60.356 32.5019 61.7079 35.6356C61.8981 35.7435 61.8263 35.8481 61.9356 35.8784C62.0206 35.9018 61.985 35.9563 62.0207 35.9613C62.0831 35.9709 62.101 35.999 62.1332 36.0257C64.5436 34.1183 59.0038 24.9131 56.4914 24.599C56.4731 24.6313 56.5433 24.6628 56.4393 24.7053C56.3702 24.7335 56.4089 24.7103 56.3954 24.7574C56.3405 24.7343 56.298 24.704 56.2527 24.7177C56.1448 25.0118 56.4238 25.0558 56.4626 25.282C56.4164 25.3757 56.6422 25.4125 56.6826 25.5419C56.7512 25.7613 57.0968 26.1571 57.0818 26.225C57.0647 26.2901 57.0902 26.3245 57.1264 26.3518ZM45.4102 23.4785C45.5178 23.1568 45.346 22.9505 45.2985 22.5891C45.1792 22.3355 45.2655 22.1704 45.1373 21.9376C45.1184 21.9286 45.1737 21.9347 45.1388 21.9081C45.0827 21.8655 45.2351 21.728 44.7033 21.5097C44.4998 21.417 44.507 21.3797 44.2519 21.4123C44.1329 21.3526 43.9407 21.4319 44.001 21.4637L43.9119 21.5117C43.9906 21.5981 43.9332 21.5249 43.8495 21.6749C43.8495 21.6749 43.84 21.7283 43.8055 21.7346C43.719 21.7503 43.774 21.7569 43.7679 21.7743C43.7025 22.0073 43.7272 22.0898 43.6191 22.3957C43.5682 22.5398 43.5348 22.5476 43.5855 22.6994C43.5896 22.7138 43.5971 22.7275 43.591 22.7426C43.5786 22.7666 43.6266 22.7899 43.5958 22.8146L43.6321 23.3789C43.5935 23.5657 43.6752 23.5421 43.7007 23.6457C43.8497 23.7223 43.7679 23.7221 43.8343 23.7369C43.8887 23.7489 43.8433 23.8077 43.929 23.8576C43.9909 23.8937 43.921 23.9264 43.9949 23.9405C44.2284 24.044 44.5514 24.0588 44.8919 23.9398C45.6336 23.6372 45.2387 23.6446 45.4102 23.4785ZM20.9513 45.0608C21.8193 45.3549 22.7878 44.8622 22.3104 43.9361C22.2374 43.6887 22.2279 43.423 22.124 43.1606C22.106 43.1526 22.16 43.1558 22.126 43.1325C22.1043 43.1176 22.111 42.9755 22.0108 42.9171C21.3003 42.5028 21.3708 42.7159 21.2105 42.6463C21.142 42.6165 20.9211 42.6717 20.9883 42.7079C21.021 42.7257 20.8986 42.7539 20.8991 42.7546C20.976 42.8598 20.9348 42.7391 20.8367 42.911L20.7935 42.9665C20.7065 42.9818 20.7604 42.989 20.7537 43.0049L20.6529 43.4672C20.583 43.7204 20.5274 43.7001 20.5726 43.8868C20.5767 43.9012 20.5842 43.9149 20.5774 43.9286C20.5665 43.9505 20.6138 43.9738 20.5829 43.9965L20.6193 44.5341C20.5637 44.6422 20.6687 44.7141 20.6879 44.7892C20.7188 44.8043 20.773 44.818 20.7558 44.8337C20.7616 44.8395 20.8716 44.8941 20.8662 44.9428C20.8608 44.9911 20.9391 44.9552 20.9513 45.0608ZM29.5185 43.4218C29.3229 43.7987 29.461 44.131 29.4705 44.5341C29.4143 44.6348 29.5203 44.7223 29.5397 44.7892C29.6591 44.8449 29.6212 44.865 29.6721 44.8763C29.929 45.3305 31.072 45.227 31.2473 44.6296C31.3514 44.2497 31.1708 43.9851 31.0814 43.6729C31.0764 43.3606 31.0466 43.3784 30.975 43.1606C30.9561 43.1517 31.0119 43.1564 30.9764 43.1325C30.983 42.9577 30.6641 42.7541 30.2666 42.6497C30.2039 42.6757 29.7897 42.5952 29.8386 42.708C29.8408 42.7091 29.8366 42.7407 29.7851 42.7444C29.6902 42.7514 29.8274 42.7885 29.7775 42.8116C29.7043 42.8458 29.6852 42.9597 29.6432 42.9665C29.5601 42.9801 29.6101 42.9893 29.6055 43.0049L29.5185 43.4218ZM57.8417 43.478C57.78 43.7144 57.6827 43.7815 57.7464 43.9764C57.7937 44.2251 57.6998 44.8648 57.9309 44.99C57.9309 44.9925 58.0454 45.0525 58.0406 45.1072C58.0362 45.1579 58.1174 45.1256 58.1262 45.2333C59.9279 45.5969 59.6807 44.4669 59.2989 43.1973C59.2817 43.1889 59.3362 43.1905 59.2996 43.1665C59.2808 43.1541 59.2856 42.9997 59.1851 42.9368C58.4934 42.5032 58.5552 42.7156 58.3848 42.6473C58.3049 42.6153 58.0973 42.6755 58.1633 42.7132C58.1633 42.7132 58.1615 42.7472 58.1092 42.7516C58.0126 42.7598 58.1517 42.798 58.1016 42.8243C58.023 42.8655 58.009 42.9824 57.9672 42.9903C57.8826 43.0062 57.9345 43.012 57.9288 43.0315C57.9015 43.0407 57.8529 43.459 57.8417 43.478ZM49.2744 45.2336C50.9982 45.6848 50.8503 44.3716 50.4471 43.1975C50.4329 43.1906 50.4832 43.188 50.4498 43.1667C50.4266 43.1518 50.4359 43.0002 50.3339 42.937C49.6228 42.4955 49.71 42.7201 49.5344 42.6476C49.4583 42.6161 49.2491 42.6729 49.3121 42.7135C49.342 42.7328 49.2225 42.7622 49.2229 42.7629C49.3012 42.8514 49.2446 42.7757 49.1606 42.9296C49.1604 42.9297 49.1498 42.9842 49.1166 42.9907C49.0293 43.0076 49.0844 43.0122 49.0775 43.0318C49.0148 43.2592 49.0385 43.3551 48.93 43.6654C48.8789 43.8117 48.8457 43.8226 48.8958 43.9767C48.9006 43.9911 48.9082 44.0055 48.9014 44.0199C48.8897 44.0452 48.9377 44.0686 48.9069 44.0939C48.9142 44.6528 48.9089 44.845 49.2744 45.2336ZM35.045 23.9168C35.9618 24.2497 36.8736 23.7347 36.4343 22.7737C36.3619 22.4941 36.3739 22.2287 36.2711 21.9549C36.2513 21.9452 36.3071 21.9531 36.2732 21.9254C36.2775 21.7379 35.9926 21.5314 35.577 21.3994C35.5061 21.4248 35.1056 21.3301 35.1478 21.4502C35.1502 21.4516 35.1406 21.4835 35.0937 21.4865C34.9972 21.4927 35.1353 21.5336 35.0841 21.5572C35.0128 21.6087 34.9751 21.7121 34.9456 21.7156C34.861 21.7258 34.9121 21.7394 34.9059 21.7547C34.8682 22.0368 34.6344 22.5329 34.7076 22.7902L34.7276 23.3546C34.6838 23.5355 34.7645 23.5197 34.79 23.6248C34.9349 23.7071 34.8577 23.7023 34.9203 23.7195C34.974 23.7341 34.9282 23.7893 35.0107 23.8423L35.045 23.9168ZM27.9988 30.3629C25.0575 24.0532 30.3197 16.2663 37.2492 16.5423C41.7538 16.7069 46.2711 16.5277 50.7022 17.5729C44.8167 18.8884 36.8952 16.3981 31.9342 20.2209C25.7056 25.502 30.2516 35.4495 38.2571 34.633C43.6945 34.9478 48.3287 33.8499 49.7414 27.8735C49.912 26.2277 49.9718 24.5394 51.1781 23.2592C52.5585 21.7472 58.1764 19.1723 59.942 18.0529C56.6078 17.8889 54.2321 18.1413 50.7021 17.7361C50.8522 17.6911 51.373 17.6693 51.5668 17.6565C51.299 17.6062 51.399 17.6528 51.6018 17.5345C51.5154 17.4899 51.3351 17.5112 51.2232 17.4802C54.2655 17.0809 59.0357 17.0871 62.2887 16.7553L62.3079 16.8293C63.3459 16.6442 63.5913 17.7449 62.6329 18.0802L62.6501 18.1454C62.6124 18.1433 62.5761 18.1393 62.5377 18.1358C60.7876 19.1357 57.7121 20.8957 56.014 21.8595C54.0086 23.0205 51.2802 24.0338 51.4175 26.8059C51.2374 38.2771 32.1993 40.1092 27.9988 30.3629ZM66.4185 61.0965C66.4253 61.5813 66.4308 62.0648 66.4356 62.549C66.4454 63.4188 65.3608 63.77 64.8461 63.1517C63.5498 61.6479 61.9827 59.7045 60.6773 58.2478C58.084 55.5308 52.6268 57.746 49.0257 56.3303C37.9264 52.7324 41.4622 35.9721 53.0206 37.2081C53.3408 37.3406 55.4486 37.1282 56.4551 37.433C56.3187 37.4785 55.855 37.4995 55.6781 37.5125C55.9068 37.5599 55.8437 37.5133 55.6458 37.6346C57.2732 37.8249 50.2708 37.9025 49.5056 38.5701C43.9532 40.5427 41.6469 47.6097 45.6221 52.1741C51.9354 58.9377 58.935 50.746 64.6024 60.0809C63.8922 51.1883 67.985 40.5119 56.4549 37.5963C60.1899 37.0039 63.5676 39.449 65.2936 42.6099C66.5858 44.8547 66.422 47.8554 66.4085 50.3994C66.4208 52.3587 66.4049 59.0403 66.4185 61.0965ZM25.919 47.4657C21.4144 45.4851 21.4274 51.6911 24.9435 52.8421C29.0087 54.3436 32.2091 45.9893 26.4996 47.2874C26.3238 47.4506 26.2072 47.3639 26.1445 47.4644C26.0947 47.5442 26.0372 47.4966 26.0225 47.5323C25.9972 47.5906 25.9581 47.6036 25.919 47.629C26.2193 48.4312 27.455 48.2534 27.8481 48.8421C27.4596 52.0069 24.1557 51.9365 23.7258 48.8866C23.785 48.089 25.3822 48.1231 25.8222 47.7222C25.8101 47.69 25.7181 47.7137 25.7708 47.6118C25.7904 47.5738 25.8088 47.5943 25.7598 47.5454C25.8212 47.5226 25.8922 47.5079 25.919 47.4657ZM33.6207 54.9446C29.3658 58.5268 22.464 54.5403 18.9544 58.7198C18.9543 58.7197 15.3274 63.1346 15.3274 63.1346C14.7961 63.7768 13.7283 63.4196 13.7248 62.549C14.0441 54.0737 10.7117 36.1757 23.706 37.9364C12.3017 39.5883 16.1117 51.8537 15.5235 60.0713C19.5334 54.8303 20.8324 54.8165 27.1815 54.977C39.4388 55.779 39.1582 37.7021 27.1398 38.3238C26.0444 38.1945 24.788 38.3948 23.706 38.0995C33.1962 33.941 44.2764 46.6006 33.6207 54.9446Z" fill="white"/>
</svg>
