<svg width="80" height="80" viewBox="0 0 80 80" fill="none" xmlns="http://www.w3.org/2000/svg">
<path d="M0 40C0 17.9086 17.9086 0 40 0C62.0914 0 80 17.9086 80 40C80 62.0914 62.0914 80 40 80C17.9086 80 0 62.0914 0 40Z" fill="#FFCA24"/>
<path fill-rule="evenodd" clip-rule="evenodd" d="M49.0493 34.941C48.7976 35.1558 48.2892 35.6282 48.0207 35.8392C47.6246 36.1627 47.034 37.0622 46.4266 36.8599C46.2887 36.8248 45.0906 36.0615 45.0346 36.057C44.8914 35.9475 44.4242 35.6065 44.0914 35.5501C44.4521 34.9042 45.0062 33.7981 45.3731 33.1752C46.7823 35.1157 46.9109 34.9852 48.6377 33.4348C48.6428 33.414 48.6683 33.4567 48.6905 33.4022L48.7205 33.3722C48.8529 33.7651 49.0008 34.4605 49.2939 34.7694C49.202 34.8189 49.1184 34.8738 49.0493 34.941ZM43.9479 32.2099C44.0274 32.0514 44.1038 31.8915 44.1788 31.7311C43.3446 31.0183 42.5879 30.1219 41.6552 29.5231C40.6689 29.0074 39.7442 28.597 38.7695 28.015C37.4882 28.9369 35.8146 28.9287 34.503 28.0836C34.1397 28.3143 33.9688 28.3047 33.8142 28.355L32.5306 28.8598C31.579 29.3678 30.8508 30.2539 29.9736 30.818C29.8406 30.7221 30.1373 30.938 29.9364 30.7926C29.8883 30.7747 29.7825 30.8463 29.7342 30.8689C30.5876 31.5734 31.427 32.2786 32.205 33.0462C33.5866 31.4068 33.8222 35.5485 34.301 36.2637C34.3178 37.0687 34.1108 38.1606 33.6969 38.8839C34.228 39.2348 34.6048 39.6658 34.8364 40.2856C37.0899 40.1562 39.0286 40.1437 41.1419 39.4736C41.1609 39.4854 41.1765 39.4951 41.1928 39.5062C40.8269 38.4127 40.6323 36.9476 40.6437 35.8118L40.5302 33.8458C40.4966 33.2704 41.141 32.9373 41.5881 33.2451L42.9167 34.2098C43.1945 33.6853 43.6786 32.7231 43.9479 32.2099ZM41.8469 54.9232C41.9164 55.6368 42.0633 56.93 42.2109 57.6112C41.762 57.7976 40.9432 57.7856 40.5456 57.9674C40.3851 56.5375 39.8651 55.3888 39.5907 54.0316C39.322 53.1652 39.3498 51.6168 39.258 50.7122C39.8166 50.648 40.8953 50.5438 41.4672 50.4656L41.3772 50.7018L41.4868 50.6979C41.2896 50.7832 41.3751 51.0786 41.3837 51.2778C41.3762 52.4589 41.6586 53.7801 41.8469 54.9232ZM42.2918 60.3163C42.9324 61.3298 44.1825 62.0265 45.0815 62.7806C44.9632 63.2226 44.835 63.2373 44.8102 63.2862C44.7844 63.3368 44.8215 63.2727 44.7606 63.3148C43.951 63.0529 41.9307 62.4427 40.8802 62.0449C40.6389 61.2009 40.7034 59.7891 40.2377 58.9388C40.3224 58.8806 40.3622 58.789 40.3917 58.6962C40.9398 58.9171 41.4286 59.0131 42.0009 59.0791C42.0081 59.5132 42.1029 59.9044 42.2918 60.3163ZM39.0135 49.0398C38.9698 49.0437 38.9273 49.0456 38.8844 49.0502C38.5131 47.8021 38.0531 46.2996 37.7097 45.0387C37.4883 44.3486 36.5901 44.372 36.3602 44.9833C35.8312 46.3893 35.2979 47.7793 34.8018 49.1983C34.0468 49.1712 32.4981 48.9904 31.7466 48.8702C31.9019 47.4004 31.8274 45.5631 31.9469 44.093C33.6893 44.2923 35.2254 42.678 34.997 40.9594C36.776 41.4547 38.7585 41.62 40.6384 41.2974C40.9887 43.7486 41.2596 46.2876 41.3187 48.7411C40.5594 48.8864 39.7788 48.9498 39.0135 49.0398ZM34.021 50.6196C33.9228 50.73 33.8862 51.1485 33.8807 51.3148L33.8931 51.1081C33.5841 52.0596 33.4806 53.2603 33.3212 54.2312C33.2483 55.405 32.704 56.4309 32.8469 57.6536C32.6834 57.6265 32.5125 57.7326 32.3564 57.7117C31.8682 57.831 30.8801 57.6736 30.3845 57.7743C31.3562 56.7412 31.0968 54.8587 31.2736 53.5248C31.298 52.6568 31.5879 51.0454 31.5879 50.1877C32.3897 50.3337 33.258 50.4714 34.0672 50.5543C34.0548 50.5759 34.0412 50.5981 34.021 50.6196ZM32.147 59.2425C32.1309 59.9494 32.0356 60.7264 31.8899 61.4126C31.6352 62.5898 32.0428 63.3079 31.6258 63.8671C31.6049 63.8482 31.6148 63.8566 31.6258 63.8671C30.0386 64.1925 30.0329 62.3113 29.5679 61.3323C29.0087 59.6887 30.2297 59.0856 29.9084 58.1467C29.8186 58.3215 29.8133 58.1206 29.7263 58.1936L29.7426 57.9868C29.7929 58.0045 29.8046 58.026 29.8268 58.0489L30.0284 57.9798C30.4774 58.7496 31.3278 59.037 32.147 59.2152C32.147 59.2243 32.1483 59.2334 32.147 59.2425ZM31.7733 63.9996L31.7609 63.9885C31.7648 63.9931 31.768 63.9957 31.7733 63.9996ZM32.2644 34.9161C32.4393 36.5811 32.714 36.063 32.3121 37.9629C31.9623 37.3975 31.5282 36.7111 31.0604 36.0355C31.5018 35.594 31.862 35.1246 32.2462 34.6351L32.2644 34.9161ZM31.2443 41.9574C30.0544 41.215 26.4234 35.9328 26.5271 34.511C27.4096 35.1318 28.4932 35.7558 29.4063 36.2976C29.7006 36.4789 29.9013 36.682 30.2804 36.6133C30.4749 37.4508 30.9155 38.7606 31.279 39.615C31.7308 40.4181 32.1076 40.012 32.5652 40.2517C34.1828 41.1457 32.5605 43.343 31.2443 41.9574ZM29.6331 30.5726L29.5828 30.5354C29.6076 30.553 29.6298 30.5694 29.6519 30.5863C29.6456 30.5811 29.6391 30.5766 29.6331 30.5726ZM45.7671 62.3956L45.7586 62.4067C45.7578 62.4067 45.7578 62.4067 45.7566 62.4074C45.7606 62.4036 45.7638 62.3996 45.7671 62.3956ZM49.8268 15.8268C49.8171 15.8496 49.8092 15.8731 49.8008 15.8972C49.7727 15.8972 49.7472 15.8946 49.7264 15.8796C49.8009 15.7542 49.8569 15.7844 49.7244 15.7596C49.774 15.744 49.821 15.729 49.8699 15.7146C49.8556 15.7518 49.8412 15.789 49.8268 15.8268ZM49.7596 16.0075C49.7628 16.001 49.7634 15.9964 49.7655 15.9898C44.437 18.4434 38.1537 13.2303 33.6668 18.0126C39.3471 15.8576 44.0624 21.2251 49.7531 21.015C49.6166 19.3544 49.2664 17.5993 49.7596 16.0075ZM54.2772 58.2453C54.2804 53.7086 53.8547 48.317 53.4495 43.7355C53.1564 40.9429 52.9851 37.7326 52.2545 35.0623C54.1064 34.4299 53.8578 32.8196 53.1148 31.3861C52.9131 30.7976 52.5624 30.1682 51.8945 29.9778C51.887 29.9601 51.8738 29.7723 51.9232 29.7429C52.0132 29.6895 51.8606 29.484 51.8964 29.3353C51.9587 29.0773 51.907 28.4378 51.9479 28.3921C52.0359 28.537 51.8046 25.3794 51.8292 25.3669C51.6821 22.1898 51.4953 18.8145 50.6963 15.7484C50.5234 15.5962 50.6008 15.4792 50.4972 15.4294C50.4178 15.3913 50.4556 15.3308 50.4215 15.3199C50.3628 15.3016 50.3471 15.265 50.3198 15.2305C50.1374 15.4416 50.0836 15.3514 49.933 15.5821C49.4156 15.4604 48.8538 15.7212 48.3258 15.6441C48.209 15.5666 47.6132 15.7462 47.247 15.7152C46.3406 15.7082 44.9357 15.5562 44.2355 15.3655C38.5722 13.614 33.2385 13.8987 30.4145 19.8658C30.0099 20.6335 30.8738 21.5629 31.7445 20.9673C38.1234 16.0308 42.9484 23.7776 49.8418 21.6444C50.3856 24.4016 50.1054 27.2906 51.267 29.9289C50.7345 30.0624 50.5722 30.3602 50.1693 30.7051C49.8741 30.9578 50.0661 30.9109 50.0806 30.9484C50.1024 31.0052 50.0514 31.0294 50.1165 31.062C50.0752 31.1032 50.0321 31.1295 50.0278 31.1761C50.2445 31.3858 50.3944 31.1456 50.6129 31.197C50.6795 31.272 50.8029 31.0861 50.93 31.0906C50.9442 31.0911 51.361 31.0359 51.3702 31.1292C51.3798 31.2254 51.4132 31.1335 51.5457 31.272C51.6098 31.3389 51.9863 32.5645 52.0173 32.6881C52.0864 33.0565 52.2118 33.068 52.0296 33.2764C50.0692 34.4001 50.8608 33.1405 49.9163 31.9987C49.8665 31.9946 49.9134 31.9594 49.8472 31.9341C49.7987 31.9156 49.8272 31.7911 49.8113 31.6687C49.7967 31.5561 49.9056 31.5434 49.8804 31.4678C49.8299 31.3158 49.9349 31.327 49.9176 31.229C49.904 31.151 49.9542 31.171 49.9496 31.1403C49.9397 31.0816 49.9587 31.0608 49.9731 31.0268C49.3227 30.3345 48.3892 31.3593 48.4181 32.0815C48.4086 32.0846 48.3017 32.1432 48.2733 32.1213C48.2058 32.0695 48.2152 32.1199 48.1827 32.1363L47.1971 32.651C46.9146 32.3173 46.592 31.7902 46.1457 31.7059L46.1117 31.7078C46.1441 30.7168 44.9193 30.1591 44.3566 29.4829C43.0724 28.064 41.4834 27.4743 39.576 27.2731C41.4036 25.0874 39.7134 21.3404 37.0797 22.0537C37.0901 22.0912 37.1937 22.0728 37.1222 22.1672C37.076 22.2282 37.0929 22.1847 37.1241 22.2344C37.0596 22.2462 36.981 22.2482 36.9492 22.2866C37.0673 22.5528 37.413 22.4666 37.578 22.657C37.5874 22.7551 37.8432 22.7227 37.9433 22.8417C38.0243 22.9321 38.5592 23.4357 38.5376 23.5416C40.6815 27.6938 33.3249 28.403 34.8144 23.9282C35.1107 23.2686 35.4809 22.6994 36.3173 22.5116C36.3881 22.4983 36.3815 22.3832 36.6194 22.3354C36.7403 22.3112 36.7026 22.2324 36.8001 22.2324C36.8846 22.2324 36.7833 22.2192 36.9645 22.1287C36.741 21.9177 36.8376 21.8146 36.5398 21.689C33.6254 20.7822 31.7814 24.887 33.4298 27.0344C32.972 27.1135 32.0566 27.341 31.61 27.476C30.6898 28.0414 29.3291 28.7218 28.9884 29.8131C28.9188 29.9775 28.9032 30.331 28.5854 30.2325C28.5569 31.8012 29.4875 32.8096 30.5565 33.927L29.9825 34.6614C29.1785 34.2343 28.0942 33.7662 27.3213 33.2746C27.5424 33.1332 28.8687 30.1976 28.4002 30.4477C28.7742 29.4453 27.8309 30.5661 27.5223 30.9453C27.3095 31.0956 26.9273 31.623 26.8674 31.6328C26.7508 31.652 26.7624 31.7236 26.7024 31.7997C26.3072 32.4337 25.1532 33.3692 26.0013 34.084C24.6327 36.3356 29.1305 43.2766 31.3962 43.9764C31.1766 45.0694 30.9027 46.327 30.7023 47.5071C30.6933 48.2436 30.0654 49.3317 30.6123 49.8951L30.4336 50.1522C30.3354 50.178 30.358 50.2549 30.3305 50.3276C30.2375 50.5744 30.2831 50.4968 30.2352 50.6916L30.0011 51.6361C29.6145 52.7568 29.4458 54.464 29.343 55.7696C29.2641 56.0887 29.2904 56.5527 29.375 56.853C29.4219 56.8896 29.3625 56.9464 29.4213 57.003C29.469 57.0489 29.4104 57.2438 29.478 57.4178C29.5312 57.5546 29.4515 57.654 29.5204 57.7048C29.6753 57.8193 29.5833 57.8695 29.673 57.9109C29.5948 58.0153 29.567 58.1242 29.5491 58.1359C29.4125 58.2248 29.4815 58.3293 29.341 58.4776C27.9939 59.5104 27.9062 60.832 28.4456 62.4625C28.6972 63.3142 28.9088 64.5781 29.7774 65.0252C30.841 65.8026 32.5691 65.8568 33.222 64.5027C33.6524 63.7034 33.5056 62.4255 33.6153 61.7991C33.8513 60.7845 33.9844 59.5162 33.8111 58.4692C33.793 58.4056 33.83 58.5108 33.768 58.6858L33.5417 58.3792L33.588 58.2566C33.6102 58.2163 33.6705 58.2589 33.6729 58.2122C33.6887 57.8952 33.6838 58.1379 33.8868 57.7034C33.8879 57.7011 33.9432 57.5312 33.9833 57.5227C34.0737 57.5035 34.037 57.4504 34.0557 57.4033C34.7385 55.4722 35.4599 53.1691 35.5011 51.0814C35.3975 50.9493 35.371 50.8017 35.3086 50.6503C36.1944 50.6097 36.4178 48.6873 36.8303 48.0033C37.1296 48.6991 37.2274 50.7247 38.1694 50.7722C37.8662 51.1378 37.9202 52.0558 37.8999 52.5502C37.792 53.7558 37.9696 54.6972 38.2294 55.8188C38.5058 56.6112 38.6031 57.6686 39.194 58.2955C39.2573 58.3214 39.2933 58.5402 39.4314 58.6796C39.5554 58.8048 39.4872 58.9047 39.616 58.9477C39.3888 63.2635 38.8925 62.8849 43.1547 64.4612C44.446 65.1103 45.6488 65.3274 46.4414 63.91C47.077 62.783 46.9319 61.7778 45.7746 61.0892C45.5618 60.95 44.1118 59.7463 43.88 59.5596C43.7277 59.3358 43.6137 58.5078 43.5831 58.1774L43.4775 57.788C43.3708 57.5258 43.3967 57.7891 43.4148 57.5004C43.5308 57.5154 43.4163 56.066 43.4376 55.9936C43.5364 54.5028 43.2287 52.525 43.0547 50.9953L42.9875 50.782C42.9699 50.71 43.0151 50.7414 42.9275 50.634L42.9321 50.7338C42.8961 50.5392 42.8422 50.3361 42.7181 50.1774C43.7415 49.318 42.4589 41.5266 42.1613 40.1239C41.7743 39.876 42.7853 40.5211 41.8277 39.9112C41.84 39.7243 41.7874 39.3956 41.8668 39.3398C41.9608 39.274 41.8181 38.9682 41.8636 38.7626C41.9956 37.6603 42.0212 36.5469 42.0124 35.4948C42.3243 35.7202 42.8967 36.3531 43.3384 36.209C44.5985 37.83 46.9024 39.6528 48.7053 37.6203C49.2455 37.097 50.0603 36.5167 50.2655 35.7661C50.2572 35.7134 50.4122 35.5348 50.4396 35.4699C50.7527 35.5333 51.1515 35.5239 51.4506 35.4008C50.8689 39.234 51.7509 43.5682 52.0877 47.4228C52.6096 51.0489 52.5465 54.9975 53.7335 58.4905C53.9278 59.175 53.9176 58.8316 53.9598 58.8022C54.0713 58.8433 54.0366 58.8872 54.0792 58.8016C54.0982 58.8626 54.1288 58.9986 54.1764 59.0378C54.3359 58.8708 54.3114 58.3737 54.2772 58.2453Z" fill="#44022F"/>
</svg>
