<svg width="80" height="80" viewBox="0 0 80 80" fill="none" xmlns="http://www.w3.org/2000/svg">
<rect width="80" height="80" rx="40" fill="#FF5833"/>
<path fill-rule="evenodd" clip-rule="evenodd" d="M21.0864 31.0627C21.2466 30.1496 21.2672 30.2772 21.9278 29.7379C21.4944 29.0742 21.1896 27.7905 21.6538 27.2331C21.8136 27.2918 21.7754 27.2269 21.8104 27.2775C21.8541 27.3408 21.9164 27.2715 21.9669 27.3447C22.4005 27.5676 22.6396 28.1348 22.9519 28.3798C22.9519 28.4314 23.0935 28.5201 23.128 28.5456L23.252 28.7314C23.8813 28.2458 24.7326 28.1046 25.2022 28.8378L25.2283 29.0707C25.1878 29.1339 25.2748 29.2566 25.1696 29.282C25.116 29.295 25.1317 29.3918 25.0718 29.4255C24.9632 29.4866 24.9975 29.555 24.974 29.5736C24.9171 29.6185 24.9837 29.6199 24.948 29.6199C24.9153 29.6199 24.9219 29.6799 24.9088 29.719C24.7567 29.9342 24.4149 30.0842 24.1914 30.2298L24.9871 31.5493C25.6095 31.1016 26.3731 31.1024 26.8004 31.7475L26.82 31.8643C26.7884 31.8784 26.8473 31.9549 26.8264 31.981C26.7918 32.0247 26.82 32.0794 26.82 32.1546C26.6551 32.2533 26.7469 32.2965 26.67 32.3359C26.5836 32.3876 26.5824 32.4424 26.546 32.5309C26.5134 32.5309 26.5134 32.5896 26.5069 32.6287C26.3008 32.8743 26.1327 32.9133 25.8937 33.0748L26.572 34.472C27.2025 34.0167 27.9072 33.9415 28.418 34.6448C28.418 34.7547 28.4583 34.744 28.4311 34.7616L28.4442 34.877C28.3988 34.9308 28.4931 35.0602 28.3855 35.089C28.3378 35.1018 28.3489 35.202 28.2942 35.2293C28.2002 35.2762 28.2312 35.3127 28.1702 35.4224C28.058 35.7278 27.6658 35.8578 27.4005 36.0402C27.4478 36.1496 27.6774 36.4702 27.6223 36.5737C27.6829 36.7438 27.8262 36.9507 27.8962 37.2769C27.9092 37.396 28.1224 37.4962 28.0658 37.575C28.0112 37.729 28.313 37.9119 28.1506 38.162C28.0957 38.1651 28.0767 38.1325 28.0202 38.0929C28.0202 38.1462 27.9502 38.1288 27.9158 38.1483C27.8812 38.168 27.9601 38.3528 27.6549 38.1007C27.1212 37.69 26.5806 37.32 26.2395 36.6976C26.0223 36.7635 25.5367 36.9849 25.2612 37.1125C25.2464 37.1572 25.1913 37.0858 25.1763 37.0884C25.0921 37.1024 24.9805 37.156 24.8893 37.1268C24.8232 37.1056 24.8361 37.2566 24.7784 37.1829L24.7002 37.1653C24.7002 37.1655 24.6592 37.2434 24.5762 37.1692C24.3895 37.0024 24.5665 37.1053 24.4327 36.8998C24.2598 36.6445 24.5672 35.8838 24.8502 35.804C24.8502 35.8072 24.8566 35.8047 24.8566 35.8C24.9646 35.7069 25.2828 35.4192 25.3785 35.3904C25.0953 34.9687 24.636 34.1253 24.4458 33.8764L23.5783 34.2522C23.5701 34.2979 23.5062 34.2258 23.4934 34.228C23.4121 34.2428 23.2881 34.2984 23.1999 34.2698C23.1345 34.2487 23.1465 34.4 23.089 34.3266C23.0404 34.2645 22.9971 34.3401 22.9521 34.3461C22.9422 34.3474 22.7956 34.2934 22.7956 34.185C22.7956 34.122 22.8234 34.1883 22.7434 34.0454C22.7211 34.0048 22.6524 34.0456 22.6977 33.8413C22.7059 33.2078 23.1752 32.9228 23.6043 32.5857C23.2302 32.0515 22.9603 31.6058 22.6129 31.0522L21.9801 31.3418C21.9547 31.3868 21.9019 31.3022 21.9019 31.3196C21.8404 31.3318 21.6657 31.382 21.6019 31.3606C21.5438 31.3413 21.5463 31.4889 21.491 31.4174C21.4446 31.3575 21.3973 31.4301 21.3541 31.437C21.3508 31.4374 21.1975 31.3861 21.1975 31.2752C21.1972 31.1502 21.0864 31.101 21.0864 31.0627ZM63.7905 30.6426C63.0622 31.8218 62.3083 33.0474 61.5793 34.2124C60.3891 33.5967 58.4388 31.8639 57.4243 33.602C56.584 35.1448 55.2949 37.0705 54.737 38.5704C53.3164 38.8844 51.6711 39.9741 50.3211 40.5272C52.351 36.1003 49.6953 30.5553 45.4682 28.4445C47.742 25.4379 46.8225 25.3426 44.1115 23.5584V23.5544C43.9221 23.4777 46.4298 19.814 46.4727 19.6591L46.5183 19.6401C46.5183 19.6428 46.5248 19.6428 46.5248 19.6434C48.3874 20.4973 50.2497 21.3662 52.1017 22.257C50.0299 26.7494 56.0067 30.3764 59.1332 26.682L63.8686 30.5154L63.7905 30.6426ZM61.612 34.2282L61.5794 34.2126V34.2139L61.612 34.2282ZM61.5728 34.219C61.5728 34.2171 61.5728 34.223 61.5793 34.2177C61.5794 34.2177 61.5728 34.2177 61.5728 34.219ZM56.283 41.8004L54.5283 40.4032C49.9189 42.5139 43.3616 45.2602 38.7368 47.3395C40.1479 48.6685 41.1783 49.2661 42.5592 50.8357C42.4908 50.8261 42.2443 50.6532 42.1678 50.6035C42.2558 50.7212 42.2646 50.6787 42.1352 50.7079C43.0045 51.5692 38.0131 48.1525 37.7389 47.9971C38.3692 49.84 38.0274 51.7935 38.2413 53.6614C38.2899 55.609 38.56 57.8052 38.1433 59.7178C42.8698 57.4734 49.0557 54.6393 53.8435 52.5912C53.869 50.7198 54.1075 48.6139 54.3979 46.7683C50.6415 48.2212 46.5004 50.6269 42.5396 50.9924C47.3634 47.9601 52.8459 45.6033 58.031 43.1971L56.283 41.8004ZM35.8016 59.3106C31.1305 57.3151 25.4888 54.7428 20.8384 52.7677C20.7781 50.9134 20.5068 48.5388 20.3166 46.6213C24.2332 48.3052 28.3546 50.2099 32.4228 51.3216C27.9121 47.7766 22.0782 45.6502 16.8922 43.1623C18.0027 42.207 19.2608 41.216 20.3949 40.2786C25.7527 42.5917 31.0854 45.0015 36.4538 47.2964C35.2186 48.5454 33.8145 49.7732 32.651 51.0444C32.7032 51.0346 32.7814 50.9492 32.8272 50.9608C32.8215 51.0537 32.657 51.1785 32.8336 51.0907C32.729 51.1902 32.5165 51.3716 32.4423 51.4788C33.9802 50.7444 35.3882 49.3502 36.8451 48.417C36.5941 50.8412 36.5208 53.4808 36.5907 55.9429C36.6357 56.8267 36.5247 58.3081 36.7473 59.1319C36.7941 59.3905 36.8238 59.2214 36.8517 59.7717L35.8016 59.3106ZM19.7361 36.1909C19.9804 36.8011 20.1423 37.4617 20.5449 37.9905C20.6318 38.1267 20.5288 38.088 20.6036 38.2345C20.6511 38.3277 20.7337 38.5876 20.8449 38.6337C24.541 40.2198 28.5012 42.2221 32.1813 43.8891C29.0061 40.5002 29.3437 34.8548 32.1487 31.3668C31.1572 30.4683 30.4045 29.2516 29.4026 28.4616C27.5198 26.7824 20.6968 21.5517 19.2988 25.6305C18.0792 29.0464 18.5206 32.8594 19.7361 36.1909ZM33.623 32.0378C34.689 30.8506 36.1039 29.9856 37.6214 29.4535C37.5213 31.5295 38.4348 33.8762 39.0042 35.8608C38.2008 36.0579 37.0585 36.284 36.2385 36.391C35.4865 34.9033 34.6867 33.3518 33.1989 32.5419L33.623 32.0378ZM39.1934 29.0608L38.6194 29.1678C39.5594 31.152 40.0681 33.2869 40.6545 35.3924C41.4564 35.1703 42.3142 34.9176 43.1006 34.6377C42.9385 32.8958 42.716 31.2483 43.6876 29.5748C42.2905 29.0779 40.7064 28.8444 39.1934 29.0608ZM47.5034 32.4598C47.5099 32.4475 47.523 32.4376 47.5425 32.435C46.8831 31.512 45.6902 30.5604 44.6986 30.0398C44.7051 30.111 44.7051 30.1801 44.6986 30.2492C44.6234 30.6808 44.7109 30.6229 44.6922 30.7293C44.7943 31.6876 44.6937 32.9348 44.7835 33.9091C45.6607 33.3752 46.6323 33.15 47.5034 32.4598ZM42.6309 44.0749L46.662 42.1917C44.76 40.8076 44.0839 38.2963 43.4266 36.1341C42.75 36.418 41.7956 36.74 41.1176 37.0153C41.6124 39.1984 42.2574 41.8939 42.6309 44.0749ZM37.9736 46.2645C37.8496 46.3252 37.7192 46.3819 37.5888 46.4439C37.4839 46.3287 37.2512 46.2272 37.0995 46.1667C38.5426 43.9702 37.7451 40.4078 36.9429 38.0773C37.7408 37.9706 38.7116 37.7178 39.4999 37.4961C40.3118 39.7 40.6321 42.4054 41.998 44.3697L37.9736 46.2645ZM32.1554 34.1982C32.3774 33.7849 32.4717 33.5784 32.7424 33.1689C33.4322 34.2907 34.1011 35.3512 34.6406 36.5334C33.5682 36.59 32.4814 36.8611 31.3923 36.7669C31.59 35.6919 31.6788 35.2776 32.1554 34.1982ZM33.9687 44.7199L36.2256 45.7609C36.1524 43.2808 36.1555 40.6482 35.2276 38.263C33.9021 38.2642 32.5166 38.3668 31.301 37.6995C31.2486 40.1656 32.0978 43.1043 33.9687 44.7199ZM49.6623 39.4033C49.9405 37.1834 49.1514 34.8578 47.9859 33.0456C47.1987 34.1932 46.1574 34.73 44.9985 35.3755C45.2023 36.405 45.5031 37.4451 45.7812 38.4595C45.7813 38.4595 46.4988 40.1253 46.4988 40.1253L46.7205 40.5487C46.7515 40.6075 46.8265 40.6532 46.7923 40.749C46.7674 40.8183 47.0902 41.2821 47.151 41.5382C47.1705 41.6782 47.4265 41.7386 47.3596 41.8761L49.4665 40.9153C49.5981 40.4362 49.521 39.8968 49.6623 39.4033ZM63.8884 30.488C63.8884 30.4854 63.8884 30.4834 63.8884 30.4828C63.8949 30.4782 63.8949 30.4802 63.8884 30.488ZM65.6625 30.3876C65.8489 29.1249 59.7805 25.1563 59.3096 24.62C58.421 24.2715 58.2556 24.9666 57.7766 25.6462C56.9036 26.7512 54.9561 26.7984 54.039 25.7205C53.1422 24.8974 53.079 23.2408 53.8956 22.3365C54.1603 22.0527 54.104 21.4557 53.6346 21.2439C51.472 20.2716 49.2634 19.2648 47.0858 18.3315C46.4138 18.0476 45.6049 18.3309 45.266 18.9343C44.6112 20.059 43.4997 21.7894 42.8982 22.9124C42.0294 24.925 45.9598 25.1487 45.8792 26.2598C45.8575 26.386 45.0536 27.961 44.9398 28.186C40.6749 26.2124 35.3172 27.4965 32.351 31.1212C32.0366 27.9268 27.8908 24.5654 25.039 23.3696C15.1444 18.3166 15.6186 33.7549 19.984 38.5117C18.4623 39.5602 16.1442 41.5687 14.6419 42.726C14.1519 43.1272 14.2604 43.9344 14.8572 44.1916L19.7949 46.3904C19.7319 48.1376 19.7029 49.7025 19.6318 51.4188C19.7676 52.2862 19.073 53.6181 20.2058 53.9013C25.8684 56.4886 31.4322 59.2183 37.1257 61.7359C37.9906 61.981 38.8596 61.102 39.6957 60.8697C44.583 58.6096 50.1505 56.2332 54.9589 53.8285C55.6046 53.4465 55.3408 53.2556 55.3633 52.5114C55.32 52.1217 55.3383 51.7642 55.2784 51.3882C55.2528 49.8945 55.2056 47.874 55.0046 46.5046C63.6517 42.8212 61.1224 43.8277 55.1808 38.7687C56.3328 37.5506 57.7261 35.6296 58.6574 34.3359L58.69 34.3515V34.3534C59.9391 35.1387 61.8211 36.9042 63.0408 35.1458C63.5571 34.0752 65.7166 31.5777 65.6625 30.3876Z" fill="white"/>
</svg>
