<svg width="17" height="9" viewBox="0 0 17 9" fill="none" xmlns="http://www.w3.org/2000/svg">
<path d="M13.3301 1.4082C13.3783 1.62616 13.5729 2.11326 13.9978 3.29043C15.1088 5.96547 15.329 6.3809 15.3897 6.53888C15.4262 6.62445 15.4745 6.72099 15.5974 6.82046" stroke="#FF5833" stroke-width="1.5" stroke-linecap="round"/>
<path d="M7.99063 2.87109C7.9665 3.06491 7.82095 3.74437 7.68638 4.34411C7.53942 4.99902 7.35725 5.72057 7.25961 6.34298C7.16197 6.77084 7.08883 7.0634 7.0402 7.24588C7.0157 7.33182 6.99156 7.40423 6.89355 7.55197" stroke="#FF5833" stroke-width="1.5" stroke-linecap="round"/>
<path d="M3.30985 0.75C3.28572 0.919682 3.14017 1.40532 2.94489 1.95496C2.82037 2.30543 2.57993 2.62527 2.35978 3.00377C2.16721 3.33485 1.92168 3.77062 1.62876 4.12535C1.55526 4.21092 1.48285 4.30746 1.34901 4.45374C1.21516 4.60002 1.02208 4.7931 0.75 5.13832" stroke="#FF5833" stroke-width="1.5" stroke-linecap="round"/>
</svg>
