<svg width="29" height="30" viewBox="0 0 29 30" fill="none" xmlns="http://www.w3.org/2000/svg">
<path d="M23.537 7.35338C22.8171 7.48947 20.6278 7.65932 18.0984 7.76379C16.4855 7.8304 14.7997 7.52693 12.9133 7.35277C11.2633 7.20042 9.10486 7.02269 7.19091 6.61071C6.7244 6.50316 6.21583 6.41204 5.40455 6.20466C4.59328 5.99727 3.49471 5.67638 1.65397 5.31276" stroke="#FF5833" stroke-width="3" stroke-linecap="round"/>
<path d="M21.6538 15.666C20.8257 15.6 17.9226 15.202 15.3601 14.834C12.5618 14.4322 9.47881 13.934 6.81943 13.667C4.99131 13.4 3.74131 13.2 2.96162 13.067C2.59443 13 2.28506 12.934 1.65381 12.666" stroke="#FF5833" stroke-width="3" stroke-linecap="round"/>
<path d="M27.0776 23.2715C26.1381 23.0996 23.8685 22.9565 18.4723 22.4848C5.92525 21.8175 3.88349 21.8463 3.15211 21.7933C2.74872 21.7748 2.27989 21.7735 1.65365 21.9756" stroke="#FF5833" stroke-width="3" stroke-linecap="round"/>
</svg>
