<svg width="162" height="188" viewBox="0 0 162 188" fill="none" xmlns="http://www.w3.org/2000/svg">
<path d="M81.3833 110.987C81.8883 112.864 80.1603 113.246 79.4553 114.361C67.9133 132.622 56.3733 151.972 43.7893 170.269C40.3913 175.21 37.1953 180.991 31.7403 184.246C31.1853 184.577 26.2783 187.068 25.9563 187.138C24.5333 187.446 17.8473 187.411 16.3173 187.138C15.9593 187.074 15.7463 186.286 15.3533 186.174C14.7293 185.996 13.9473 186.382 13.4253 186.174C11.3263 185.337 10.0323 183.113 8.60528 182.318C8.14928 182.064 7.33927 182.498 7.15927 182.318C6.97927 182.138 7.41327 181.328 7.15927 180.872C6.63427 179.93 4.93827 178.984 4.26727 177.98C3.81227 177.299 1.48627 171.767 1.37527 171.232C1.14027 170.098 1.58527 168.556 1.37527 167.376C1.30927 167.006 0.455284 166.765 0.411284 166.412C-0.275716 160.848 0.0212839 150.058 0.411284 144.241C0.814284 138.233 2.67428 130.938 3.30328 124.962C5.72928 101.894 8.30426 78.679 12.9423 56.522C13.5713 53.517 13.5803 52.6421 14.8703 49.7751C15.1453 49.1651 15.5653 47.289 15.8343 46.883C16.4263 45.988 19.2453 43.2191 20.1723 42.5451C20.3723 42.4001 20.9063 42.7011 21.1363 42.5451C21.7933 42.0981 22.6143 40.746 23.0643 40.617C23.6673 40.444 24.4193 40.8 24.9923 40.617C25.3893 40.49 25.5963 39.728 25.9563 39.653C27.0873 39.418 28.6203 39.851 29.8123 39.653C30.1813 39.591 30.4553 38.689 30.7763 38.689C31.0973 38.689 31.3713 39.591 31.7403 39.653C33.2133 39.898 35.1883 39.351 36.5603 39.653C38.4583 40.072 42.4873 43.3781 44.2723 44.4731C52.4983 49.5191 60.3483 54.537 68.3703 59.896C70.1473 61.083 70.6943 63.585 73.6723 62.788C73.6993 60.795 75.5813 59.202 76.5643 57.486C84.8473 43.017 92.6683 27.1231 102.59 13.1451C106.039 8.28606 107.47 6.12209 112.711 3.02409C113.366 2.63609 115.186 1.20999 115.603 1.09599C116.406 0.876989 117.619 1.28599 118.495 1.09599C118.873 1.01399 119.102 0.185 119.459 0.132C120.644 -0.044 123.094 -0.044 124.279 0.132C124.636 0.185 124.865 1.01299 125.243 1.09599C126.117 1.28699 127.33 0.876989 128.135 1.09599C129.791 1.54699 132.439 3.90107 133.919 4.95207C134.218 5.16507 135.42 4.97599 136.329 6.39799C136.485 6.64199 136.188 7.16198 136.329 7.36198C137.899 9.58698 139.967 11.174 141.149 14.11C142.184 16.681 142.46 20.3611 143.077 22.7851C148.356 43.5191 151.263 65.2551 155.608 86.4051C156.247 89.5141 159.133 100.082 158.5 102.792C157.764 105.942 156.734 110.658 157.536 114.359C157.71 115.163 160.253 118.374 160.428 119.179C160.671 120.3 160.214 121.86 160.428 123.035C160.479 123.312 161.964 124.044 161.392 125.927C161.272 126.323 160.493 126.535 160.428 126.891C160.214 128.066 160.674 129.632 160.428 130.747C160.35 131.099 159.627 131.301 159.464 131.711C159.207 132.357 158.765 134.202 158.5 134.603C157.839 135.602 153.234 140.206 152.234 140.869C151.981 141.037 148.837 142.627 148.378 142.797C147.57 143.096 146.259 142.29 145.486 143.761H135.847C134.711 142.287 131.632 142.455 130.063 141.833C125.116 139.873 120.114 135.96 115.604 133.157C105.399 126.815 95.6043 120.158 85.7223 113.878C85.0523 113.454 81.8763 110.475 81.3833 110.987ZM123.796 97.492L121.868 91.226C120.459 81.122 118.052 71.191 116.084 61.344C115.881 60.33 116.679 58.358 115.602 57.97C114.953 58.822 113.726 59.549 113.192 60.38C109.775 65.695 106.878 73.149 103.553 78.695C103.119 79.418 100.66 81.8411 100.661 82.5511L120.422 96.528L123.796 97.492ZM38.0063 115.807L44.7533 106.65C46.7523 102.784 49.3193 98.7081 51.5013 95.0831C52.5083 93.4101 55.4233 91.9791 51.9833 89.7811C51.1693 89.2611 48.9043 88.3761 48.1273 87.8531C46.6043 86.8291 44.7443 85.224 43.3073 83.997L41.8613 86.407C41.3163 95.046 39.8833 102.923 38.9693 111.47C38.7763 113.277 38.2133 114.181 38.0063 115.807Z" fill="white"/>
</svg>
