<svg width="58" height="52" viewBox="0 0 58 52" fill="none" xmlns="http://www.w3.org/2000/svg">
<path d="M35.6154 14.5504L36.2997 13.7567C37.595 11.0613 38.532 8.06128 39.721 5.36658C39.889 4.98572 40.4207 3.87044 40.6334 3.55262C40.7751 3.34067 41.4393 2.6914 41.6599 2.53215C41.7072 2.49804 41.8335 2.56908 41.888 2.53215C42.0434 2.42699 42.2377 2.10895 42.3442 2.0786C42.4868 2.0379 42.6645 2.12165 42.8003 2.0786C42.895 2.04849 42.9449 1.86665 43.0284 1.85183C43.3995 1.78619 44.7103 1.78619 45.0814 1.85183C45.1651 1.86665 45.2148 2.04849 45.3095 2.0786C45.445 2.12165 45.623 2.0379 45.7657 2.0786C45.8721 2.10895 46.0664 2.42699 46.2219 2.53215C46.2763 2.56908 46.4026 2.49804 46.45 2.53215C46.6352 2.666 47.1293 3.14731 47.2483 3.32585C47.2807 3.37455 47.2126 3.49264 47.2483 3.55262C47.3508 3.72506 47.651 4.08945 47.7045 4.23295C47.7518 4.35998 47.6631 4.54088 47.7045 4.68649C47.7308 4.77871 47.9175 4.82905 47.9326 4.91327C47.9828 5.19274 47.9828 5.99444 47.9326 6.27391C47.9175 6.35812 47.7308 6.40847 47.7045 6.50068C47.4501 7.39225 47.113 7.77052 46.7921 8.5414C46.0551 10.3128 45.5757 12.2679 44.5111 13.9837L43.8268 15.9111L50.3272 13.8703C51.211 13.1839 52.2909 13.1484 53.2923 12.9633C53.3794 12.9473 53.4333 12.7522 53.5204 12.7365C53.7275 12.6988 54.2258 12.6988 54.4328 12.7365C54.5192 12.7522 54.5717 12.9437 54.6609 12.9633C54.8672 13.0087 55.1547 12.9117 55.3452 12.9633C55.4325 12.9868 55.4789 13.1559 55.5733 13.19C56.2157 13.422 56.8922 13.8496 57.2841 14.4373C57.3165 14.486 57.2484 14.6041 57.2841 14.6641C57.3757 14.8184 57.7133 15.2463 57.7403 15.3444C57.7923 15.5344 57.6932 15.8217 57.7403 16.0247C57.7597 16.1082 58.1042 16.2611 57.9684 16.705C57.94 16.7982 57.7557 16.848 57.7403 16.9318C57.6896 17.2082 57.7985 17.5768 57.7403 17.8389C57.7218 17.9217 57.5508 17.9692 57.5122 18.0657C57.2521 18.7163 56.8752 19.3588 56.2576 19.7665C56.2075 19.7996 56.0875 19.7312 56.0295 19.7665C55.721 19.9551 55.1853 20.335 54.889 20.4468C51.1935 21.842 46.8827 22.9142 43.0284 24.3017L42.002 24.8686C42.2185 25.1166 42.5242 25.2709 42.8003 25.4356C44.2028 26.2721 45.8906 27.0326 47.3622 27.9298C48.1468 28.4083 48.8417 29.0849 49.3008 29.8572C49.4032 30.0296 49.7035 30.394 49.757 30.5375C49.8043 30.6645 49.7156 30.8456 49.757 30.991C49.7832 31.0832 49.9699 31.1336 49.9851 31.2178C50.0352 31.4973 50.0352 32.299 49.9851 32.5784C49.9732 32.6445 49.5977 32.9028 49.757 33.2588L48.0464 35.1863C47.6631 35.036 47.4703 35.3816 47.3622 35.4131C47.1759 35.4672 46.8811 35.3649 46.6778 35.4131C46.5886 35.4343 46.5387 35.6192 46.4497 35.6399C45.8854 35.7709 45.6959 35.4507 45.5373 35.4131C45.3345 35.3651 45.0416 35.4663 44.853 35.4131C44.7643 35.3879 44.7177 35.2172 44.6249 35.1863C43.8528 34.9306 43.9082 34.8963 43.2563 34.506C41.9816 33.7427 40.5442 33.2237 39.3788 32.2385L37.6681 31.5582C37.6035 31.9165 37.855 32 37.8962 32.3519C38.4163 36.7822 38.9271 41.073 39.4926 45.5041C39.5033 45.588 39.7132 45.6492 39.7207 45.7308C39.7901 46.4888 39.8435 48.4483 39.7207 49.1322C39.7058 49.2155 39.5229 49.2649 39.4926 49.359C39.4493 49.4938 39.5336 49.6707 39.4926 49.8125C39.4621 49.9184 39.1422 50.1115 39.0364 50.2661C38.9993 50.3202 39.0708 50.4458 39.0364 50.4928C38.9018 50.677 38.4174 51.1682 38.2381 51.2865C38.1891 51.3188 38.0703 51.251 38.01 51.2865C37.8365 51.3884 37.47 51.6869 37.3257 51.7401C37.1979 51.7871 37.016 51.6989 36.8695 51.7401C36.7767 51.7662 36.7261 51.9518 36.6414 51.9669C35.6991 52.1339 35.0293 51.6206 34.1325 51.5133L32.4218 49.586C32.245 49.0717 32.2902 48.5391 32.1936 47.9986C31.7916 45.7496 31.3399 43.2302 31.0531 40.9691C30.9926 40.4913 31.2424 39.4139 30.711 39.2683C30.153 39.1153 29.0762 39.3828 28.4302 39.2683C28.3467 39.2534 28.2968 39.0716 28.2021 39.0415C28.0665 38.9984 27.8886 39.0822 27.7459 39.0415C27.5916 38.9975 27.2743 38.479 27.0616 38.3612C26.9537 38.3014 26.7621 38.4035 26.7195 38.3612C26.6769 38.3188 26.7796 38.1283 26.7195 38.021C26.6314 37.8639 26.3498 37.7237 26.2632 37.5675C26.2308 37.5091 26.2954 37.3981 26.2632 37.3407C26.1811 37.1941 25.8236 36.7366 25.807 36.6604C25.7387 36.3456 25.7465 34.957 25.807 34.6194C25.8222 34.5354 26.0086 34.4851 26.0351 34.3926C26.4206 33.0525 27.1383 31.8977 27.8597 30.5377C27.8914 30.4782 27.8283 30.3693 27.8597 30.3109C27.9877 30.0731 28.9844 28.8188 28.7721 28.6101L26.8335 28.8369C19.9138 30.513 12.6941 31.4587 5.3934 32.2383C4.96749 32.2837 4.21644 32.2898 3.79668 32.2383C3.71315 32.2279 3.65589 32.0268 3.56858 32.0115C3.2889 31.9626 2.91931 32.0694 2.65619 32.0115C2.5729 31.9932 2.5251 31.8231 2.42809 31.7847C1.77384 31.5264 1.12692 31.1515 0.717333 30.5375C0.684917 30.4888 0.753063 30.3707 0.717333 30.3107C0.614877 30.1383 0.314583 29.7739 0.261107 29.6304C0.213783 29.5034 0.302516 29.3222 0.261107 29.1768C0.234842 29.0846 0.0481521 29.0343 0.0330084 28.9501C-0.0110028 28.7042 -0.0110028 28.062 0.0330084 27.8162C0.0481521 27.732 0.234606 27.6816 0.261107 27.5894C0.302752 27.4443 0.21402 27.2631 0.261107 27.1359C0.293761 27.0479 0.446643 27.0032 0.489235 26.9091C0.554305 26.7654 0.653683 26.3243 0.717333 26.2288C0.842742 26.0404 1.55402 25.3335 1.74379 25.2083C1.79277 25.1758 1.91155 25.2438 1.97189 25.2083C2.14533 25.1064 2.51185 24.8079 2.65619 24.7548C2.78396 24.7077 2.96592 24.7959 3.11238 24.7548C3.20514 24.7287 3.25577 24.543 3.34048 24.528C3.98551 24.4137 4.9107 24.5804 5.62127 24.528C10.9798 24.1321 16.228 22.8425 21.3593 22.0337C21.6738 21.9841 22.0559 22.0664 22.3858 22.0337L20.6752 20.6731C19.3937 20.1868 18.3365 19.1085 17.0259 18.8589C16.6555 18.4197 16.1336 18.315 15.7713 17.8384C15.7377 17.7942 15.8094 17.6674 15.7713 17.6116C15.6655 17.4571 15.3456 17.2639 15.3151 17.1581C15.2742 17.0162 15.3584 16.8393 15.3151 16.7045C15.2848 16.6104 15.1019 16.5608 15.087 16.4778C15.0231 16.1216 15.0141 14.5384 15.087 14.2103C15.1055 14.1275 15.2765 14.0799 15.3151 13.9835C15.5749 13.3333 15.9521 12.6899 16.5697 12.2827C16.6186 12.2505 16.7374 12.3182 16.7978 12.2827C16.9712 12.1808 17.3377 11.8823 17.4821 11.8292C17.6098 11.7821 17.7918 11.8703 17.9383 11.8292C18.031 11.803 18.0816 11.6174 18.1664 11.6024C18.4995 11.5433 19.4148 11.5518 19.7631 11.6024C19.8473 11.6146 19.9015 11.8096 19.9912 11.8292C20.198 11.8741 20.4852 11.7776 20.6755 11.8292C21.1986 11.971 22.037 12.6993 22.5003 12.963C23.9299 13.777 25.4235 14.6012 26.834 15.4573C27.0502 15.5886 27.9373 16.3042 28.0885 16.1376C28.0547 15.8101 28.1394 15.4284 28.0885 15.1171C27.6884 12.673 27.3765 10.0726 26.948 7.63408C26.7959 6.76768 26.644 6.00597 26.4918 5.13981C26.4764 5.053 26.2741 4.99631 26.2637 4.91303C26.2204 4.56887 26.2143 3.88879 26.2637 3.55239C26.276 3.46865 26.4722 3.41454 26.4918 3.32562C26.537 3.12002 26.44 2.83443 26.4918 2.6453C26.5155 2.55849 26.6856 2.51238 26.7199 2.41852C26.9532 1.77984 27.3834 1.10728 27.9745 0.717723C28.0235 0.685495 28.1422 0.753245 28.2026 0.717723C28.376 0.615863 28.7425 0.317341 28.8869 0.264176C29.0147 0.217128 29.1966 0.305344 29.3431 0.264176C29.4358 0.238064 29.4865 0.052459 29.5712 0.0374035C29.8523 -0.0124678 30.6587 -0.0124678 30.9398 0.0374035C31.0245 0.052459 31.0751 0.238064 31.1679 0.264176C31.3158 0.305814 31.5006 0.215246 31.6241 0.264176C31.9693 0.400852 32.2582 0.750893 32.5365 0.944498C32.5905 0.982136 32.7192 0.910388 32.7646 0.944498C32.931 1.06988 33.2087 1.34606 33.3348 1.51143C33.3692 1.5566 33.297 1.68457 33.3348 1.7382C33.5296 2.01461 33.8817 2.30208 34.0192 2.6453C34.1623 3.00334 34.1699 3.62108 34.2473 4.00594C34.5849 5.68533 34.7423 7.20476 34.9316 8.99472C35.0577 10.1862 35.4992 11.6593 35.6159 12.8496C35.6691 13.3985 35.578 13.9957 35.6154 14.5504Z" fill="#FFCA24"/>
</svg>
