<svg width="67" height="63" viewBox="0 0 67 63" fill="none" xmlns="http://www.w3.org/2000/svg">
<path d="M9.35077 9.43265C9.39057 9.40625 9.52327 9.51623 9.61666 9.48647C9.85302 9.41104 10.1516 9.14604 10.4333 9.09824L12.4188 9.31565C12.5548 9.46776 12.8975 9.72605 13.0561 9.81368C16.1524 11.5242 19.0886 13.4149 22.087 15.332C28.5598 19.4706 32.6983 25.6071 33.1101 33.3388C33.2977 36.8607 32.6719 40.5137 32.9788 44.0136C33.0792 45.1576 33.264 46.3234 33.7867 47.3137C34.2567 48.2039 36.038 49.8578 36.9359 50.442C37.1072 50.5535 37.5985 50.6882 37.7863 50.7987C40.4653 52.3759 42.6923 53.329 45.8656 53.7258C46.3153 53.7821 47.2546 53.9332 47.6379 54.0846C47.6877 54.1043 47.8306 54.437 48.1338 54.3695C48.3519 54.7709 48.7414 54.935 48.9472 55.3645C48.9668 55.4052 48.8905 55.4938 48.9113 55.5417C49.0203 55.7926 49.2218 56.0496 49.2996 56.3584C49.2726 56.648 49.1299 56.9677 49.1202 57.2447C49.1178 57.3147 49.2735 57.3988 49.2616 57.4578C49.2496 57.5168 49.0735 57.5335 49.0484 57.5992C48.9675 57.8111 48.9901 58.1091 48.9049 58.3082C48.8777 58.3716 48.7299 58.3812 48.6918 58.4496C48.6367 58.5481 48.6743 58.6996 48.62 58.8041C48.5795 58.8821 48.3004 58.9827 48.1937 59.0868C48.1552 59.1244 48.1911 59.2347 48.1578 59.2641C47.801 59.5796 47.3788 59.5794 47.0215 59.8644C46.4033 60.0676 46.11 59.9473 45.5317 59.9318C45.4615 59.93 45.3851 60.0783 45.3186 60.0732C44.4529 60.0065 42.8173 59.6343 41.9509 59.3915C40.1648 58.8909 38.2823 58.0112 36.6716 57.2157C32.8495 55.328 29.6964 53.1873 27.8951 49.0735C27.769 48.7856 27.1679 47.429 27.1545 47.2631C27.0953 46.5309 26.9642 45.7601 26.876 44.9927C26.0052 37.4054 29.1001 30.992 23.0589 24.201C22.1848 23.2186 21.1081 22.1174 20.1218 21.3924C17.4097 19.3991 14.1673 17.7064 11.2681 15.91C10.3622 15.3486 9.48549 14.7815 8.68339 14.0952L7.97758 12.5686C8.13448 12.0613 7.87364 11.6494 8.08738 11.1147C8.1132 11.05 8.27111 11.0395 8.30051 10.9733C8.36857 10.8202 8.33775 10.5804 8.40816 10.4415C8.418 10.422 8.63024 10.1527 8.65717 10.1229C8.80139 9.96382 9.16273 9.85506 9.29658 9.69878C9.36069 9.62407 9.31098 9.45905 9.35077 9.43265Z" fill="#498ACA"/>
<path d="M19.3432 5.64362C19.3403 5.42716 19.5433 4.42221 19.6302 4.22574C19.6576 4.16385 19.7981 4.15376 19.8434 4.08437C20.1956 3.54464 20.5219 3.05812 21.1233 2.77506C21.3486 2.85955 21.7073 2.59479 21.904 2.56408C22.0108 2.54747 22.1383 2.64513 22.2585 2.63584C22.3348 2.63006 22.4036 2.49293 22.4717 2.49447C22.7238 2.50027 23.4776 2.65304 23.7125 2.74564C23.7879 2.77545 24.5171 3.20163 24.7042 3.31544C26.1805 4.21273 27.4546 5.30817 29.0951 6.23381C32.5985 8.21063 35.8284 10.0754 38.7609 13.1721C43.7775 18.4694 46.0708 25.3775 46.7667 32.4131C47.3263 38.0716 47.567 43.8971 53.7557 46.6512C53.8219 46.6806 53.8324 46.8385 53.897 46.8643C54.5484 47.1249 54.9607 46.787 55.3868 46.7969C55.6381 46.8027 56.5904 46.9889 56.8047 47.0839C56.8666 47.1113 56.8767 47.2518 56.9461 47.297C57.3403 47.5542 57.5731 47.8085 57.9019 48.0441C58.0032 48.3173 58.2849 48.7362 58.3609 48.9673C58.3764 49.0147 58.3097 49.0905 58.325 49.1446C58.3608 49.2702 58.571 49.6837 58.5718 49.7481C58.5751 49.9932 58.3114 51.2982 58.2131 51.5205C58.1857 51.5824 58.0452 51.5924 57.9999 51.6618C57.8217 51.9349 57.6189 52.1889 57.466 52.4763C56.9192 52.9159 56.3099 53.0653 55.7263 53.3235C54.6987 53.2994 53.2009 53.136 52.1455 52.7832C52.0822 52.762 52.0696 52.5959 52.0041 52.57C45.6689 50.0722 42.3931 45.2606 41.2908 38.5006C40.9539 36.4344 40.934 34.4742 40.6666 32.4701C39.4632 23.4529 35.9686 17.0495 27.8035 12.6148C25.2783 11.2433 22.7987 9.61021 20.2962 7.77396L19.6959 6.6376L19.3432 5.64362Z" fill="#498ACA"/>
</svg>
