<svg width="282" height="200" viewBox="0 0 282 200" fill="none" xmlns="http://www.w3.org/2000/svg">
<path d="M279.259 115.689C279.789 116.485 281.384 120.092 281.552 120.966C281.598 121.201 281.208 121.516 281.217 121.809C281.23 122.27 281.447 123.51 281.391 123.824C281.298 124.342 279.739 128.301 279.545 128.461C279.204 128.741 278.601 128.709 278.364 128.974C278.07 129.304 277.295 130.779 277.102 130.917C276.41 131.412 273.258 132.76 272.379 132.97C272.143 133.026 271.804 132.604 271.534 132.64C270.091 132.834 268.945 133.043 267.481 133.008C257.821 132.773 248.962 130.784 240.109 128.176C226.511 124.171 213.699 119.68 200.22 115.542L153.233 101.114C152.513 103.698 151.377 106.316 150.636 108.865C144.783 128.988 139.704 149.611 134.834 169.407C134.531 170.637 132.25 177.644 132.323 178.166C132.527 179.611 133.768 181.701 134.026 183.699C134.066 184.007 133.455 184.867 133.355 185.385C133.321 185.567 133.646 185.811 133.61 185.971C133.453 186.668 132.799 188.296 132.436 188.922C131.147 191.142 128.408 194.046 126.289 195.776C126.079 195.948 126.156 196.485 125.954 196.619C125.098 197.186 120.986 199.001 120.05 199.186C119.814 199.232 119.499 198.846 119.205 198.856C118.741 198.872 117.494 199.094 117.178 199.04C116.467 198.916 113.136 197.617 112.529 197.226C112.39 197.137 112.434 196.755 112.274 196.64C111.885 196.361 110.453 195.567 110.329 195.395C109.762 194.609 108.018 190.536 107.78 189.532C107.726 189.3 108.143 188.966 108.116 188.689C108.076 188.292 107.66 187.93 107.606 187.516C107.563 187.182 108.545 184.292 108.694 183.558C109.643 178.885 110.939 173.47 112.117 168.826C118.066 145.381 124.968 121.733 131.101 97.838C131.316 97.0005 131.852 96.1564 132.108 95.309L131.853 94.7227C128.688 93.7497 125.541 92.4906 122.387 91.5184C86.2746 80.3863 49.1047 71.0002 12.7823 59.0003C10.8955 58.3771 6.19246 56.7957 4.75236 55.8684C4.61311 55.7792 4.6574 55.3969 4.49749 55.2821C4.10879 55.0027 2.67666 54.2093 2.552 54.0364C2.04559 53.3338 0.166112 49.0151 0.0036161 48.1739C-0.0416708 47.939 0.347761 47.6236 0.339203 47.3309C0.325827 46.8695 0.108764 45.6297 0.165061 45.3153C0.276625 44.694 1.67809 41.1381 2.01083 40.6789C2.10579 40.5472 2.4562 40.5843 2.60128 40.4222C2.7958 40.2046 2.74564 39.7708 2.9369 39.5792C3.20164 39.3137 3.78266 39.3403 4.11781 39.0659C4.32891 38.8931 4.25165 38.3569 4.45339 38.2229C5.25688 37.6907 8.88602 36.0864 9.76753 35.9129C10.0035 35.866 10.318 36.2529 10.6128 36.2426C11.5156 36.2117 13.338 36.0031 14.0749 36.1319C17.269 36.6916 22.3246 39.143 25.6536 40.1604C60.1514 50.7051 95.053 60.5356 129.596 70.9571C132.441 71.8155 134.964 73.0334 137.794 73.6676C138.517 73.5869 139.067 71.9436 139.223 71.3035C142.761 56.8252 147.841 42.6016 152.03 28.0951C153.606 22.642 154.946 18.7135 154.609 13.033C154.485 10.9485 154.87 9.09609 155.945 7.22455C156.095 6.96247 156.952 5.62047 157.207 5.28192C157.399 5.02701 158.938 3.169 159.059 3.08263C159.681 2.63698 160.754 2.49821 161.42 2.05597C161.695 1.87393 161.911 0.740861 163.527 0.442994C163.781 0.396407 164.118 0.818285 164.373 0.772649C164.951 0.668206 165.589 0.084177 166.144 0.00266392C166.397 -0.0347608 166.707 0.350349 166.989 0.332306C167.458 0.30202 168.705 0.0950623 169.016 0.148637C169.727 0.271926 173.058 1.57166 173.665 1.96173C173.804 2.05089 173.76 2.43316 173.92 2.54805C174.309 2.82742 175.741 3.62079 175.865 3.79366C176.399 4.53484 178.497 9.35413 178.669 10.2425C178.714 10.4774 178.324 10.7922 178.333 11.0855C178.447 15.0017 177.538 16.7071 176.668 20.1738C171.87 39.2894 165.058 58.3997 160.183 77.5284C159.97 78.3651 159.43 79.2105 159.176 80.0573C162.9 81.2592 166.609 82.745 170.332 83.921C197.487 92.4973 225.072 101.135 252.982 109.336C259.228 111.171 266.457 110.124 272.155 111.457C272.957 111.644 276.253 112.875 276.804 113.27C276.936 113.364 276.897 113.713 277.059 113.856C277.277 114.05 277.713 113.997 277.905 114.186C278.17 114.448 278.14 115.027 278.414 115.359C278.586 115.568 279.126 115.489 279.259 115.689Z" fill="white"/>
</svg>
